<?xml version="1.0" encoding="utf-8"?>
<!-- Generator: Adobe Illustrator 25.2.3, SVG Export Plug-In . SVG Version: 6.00 Build 0)  -->
<svg version="1.1" id="圖層_1" xmlns="http://www.w3.org/2000/svg" xmlns:xlink="http://www.w3.org/1999/xlink" x="0px" y="0px"
	 viewBox="0 0 60 60" style="enable-background:new 0 0 60 60;" xml:space="preserve">
<style type="text/css">
	.st0{fill:#FFFFFF;}
	.st1{fill:#F0F0F1;}
	.st2{fill:#FF6542;}
	.st3{fill:#3F3A3A;}
</style>
<path class="st0" d="M38.4,31.2c0,0.1,0,0.2,0,0.3C38.4,31.3,38.4,31.2,38.4,31.2z"/>
<path class="st0" d="M21.6,31.4c0-0.1,0-0.2,0-0.3C21.6,31.2,21.6,31.3,21.6,31.4z"/>
<path class="st1" d="M30,43.5c-6.6,0-12.1-4.7-13.3-11H0.1C1.4,47.9,14.3,60,30,60s28.6-12.1,29.9-27.5H43.3
	C42.1,38.8,36.6,43.5,30,43.5z"/>
<path class="st2" d="M0.1,27.5h16.6c1.2-6.3,6.7-11,13.3-11c6.6,0,12.1,4.7,13.3,11h16.6C58.6,12.1,45.7,0,30,0S1.4,12.1,0.1,27.5z"
	/>
<path class="st2" d="M38.4,28.6c0,0.1,0,0.2,0,0.3C38.4,28.8,38.4,28.7,38.4,28.6z"/>
<path class="st2" d="M21.6,28.8c0-0.1,0-0.2,0-0.3C21.6,28.7,21.6,28.8,21.6,28.8z"/>
<path class="st2" d="M34.3,22.7c0.1,0.1,0.2,0.1,0.3,0.2C34.5,22.8,34.4,22.8,34.3,22.7z"/>
<path class="st2" d="M33.4,22.2c0.2,0.1,0.4,0.2,0.6,0.3C33.8,22.4,33.6,22.3,33.4,22.2z"/>
<path class="st2" d="M32.6,21.9c0.1,0,0.3,0.1,0.4,0.2C32.9,22,32.8,22,32.6,21.9z"/>
<path class="st2" d="M35,23.1c0.1,0.1,0.2,0.1,0.2,0.2C35.1,23.2,35,23.2,35,23.1z"/>
<path class="st2" d="M31.9,21.7c0.2,0,0.3,0.1,0.4,0.1C32.2,21.8,32,21.7,31.9,21.7z"/>
<path class="st2" d="M36.8,25c0,0.1,0.1,0.1,0.1,0.2C36.9,25.1,36.9,25,36.8,25z"/>
<path class="st2" d="M37.6,26.1c0,0.1,0.1,0.2,0.1,0.3C37.7,26.3,37.6,26.2,37.6,26.1z"/>
<path class="st2" d="M37.9,26.8c0,0.1,0.1,0.2,0.1,0.3C38,27,37.9,26.9,37.9,26.8z"/>
<path class="st2" d="M37.2,25.5c0,0.1,0.1,0.2,0.1,0.2C37.3,25.7,37.3,25.6,37.2,25.5z"/>
<path class="st2" d="M31.1,21.6c0.2,0,0.3,0,0.5,0.1C31.4,21.6,31.2,21.6,31.1,21.6z"/>
<path class="st2" d="M35.6,23.6c0.1,0.1,0.1,0.1,0.2,0.2C35.7,23.7,35.6,23.6,35.6,23.6z"/>
<path class="st2" d="M26,22.5c0.2-0.1,0.4-0.2,0.6-0.3C26.4,22.3,26.2,22.4,26,22.5z"/>
<path class="st2" d="M23,25.1c0-0.1,0.1-0.1,0.1-0.2C23.1,25,23.1,25.1,23,25.1z"/>
<path class="st2" d="M23.9,24.1C23.9,24.1,23.9,24.1,23.9,24.1C23.9,24.1,23.9,24.1,23.9,24.1z"/>
<path class="st2" d="M24.3,23.7c0.1-0.1,0.1-0.1,0.2-0.2C24.4,23.6,24.3,23.7,24.3,23.7z"/>
<path class="st2" d="M22.3,26.4c0-0.1,0.1-0.2,0.1-0.3C22.4,26.2,22.3,26.3,22.3,26.4z"/>
<path class="st2" d="M22,27.2c0-0.1,0.1-0.2,0.1-0.4C22.1,26.9,22,27,22,27.2z"/>
<path class="st2" d="M24.8,23.3c0.1-0.1,0.2-0.1,0.2-0.2C25,23.2,24.9,23.2,24.8,23.3z"/>
<path class="st2" d="M22.6,25.8c0-0.1,0.1-0.2,0.1-0.2C22.7,25.6,22.7,25.7,22.6,25.8z"/>
<path class="st2" d="M26.9,22.1c0.1-0.1,0.3-0.1,0.4-0.2C27.2,22,27.1,22,26.9,22.1z"/>
<path class="st2" d="M25.4,22.9c0.1-0.1,0.2-0.1,0.3-0.2C25.6,22.8,25.5,22.8,25.4,22.9z"/>
<path class="st2" d="M27.7,21.8c0.1,0,0.3-0.1,0.4-0.1C28,21.7,27.8,21.8,27.7,21.8z"/>
<path class="st2" d="M28.4,21.7c0.2,0,0.3-0.1,0.5-0.1C28.8,21.6,28.6,21.6,28.4,21.7z"/>
<path class="st2" d="M29.2,21.5c0.3,0,0.5,0,0.8,0C29.7,21.5,29.5,21.5,29.2,21.5z"/>
<path class="st2" d="M30,21.5c0.3,0,0.5,0,0.8,0C30.5,21.5,30.3,21.5,30,21.5z"/>
<path class="st0" d="M35.7,36.3c-0.1,0.1-0.1,0.1-0.2,0.2C35.6,36.4,35.7,36.3,35.7,36.3z"/>
<path class="st0" d="M35.2,36.7c-0.1,0.1-0.1,0.1-0.2,0.2C35,36.8,35.1,36.8,35.2,36.7z"/>
<path class="st0" d="M34.6,37.1c-0.1,0.1-0.2,0.1-0.3,0.2C34.4,37.2,34.5,37.2,34.6,37.1z"/>
<path class="st0" d="M37,34.9c0,0.1-0.1,0.1-0.1,0.2C36.9,35,36.9,34.9,37,34.9z"/>
<path class="st0" d="M38,32.8c0,0.1-0.1,0.2-0.1,0.3C37.9,33.1,38,33,38,32.8z"/>
<path class="st0" d="M37.4,34.2c0,0.1-0.1,0.2-0.1,0.2C37.3,34.4,37.3,34.3,37.4,34.2z"/>
<path class="st0" d="M37.7,33.6c0,0.1-0.1,0.2-0.1,0.3C37.6,33.8,37.7,33.7,37.7,33.6z"/>
<path class="st0" d="M30.8,38.5c-0.3,0-0.5,0-0.8,0C30.3,38.5,30.5,38.5,30.8,38.5z"/>
<path class="st0" d="M30,38.5c-0.3,0-0.5,0-0.8,0C29.5,38.5,29.7,38.5,30,38.5z"/>
<path class="st0" d="M24.4,36.4c-0.1-0.1-0.1-0.1-0.2-0.2C24.3,36.3,24.4,36.4,24.4,36.4z"/>
<path class="st0" d="M22.8,34.5c0-0.1-0.1-0.2-0.1-0.2C22.7,34.3,22.7,34.4,22.8,34.5z"/>
<path class="st0" d="M23.2,35c0-0.1-0.1-0.1-0.1-0.2C23.1,34.9,23.1,35,23.2,35z"/>
<path class="st0" d="M25,36.9c-0.1-0.1-0.2-0.1-0.2-0.2C24.9,36.8,25,36.8,25,36.9z"/>
<path class="st0" d="M31.6,38.3c-0.2,0-0.3,0.1-0.5,0.1C31.2,38.4,31.4,38.4,31.6,38.3z"/>
<path class="st0" d="M27.4,38.1c-0.1,0-0.3-0.1-0.4-0.2C27.1,38,27.2,38,27.4,38.1z"/>
<path class="st0" d="M28.1,38.3c-0.2,0-0.3-0.1-0.4-0.1C27.8,38.2,28,38.3,28.1,38.3z"/>
<path class="st0" d="M26.6,37.8c-0.2-0.1-0.4-0.2-0.6-0.3C26.2,37.6,26.4,37.7,26.6,37.8z"/>
<path class="st0" d="M25.7,37.3c-0.1-0.1-0.2-0.1-0.3-0.2C25.5,37.2,25.6,37.2,25.7,37.3z"/>
<path class="st0" d="M28.9,38.4c-0.2,0-0.3,0-0.5-0.1C28.6,38.4,28.8,38.4,28.9,38.4z"/>
<path class="st0" d="M34,37.5c-0.2,0.1-0.4,0.2-0.6,0.3C33.6,37.7,33.8,37.6,34,37.5z"/>
<path class="st0" d="M33.1,37.9c-0.1,0.1-0.3,0.1-0.4,0.2C32.8,38,32.9,38,33.1,37.9z"/>
<path class="st0" d="M32.3,38.2c-0.1,0-0.3,0.1-0.4,0.1C32,38.3,32.2,38.2,32.3,38.2z"/>
<path class="st0" d="M22.1,33.2c0-0.1-0.1-0.2-0.1-0.4C22,33,22.1,33.1,22.1,33.2z"/>
<path class="st0" d="M22.4,33.9c0-0.1-0.1-0.2-0.1-0.3C22.3,33.7,22.4,33.8,22.4,33.9z"/>
<path class="st1" d="M38.4,28.8c0-0.1,0-0.2,0-0.3c-0.1-0.4-0.1-0.7-0.3-1.1c0-0.1-0.1-0.2-0.1-0.3c0-0.1-0.1-0.2-0.1-0.3
	c-0.1-0.1-0.1-0.3-0.2-0.4c0-0.1-0.1-0.2-0.1-0.3c-0.1-0.1-0.1-0.3-0.2-0.4c0-0.1-0.1-0.2-0.1-0.2c-0.1-0.1-0.2-0.3-0.3-0.4
	c0-0.1-0.1-0.1-0.1-0.2c-0.3-0.4-0.7-0.9-1.1-1.2c-0.1-0.1-0.1-0.1-0.2-0.2c-0.1-0.1-0.2-0.2-0.4-0.3c-0.1-0.1-0.1-0.1-0.2-0.2
	c-0.1-0.1-0.2-0.2-0.4-0.3c-0.1-0.1-0.2-0.1-0.3-0.2c-0.1-0.1-0.2-0.1-0.4-0.2c-0.2-0.1-0.4-0.2-0.6-0.3c-0.1,0-0.2-0.1-0.3-0.1
	c-0.1-0.1-0.3-0.1-0.4-0.2c-0.1,0-0.2-0.1-0.3-0.1c-0.1,0-0.3-0.1-0.4-0.1c-0.1,0-0.2,0-0.3-0.1c-0.2,0-0.3-0.1-0.5-0.1
	c-0.1,0-0.2,0-0.3,0c-0.3,0-0.5,0-0.8,0c-0.3,0-0.5,0-0.8,0c-0.1,0-0.2,0-0.3,0c-0.2,0-0.3,0-0.5,0.1c-0.1,0-0.2,0-0.3,0.1
	c-0.2,0-0.3,0.1-0.4,0.1c-0.1,0-0.2,0.1-0.3,0.1c-0.1,0-0.3,0.1-0.4,0.2c-0.1,0-0.2,0.1-0.3,0.1c-0.2,0.1-0.4,0.2-0.6,0.3
	c-0.1,0.1-0.2,0.1-0.4,0.2c-0.1,0.1-0.2,0.1-0.3,0.2c-0.1,0.1-0.2,0.2-0.4,0.2c-0.1,0.1-0.2,0.1-0.2,0.2c-0.1,0.1-0.2,0.2-0.4,0.3
	c-0.1,0.1-0.1,0.1-0.2,0.2c-0.1,0.1-0.2,0.2-0.4,0.3c0,0,0,0,0,0c-0.3,0.3-0.5,0.6-0.7,0.9c0,0.1-0.1,0.1-0.1,0.2
	c-0.1,0.1-0.2,0.3-0.3,0.4c-0.1,0.1-0.1,0.2-0.1,0.2c-0.1,0.1-0.1,0.3-0.2,0.4c0,0.1-0.1,0.2-0.1,0.3c-0.1,0.1-0.1,0.3-0.2,0.4
	c0,0.1-0.1,0.2-0.1,0.4c0,0.1-0.1,0.2-0.1,0.3c-0.1,0.4-0.2,0.7-0.3,1.1c0,0.1,0,0.2,0,0.3c-0.1,0.4-0.1,0.8-0.1,1.2
	c0,0.4,0,0.8,0.1,1.2c0,0.1,0,0.2,0,0.3c0.1,0.4,0.1,0.7,0.3,1.1c0,0.1,0.1,0.2,0.1,0.3c0,0.1,0.1,0.2,0.1,0.4
	c0.1,0.1,0.1,0.3,0.2,0.4c0,0.1,0.1,0.2,0.1,0.3c0.1,0.1,0.1,0.3,0.2,0.4c0,0.1,0.1,0.2,0.1,0.2c0.1,0.1,0.2,0.3,0.3,0.4
	c0,0.1,0.1,0.1,0.1,0.2c0.3,0.4,0.7,0.9,1.1,1.2c0.1,0.1,0.1,0.1,0.2,0.2c0.1,0.1,0.2,0.2,0.4,0.3c0.1,0.1,0.1,0.1,0.2,0.2
	c0.1,0.1,0.2,0.2,0.4,0.3c0.1,0.1,0.2,0.1,0.3,0.2c0.1,0.1,0.2,0.1,0.4,0.2c0.2,0.1,0.4,0.2,0.6,0.3c0.1,0,0.2,0.1,0.3,0.1
	c0.1,0.1,0.3,0.1,0.4,0.2c0.1,0,0.2,0.1,0.3,0.1c0.1,0,0.3,0.1,0.4,0.1c0.1,0,0.2,0,0.3,0.1c0.2,0,0.3,0.1,0.5,0.1
	c0.1,0,0.2,0,0.3,0c0.3,0,0.5,0,0.8,0s0.5,0,0.8,0c0.1,0,0.2,0,0.3,0c0.2,0,0.3,0,0.5-0.1c0.1,0,0.2,0,0.3-0.1
	c0.1,0,0.3-0.1,0.4-0.1c0.1,0,0.2-0.1,0.3-0.1c0.1,0,0.3-0.1,0.4-0.2c0.1,0,0.2-0.1,0.3-0.1c0.2-0.1,0.4-0.2,0.6-0.3
	c0.1-0.1,0.2-0.1,0.4-0.2c0.1-0.1,0.2-0.1,0.3-0.2c0.1-0.1,0.2-0.2,0.4-0.3c0.1-0.1,0.1-0.1,0.2-0.2c0.1-0.1,0.2-0.2,0.4-0.3
	c0.1-0.1,0.1-0.1,0.2-0.2c0.4-0.4,0.8-0.8,1.1-1.2c0-0.1,0.1-0.1,0.1-0.2c0.1-0.1,0.2-0.3,0.3-0.4c0-0.1,0.1-0.2,0.1-0.2
	c0.1-0.1,0.1-0.3,0.2-0.4c0-0.1,0.1-0.2,0.1-0.3c0.1-0.1,0.1-0.3,0.2-0.4c0-0.1,0.1-0.2,0.1-0.3c0-0.1,0.1-0.2,0.1-0.3
	c0.1-0.4,0.2-0.7,0.3-1.1c0-0.1,0-0.2,0-0.3c0.1-0.4,0.1-0.8,0.1-1.2C38.5,29.6,38.5,29.2,38.4,28.8z"/>
<path class="st3" d="M0,32.5h0.1C0,31.7,0,30.8,0,30V32.5z"/>
<path class="st3" d="M60,32.5V30c0,0.8,0,1.7-0.1,2.5H60z"/>
<path class="st3" d="M38.4,31.2c0,0.1,0,0.2,0,0.3c-0.1,0.5-0.2,1-0.4,1.4c0,0.1-0.1,0.2-0.1,0.3c-0.1,0.1-0.1,0.3-0.2,0.4
	c0,0.1-0.1,0.2-0.1,0.3c-0.1,0.1-0.1,0.3-0.2,0.4c0,0.1-0.1,0.2-0.1,0.2c-0.1,0.1-0.2,0.3-0.3,0.4c0,0.1-0.1,0.1-0.1,0.2
	c-0.3,0.4-0.7,0.9-1.1,1.2c-0.1,0.1-0.1,0.1-0.2,0.2c-0.1,0.1-0.2,0.2-0.4,0.3c-0.1,0.1-0.1,0.1-0.2,0.2c-0.1,0.1-0.2,0.2-0.4,0.3
	c-0.1,0.1-0.2,0.1-0.3,0.2c-0.1,0.1-0.2,0.1-0.4,0.2c-0.2,0.1-0.4,0.2-0.6,0.3c-0.1,0-0.2,0.1-0.3,0.1c-0.1,0.1-0.3,0.1-0.4,0.2
	c-0.1,0-0.2,0.1-0.3,0.1c-0.1,0-0.3,0.1-0.4,0.1c-0.1,0-0.2,0-0.3,0.1c-0.2,0-0.3,0.1-0.5,0.1c-0.1,0-0.2,0-0.3,0
	c-0.3,0-0.5,0-0.8,0s-0.5,0-0.8,0c-0.1,0-0.2,0-0.3,0c-0.2,0-0.3,0-0.5-0.1c-0.1,0-0.2,0-0.3-0.1c-0.2,0-0.3-0.1-0.4-0.1
	c-0.1,0-0.2-0.1-0.3-0.1c-0.1,0-0.3-0.1-0.4-0.2c-0.1,0-0.2-0.1-0.3-0.1c-0.2-0.1-0.4-0.2-0.6-0.3c-0.1-0.1-0.2-0.1-0.4-0.2
	c-0.1-0.1-0.2-0.1-0.3-0.2c-0.1-0.1-0.2-0.2-0.4-0.3c-0.1-0.1-0.2-0.1-0.2-0.2c-0.1-0.1-0.2-0.2-0.4-0.3c-0.1-0.1-0.1-0.1-0.2-0.2
	c-0.4-0.4-0.8-0.8-1.1-1.2c0-0.1-0.1-0.1-0.1-0.2c-0.1-0.1-0.2-0.3-0.3-0.4c0-0.1-0.1-0.2-0.1-0.2c-0.1-0.1-0.1-0.3-0.2-0.4
	c0-0.1-0.1-0.2-0.1-0.3c-0.1-0.1-0.1-0.3-0.2-0.4c0-0.1-0.1-0.2-0.1-0.4c-0.2-0.5-0.3-0.9-0.4-1.4c0-0.1,0-0.2,0-0.3
	c-0.1-0.4-0.1-0.8-0.1-1.2H0c0,0.8,0,1.7,0.1,2.5h16.6c1.2,6.3,6.7,11,13.3,11c6.6,0,12.1-4.7,13.3-11h16.6C60,31.7,60,30.8,60,30
	H38.5C38.5,30.4,38.5,30.8,38.4,31.2z"/>
<path class="st3" d="M0,27.5V30c0-0.8,0-1.7,0.1-2.5H0z"/>
<path class="st3" d="M60,30v-2.5h-0.1C60,28.3,60,29.2,60,30z"/>
<path class="st3" d="M43.3,27.5c-1.2-6.3-6.7-11-13.3-11c-6.6,0-12.1,4.7-13.3,11H0.1C0,28.3,0,29.2,0,30h21.5c0-0.4,0-0.8,0.1-1.2
	c0-0.1,0-0.2,0-0.3c0.1-0.5,0.2-1,0.4-1.4c0-0.1,0.1-0.2,0.1-0.4c0.1-0.1,0.1-0.3,0.2-0.4c0-0.1,0.1-0.2,0.1-0.3
	c0.1-0.1,0.1-0.3,0.2-0.4c0-0.1,0.1-0.2,0.1-0.2c0.1-0.1,0.2-0.3,0.3-0.4c0-0.1,0.1-0.1,0.1-0.2c0.2-0.3,0.5-0.6,0.7-0.9
	c0,0,0,0,0,0c0.1-0.1,0.2-0.2,0.4-0.3c0.1-0.1,0.1-0.1,0.2-0.2c0.1-0.1,0.2-0.2,0.4-0.3c0.1-0.1,0.2-0.1,0.2-0.2
	c0.1-0.1,0.2-0.2,0.4-0.2c0.1-0.1,0.2-0.1,0.3-0.2c0.1-0.1,0.2-0.1,0.4-0.2c0.2-0.1,0.4-0.2,0.6-0.3c0.1,0,0.2-0.1,0.3-0.1
	c0.1-0.1,0.3-0.1,0.4-0.2c0.1,0,0.2-0.1,0.3-0.1c0.1,0,0.3-0.1,0.4-0.1c0.1,0,0.2,0,0.3-0.1c0.2,0,0.3-0.1,0.5-0.1
	c0.1,0,0.2,0,0.3,0c0.3,0,0.5,0,0.8,0s0.5,0,0.8,0c0.1,0,0.2,0,0.3,0c0.2,0,0.3,0,0.5,0.1c0.1,0,0.2,0,0.3,0.1
	c0.2,0,0.3,0.1,0.4,0.1c0.1,0,0.2,0.1,0.3,0.1c0.1,0,0.3,0.1,0.4,0.2c0.1,0,0.2,0.1,0.3,0.1c0.2,0.1,0.4,0.2,0.6,0.3
	c0.1,0.1,0.2,0.1,0.4,0.2c0.1,0.1,0.2,0.1,0.3,0.2c0.1,0.1,0.2,0.2,0.4,0.3c0.1,0.1,0.2,0.1,0.2,0.2c0.1,0.1,0.2,0.2,0.4,0.3
	c0.1,0.1,0.1,0.1,0.2,0.2c0.4,0.4,0.8,0.8,1.1,1.2c0,0.1,0.1,0.1,0.1,0.2c0.1,0.1,0.2,0.3,0.3,0.4c0,0.1,0.1,0.2,0.1,0.2
	c0.1,0.1,0.1,0.3,0.2,0.4c0,0.1,0.1,0.2,0.1,0.3c0.1,0.1,0.1,0.3,0.2,0.4c0,0.1,0.1,0.2,0.1,0.3c0.2,0.5,0.3,0.9,0.4,1.4
	c0,0.1,0,0.2,0,0.3c0.1,0.4,0.1,0.8,0.1,1.2H60c0-0.8,0-1.7-0.1-2.5H43.3z"/>
<path class="st3" d="M22.3,33.6c-0.1-0.1-0.1-0.3-0.2-0.4C22.2,33.3,22.2,33.4,22.3,33.6z"/>
<path class="st3" d="M35.7,36.3c0.4-0.4,0.8-0.8,1.1-1.2C36.5,35.5,36.1,35.9,35.7,36.3z"/>
<path class="st3" d="M38.5,30c0,0.4,0,0.8-0.1,1.2C38.5,30.8,38.5,30.4,38.5,30z"/>
<path class="st3" d="M38,32.8c0.2-0.5,0.3-0.9,0.4-1.4c-0.1,0.4-0.1,0.7-0.3,1.1C38.1,32.6,38,32.7,38,32.8z"/>
<path class="st3" d="M23,34.9c-0.1-0.1-0.2-0.3-0.3-0.4C22.9,34.6,23,34.7,23,34.9z"/>
<path class="st3" d="M24.8,36.7c-0.1-0.1-0.2-0.2-0.4-0.3C24.6,36.5,24.7,36.6,24.8,36.7z"/>
<path class="st3" d="M37.2,34.5c-0.1,0.1-0.2,0.3-0.3,0.4C37,34.7,37.1,34.6,37.2,34.5z"/>
<path class="st3" d="M31.1,38.4c-0.1,0-0.2,0-0.3,0C30.9,38.5,31,38.4,31.1,38.4z"/>
<path class="st3" d="M37.9,33.2c-0.1,0.1-0.1,0.3-0.2,0.4C37.8,33.4,37.8,33.3,37.9,33.2z"/>
<path class="st3" d="M31.9,38.3c-0.1,0-0.2,0-0.3,0.1C31.7,38.3,31.8,38.3,31.9,38.3z"/>
<path class="st3" d="M21.6,31.4c0.1,0.5,0.2,1,0.4,1.4c0-0.1-0.1-0.2-0.1-0.3C21.8,32.1,21.7,31.8,21.6,31.4z"/>
<path class="st3" d="M22.6,34.2c-0.1-0.1-0.1-0.3-0.2-0.4C22.5,34,22.6,34.1,22.6,34.2z"/>
<path class="st3" d="M37.6,33.9c-0.1,0.1-0.1,0.3-0.2,0.4C37.4,34.1,37.5,34,37.6,33.9z"/>
<path class="st3" d="M23.2,35c0.3,0.4,0.7,0.9,1.1,1.2C23.9,35.9,23.5,35.5,23.2,35z"/>
<path class="st3" d="M25.4,37.1c-0.1-0.1-0.2-0.2-0.4-0.3C25.1,37,25.3,37.1,25.4,37.1z"/>
<path class="st3" d="M33.4,37.8c-0.1,0-0.2,0.1-0.3,0.1C33.2,37.9,33.3,37.9,33.4,37.8z"/>
<path class="st3" d="M35.6,36.4c-0.1,0.1-0.2,0.2-0.4,0.3C35.3,36.6,35.4,36.5,35.6,36.4z"/>
<path class="st3" d="M26.9,37.9c-0.1,0-0.2-0.1-0.3-0.1C26.7,37.8,26.8,37.9,26.9,37.9z"/>
<path class="st3" d="M34.3,37.3c-0.1,0.1-0.2,0.1-0.4,0.2C34.1,37.4,34.2,37.4,34.3,37.3z"/>
<path class="st3" d="M35,36.9c-0.1,0.1-0.2,0.2-0.4,0.3C34.7,37.1,34.9,37,35,36.9z"/>
<path class="st3" d="M28.4,38.3c-0.1,0-0.2,0-0.3-0.1C28.2,38.3,28.3,38.3,28.4,38.3z"/>
<path class="st3" d="M27.7,38.2c-0.1,0-0.2-0.1-0.3-0.1C27.5,38.1,27.6,38.1,27.7,38.2z"/>
<path class="st3" d="M26,37.5c-0.1-0.1-0.2-0.1-0.4-0.2C25.8,37.4,25.9,37.4,26,37.5z"/>
<path class="st3" d="M29.2,38.5c-0.1,0-0.2,0-0.3,0C29,38.4,29.1,38.5,29.2,38.5z"/>
<path class="st3" d="M32.6,38.1c-0.1,0-0.2,0.1-0.3,0.1C32.4,38.1,32.5,38.1,32.6,38.1z"/>
<path class="st3" d="M21.5,30c0,0.4,0,0.8,0.1,1.2C21.5,30.8,21.5,30.4,21.5,30z"/>
<path class="st3" d="M22.4,26.1c0.1-0.1,0.1-0.3,0.2-0.4C22.6,25.9,22.5,26,22.4,26.1z"/>
<path class="st3" d="M24.4,23.6c0.1-0.1,0.2-0.2,0.4-0.3C24.7,23.4,24.6,23.5,24.4,23.6z"/>
<path class="st3" d="M22.8,25.5c0.1-0.1,0.2-0.3,0.3-0.4C23,25.3,22.9,25.4,22.8,25.5z"/>
<path class="st3" d="M21.5,30c0-0.4,0-0.8,0.1-1.2C21.5,29.2,21.5,29.6,21.5,30z"/>
<path class="st3" d="M23.2,25c0.2-0.3,0.5-0.6,0.7-0.9C23.6,24.4,23.4,24.7,23.2,25z"/>
<path class="st3" d="M22.1,26.8c0.1-0.1,0.1-0.3,0.2-0.4C22.2,26.6,22.2,26.7,22.1,26.8z"/>
<path class="st3" d="M23.9,24.1c0.1-0.1,0.2-0.2,0.4-0.3C24.1,23.9,24,24,23.9,24.1z"/>
<path class="st3" d="M38.4,28.8c0.1,0.4,0.1,0.8,0.1,1.2C38.5,29.6,38.5,29.2,38.4,28.8z"/>
<path class="st3" d="M36.8,25c-0.3-0.4-0.7-0.9-1.1-1.2C36.1,24.1,36.5,24.5,36.8,25z"/>
<path class="st3" d="M34.6,22.9c0.1,0.1,0.2,0.2,0.4,0.3C34.9,23,34.7,22.9,34.6,22.9z"/>
<path class="st3" d="M33.1,22.1c0.1,0,0.2,0.1,0.3,0.1C33.3,22.1,33.2,22.1,33.1,22.1z"/>
<path class="st3" d="M35.2,23.3c0.1,0.1,0.2,0.2,0.4,0.3C35.4,23.5,35.3,23.4,35.2,23.3z"/>
<path class="st3" d="M34,22.5c0.1,0.1,0.2,0.1,0.4,0.2C34.2,22.6,34.1,22.6,34,22.5z"/>
<path class="st3" d="M37.7,26.4c0.1,0.1,0.1,0.3,0.2,0.4C37.8,26.7,37.8,26.6,37.7,26.4z"/>
<path class="st3" d="M37.4,25.8c0.1,0.1,0.1,0.3,0.2,0.4C37.5,26,37.4,25.9,37.4,25.8z"/>
<path class="st3" d="M37,25.1c0.1,0.1,0.2,0.3,0.3,0.4C37.1,25.4,37,25.3,37,25.1z"/>
<path class="st3" d="M38.4,28.6c-0.1-0.5-0.2-1-0.4-1.4c0,0.1,0.1,0.2,0.1,0.3C38.2,27.9,38.3,28.2,38.4,28.6z"/>
<path class="st3" d="M27.4,21.9c0.1,0,0.2-0.1,0.3-0.1C27.6,21.9,27.5,21.9,27.4,21.9z"/>
<path class="st3" d="M26.6,22.2c0.1,0,0.2-0.1,0.3-0.1C26.8,22.1,26.7,22.2,26.6,22.2z"/>
<path class="st3" d="M25,23.1c0.1-0.1,0.2-0.2,0.4-0.2C25.3,22.9,25.2,23,25,23.1z"/>
<path class="st3" d="M28.1,21.7c0.1,0,0.2,0,0.3-0.1C28.3,21.7,28.2,21.7,28.1,21.7z"/>
<path class="st3" d="M25.7,22.7c0.1-0.1,0.2-0.1,0.4-0.2C25.9,22.6,25.8,22.6,25.7,22.7z"/>
<path class="st3" d="M28.9,21.6c0.1,0,0.2,0,0.3,0C29.1,21.5,29,21.6,28.9,21.6z"/>
<path class="st3" d="M32.3,21.8c0.1,0,0.2,0.1,0.3,0.1C32.5,21.9,32.4,21.9,32.3,21.8z"/>
<path class="st3" d="M31.6,21.7c0.1,0,0.2,0,0.3,0.1C31.8,21.7,31.7,21.7,31.6,21.7z"/>
<path class="st3" d="M22,27.2c-0.2,0.5-0.3,0.9-0.4,1.4c0.1-0.4,0.1-0.7,0.3-1.1C21.9,27.4,22,27.3,22,27.2z"/>
<path class="st3" d="M30.8,21.5c0.1,0,0.2,0,0.3,0C31,21.6,30.9,21.5,30.8,21.5z"/>
</svg>
