<!-- Generator: Adobe Illustrator 25.2.3, SVG Export Plug-In . SVG Version: 6.00 Build 0)  -->
<svg version="1.1" id="圖層_1" xmlns="http://www.w3.org/2000/svg" xmlns:xlink="http://www.w3.org/1999/xlink" x="0px" y="0px"
	 viewBox="0 0 24 24" style="enable-background:new 0 0 24 24;" xml:space="preserve">
<path class="st0" d="M23.9,2.4c0-0.1-0.1-0.2-0.1-0.3c0-0.1-0.1-0.2-0.1-0.3c0-0.1-0.1-0.2-0.2-0.3c0-0.1-0.1-0.1-0.1-0.2
	C23.3,1,23,0.7,22.7,0.5c-0.1,0-0.1-0.1-0.2-0.1c-0.1-0.1-0.2-0.1-0.3-0.2c-0.1,0-0.2-0.1-0.3-0.1c-0.1,0-0.2-0.1-0.3-0.1
	C21.4,0,21.2,0,21,0H3C1.3,0,0,1.3,0,3s1.3,3,3,3h10.8L0.9,18.9c-1.2,1.2-1.2,3.1,0,4.2C1.5,23.7,2.2,24,3,24s1.5-0.3,2.1-0.9
	L18,10.2V21c0,1.7,1.3,3,3,3s3-1.3,3-3V3C24,2.8,24,2.6,23.9,2.4z"/>
</svg>
