<svg width="50" height="50" viewBox="0 0 50 50" fill="none" xmlns="http://www.w3.org/2000/svg">
<rect width="50" height="50" rx="25" fill="#3F3A3A"/>
<line x1="13" y1="16" x2="37" y2="16" stroke="white" stroke-width="4" stroke-linecap="round"/>
<line x1="13" y1="23" x2="37" y2="23" stroke="white" stroke-width="4" stroke-linecap="round"/>
<path d="M12.1905 37.09C11.9505 37.09 11.7772 37.0533 11.6705 36.98C11.5705 36.9067 11.5072 36.8133 11.4805 36.7C11.4538 36.58 11.4405 36.4533 11.4405 36.32V30.85C11.4405 30.7233 11.4538 30.6067 11.4805 30.5C11.5072 30.3867 11.5738 30.2933 11.6805 30.22C11.7872 30.1467 11.9638 30.11 12.2105 30.11C12.3772 30.11 12.5038 30.12 12.5905 30.14C12.6772 30.16 12.7405 30.19 12.7805 30.23C12.8205 30.2633 12.8638 30.3033 12.9105 30.35L15.1605 33.39H15.0105L17.2705 30.35C17.3238 30.2833 17.3772 30.2333 17.4305 30.2C17.4838 30.1667 17.5505 30.1433 17.6305 30.13C17.7172 30.1167 17.8372 30.11 17.9905 30.11C18.2305 30.11 18.4038 30.1467 18.5105 30.22C18.6172 30.2933 18.6838 30.39 18.7105 30.51C18.7372 30.6233 18.7505 30.7433 18.7505 30.87V36.34C18.7505 36.4667 18.7372 36.5867 18.7105 36.7C18.6838 36.8133 18.6172 36.9067 18.5105 36.98C18.4038 37.0533 18.2272 37.09 17.9805 37.09C17.7405 37.09 17.5672 37.0533 17.4605 36.98C17.3538 36.9067 17.2872 36.81 17.2605 36.69C17.2338 36.57 17.2205 36.4467 17.2205 36.32V32.75L15.7305 34.86C15.7038 34.8933 15.6672 34.94 15.6205 35C15.5738 35.0533 15.5072 35.1 15.4205 35.14C15.3405 35.18 15.2305 35.2 15.0905 35.2C14.9438 35.2 14.8272 35.18 14.7405 35.14C14.6605 35.1 14.5972 35.0533 14.5505 35C14.5038 34.9467 14.4638 34.9 14.4305 34.86L12.9505 32.76V36.34C12.9505 36.4667 12.9372 36.5867 12.9105 36.7C12.8838 36.8133 12.8172 36.9067 12.7105 36.98C12.6105 37.0533 12.4372 37.09 12.1905 37.09ZM20.425 37.09C20.185 37.09 20.0117 37.0567 19.905 36.99C19.7984 36.9167 19.7317 36.82 19.705 36.7C19.685 36.58 19.675 36.4567 19.675 36.33V30.86C19.675 30.5667 19.7317 30.3667 19.845 30.26C19.9584 30.1533 20.1617 30.1 20.455 30.1H24.235C24.3684 30.1 24.4917 30.1133 24.605 30.14C24.7184 30.16 24.8117 30.2233 24.885 30.33C24.9584 30.4367 24.995 30.6167 24.995 30.87C24.995 31.11 24.9584 31.2833 24.885 31.39C24.8117 31.4967 24.715 31.5633 24.595 31.59C24.4817 31.61 24.3584 31.62 24.225 31.62H21.195V32.91H23.255C23.3884 32.91 23.505 32.92 23.605 32.94C23.7117 32.96 23.795 33.0167 23.855 33.11C23.915 33.2033 23.945 33.36 23.945 33.58C23.945 33.7867 23.915 33.9367 23.855 34.03C23.795 34.1233 23.7117 34.18 23.605 34.2C23.4984 34.22 23.375 34.23 23.235 34.23H21.195V35.57H24.235C24.3684 35.57 24.4917 35.5833 24.605 35.61C24.7184 35.6367 24.8117 35.7033 24.885 35.81C24.9584 35.91 24.995 36.0867 24.995 36.34C24.995 36.58 24.9584 36.7533 24.885 36.86C24.8117 36.9667 24.715 37.03 24.595 37.05C24.4817 37.0767 24.3584 37.09 24.225 37.09H20.425ZM26.4186 37.09C26.1852 37.09 26.0152 37.0533 25.9086 36.98C25.8019 36.9067 25.7352 36.8133 25.7086 36.7C25.6819 36.58 25.6686 36.4533 25.6686 36.32V30.83C25.6686 30.7033 25.6819 30.5867 25.7086 30.48C25.7352 30.3733 25.8019 30.2867 25.9086 30.22C26.0219 30.1467 26.2019 30.11 26.4486 30.11C26.6886 30.11 26.8552 30.14 26.9486 30.2C27.0419 30.2533 27.1252 30.33 27.1986 30.43L30.1186 34.44V30.83C30.1186 30.7033 30.1319 30.5867 30.1586 30.48C30.1919 30.3733 30.2619 30.2867 30.3686 30.22C30.4752 30.1467 30.6486 30.11 30.8886 30.11C31.1352 30.11 31.3086 30.1467 31.4086 30.22C31.5152 30.2933 31.5786 30.39 31.5986 30.51C31.6252 30.6233 31.6386 30.7433 31.6386 30.87V36.33C31.6386 36.4567 31.6252 36.58 31.5986 36.7C31.5719 36.8133 31.5052 36.9067 31.3986 36.98C31.2919 37.0533 31.1152 37.09 30.8686 37.09C30.6819 37.09 30.5352 37.0733 30.4286 37.04C30.3286 37.0067 30.2419 36.9433 30.1686 36.85L27.1886 32.81V36.33C27.1886 36.4567 27.1752 36.58 27.1486 36.7C27.1219 36.8133 27.0552 36.9067 26.9486 36.98C26.8419 37.0533 26.6652 37.09 26.4186 37.09ZM35.5147 37.18C35.0281 37.18 34.5981 37.0867 34.2247 36.9C33.8581 36.7067 33.5447 36.4533 33.2847 36.14C33.0314 35.82 32.8414 35.4633 32.7147 35.07C32.5881 34.67 32.5247 34.2633 32.5247 33.85V30.86C32.5247 30.7267 32.5347 30.6033 32.5547 30.49C32.5814 30.37 32.6481 30.2733 32.7547 30.2C32.8614 30.1267 33.0381 30.09 33.2847 30.09C33.5381 30.09 33.7181 30.1267 33.8247 30.2C33.9314 30.2733 33.9947 30.37 34.0147 30.49C34.0414 30.6033 34.0547 30.73 34.0547 30.87V33.85C34.0547 34.1433 34.1014 34.4267 34.1947 34.7C34.2947 34.9733 34.4547 35.2 34.6747 35.38C34.8947 35.56 35.1847 35.65 35.5447 35.65C35.8514 35.65 36.1147 35.5767 36.3347 35.43C36.5547 35.2767 36.7247 35.0667 36.8447 34.8C36.9647 34.5267 37.0247 34.2067 37.0247 33.84V30.8C37.0247 30.68 37.0381 30.5667 37.0647 30.46C37.0914 30.3533 37.1581 30.2667 37.2647 30.2C37.3714 30.1267 37.5481 30.09 37.7947 30.09C38.0414 30.09 38.2147 30.13 38.3147 30.21C38.4214 30.2833 38.4847 30.3767 38.5047 30.49C38.5314 30.6033 38.5447 30.73 38.5447 30.87V33.87C38.5447 34.29 38.4781 34.6967 38.3447 35.09C38.2181 35.4833 38.0247 35.8367 37.7647 36.15C37.5114 36.4633 37.1947 36.7133 36.8147 36.9C36.4414 37.0867 36.0081 37.18 35.5147 37.18Z" fill="white"/>
</svg>
