<svg width="287" height="28" viewBox="0 0 287 28" fill="none" xmlns="http://www.w3.org/2000/svg">
<mask id="path-1-outside-1_6118_3114" maskUnits="userSpaceOnUse" x="0" y="0" width="37" height="28" fill="black">
<rect fill="white" width="37" height="28"/>
<path fill-rule="evenodd" clip-rule="evenodd" d="M12.8524 10.3295C11.0158 7.21233 7.30437 2.35056 3.13374 1.23343C2.49959 1.05728 1.18903 0.810666 1.01992 1.23343C0.80854 1.76188 2.28821 6.41227 5.03617 8.84316C6.19678 9.92639 8.30899 11.8026 9.65607 12.7303C8.33331 14.2135 7.55282 16.0404 7.55282 18.0163C7.55282 22.9779 12.474 27 18.5447 27C24.6153 27 29.5365 22.9779 29.5365 18.0163C29.5365 16.0139 28.7349 14.1645 27.3797 12.6707C28.7207 11.6868 30.5858 10.0261 31.6503 9.03249C34.3983 6.6016 35.878 1.95122 35.6666 1.42276C35.4975 0.999997 34.1869 1.24661 33.5528 1.42276C29.5127 2.50491 25.9036 7.10084 24.0121 10.221C22.4018 9.46496 20.535 9.03259 18.5447 9.03259C16.461 9.03259 14.5127 9.50646 12.8524 10.3295Z"/>
</mask>
<path fill-rule="evenodd" clip-rule="evenodd" d="M12.8524 10.3295C11.0158 7.21233 7.30437 2.35056 3.13374 1.23343C2.49959 1.05728 1.18903 0.810666 1.01992 1.23343C0.80854 1.76188 2.28821 6.41227 5.03617 8.84316C6.19678 9.92639 8.30899 11.8026 9.65607 12.7303C8.33331 14.2135 7.55282 16.0404 7.55282 18.0163C7.55282 22.9779 12.474 27 18.5447 27C24.6153 27 29.5365 22.9779 29.5365 18.0163C29.5365 16.0139 28.7349 14.1645 27.3797 12.6707C28.7207 11.6868 30.5858 10.0261 31.6503 9.03249C34.3983 6.6016 35.878 1.95122 35.6666 1.42276C35.4975 0.999997 34.1869 1.24661 33.5528 1.42276C29.5127 2.50491 25.9036 7.10084 24.0121 10.221C22.4018 9.46496 20.535 9.03259 18.5447 9.03259C16.461 9.03259 14.5127 9.50646 12.8524 10.3295Z" fill="white"/>
<path d="M3.13374 1.23343L2.86608 2.19699L2.875 2.19938L3.13374 1.23343ZM12.8524 10.3295L11.9908 10.8371L12.4631 11.6387L13.2966 11.2255L12.8524 10.3295ZM1.01992 1.23343L0.0914449 0.862039L1.01992 1.23343ZM5.03617 8.84316L5.71849 8.11211L5.70874 8.103L5.69875 8.09416L5.03617 8.84316ZM9.65607 12.7303L10.4024 13.3958L11.157 12.5497L10.2232 11.9066L9.65607 12.7303ZM27.3797 12.6707L26.7881 11.8645L25.8935 12.5209L26.6391 13.3426L27.3797 12.6707ZM31.6503 9.03249L30.9878 8.28349L30.9778 8.29233L30.968 8.30144L31.6503 9.03249ZM35.6666 1.42276L36.5951 1.05137L36.5951 1.05137L35.6666 1.42276ZM33.5528 1.42276L33.8115 2.38875L33.8204 2.38628L33.5528 1.42276ZM24.0121 10.221L23.5871 11.1262L24.4011 11.5084L24.8673 10.7394L24.0121 10.221ZM2.875 2.19938C4.70397 2.68928 6.52123 4.03438 8.14774 5.72481C9.75978 7.4002 11.1016 9.32796 11.9908 10.8371L13.714 9.82189C12.7666 8.21389 11.3344 6.15218 9.58893 4.3381C7.85791 2.53906 5.73414 0.894712 3.39248 0.267482L2.875 2.19938ZM1.9484 1.60482C1.87497 1.78839 1.75069 1.89806 1.66427 1.95221C1.6233 1.97788 1.59006 1.99194 1.57116 1.99895C1.56129 2.00261 1.55381 2.00491 1.54918 2.00622C1.54682 2.0069 1.54504 2.00736 1.54388 2.00764C1.54272 2.00793 1.54211 2.00806 1.54209 2.00807C1.54206 2.00807 1.54255 2.00797 1.54357 2.00778C1.5446 2.00759 1.5461 2.00733 1.54811 2.00701C1.55217 2.00637 1.55792 2.00558 1.56549 2.00476C1.58086 2.00309 1.60156 2.00153 1.62803 2.00068C1.68182 1.99895 1.74953 2.00041 1.83061 2.00625C2.16992 2.03069 2.58681 2.11937 2.8661 2.19695L3.40138 0.269912C3.04653 0.171341 2.49106 0.0486371 1.97427 0.0114196C1.72296 -0.00667883 1.41455 -0.0100651 1.12265 0.0525428C0.87565 0.105522 0.325808 0.276131 0.0914449 0.862039L1.9484 1.60482ZM5.69875 8.09416C4.47481 7.01145 3.4893 5.38479 2.8308 3.91583C2.5053 3.1897 2.2724 2.53041 2.13554 2.0365C2.06655 1.78754 2.0269 1.5983 2.0094 1.47352C2.00522 1.44374 2.00275 1.42072 2.00138 1.40392C1.99997 1.3867 2 1.37955 2 1.38089C2 1.38106 2.00009 1.399 1.99592 1.42966C1.99222 1.45687 1.98157 1.52189 1.9484 1.60482L0.0914449 0.862039C0.0071451 1.07279 0.000170377 1.2741 2.54257e-06 1.37765C-0.000202128 1.50392 0.0120573 1.63205 0.028791 1.75134C0.0624823 1.99153 0.125227 2.27129 0.208168 2.57059C0.375163 3.17323 0.644298 3.92755 1.00578 4.73394C1.72127 6.33001 2.84957 8.24398 4.3736 9.59216L5.69875 8.09416ZM10.2232 11.9066C8.94378 11.0256 6.87973 9.19592 5.71849 8.11211L4.35386 9.57422C5.51383 10.6569 7.67421 12.5797 9.08892 13.5539L10.2232 11.9066ZM8.55282 18.0163C8.55282 16.3151 9.2225 14.7189 10.4024 13.3958L8.90975 12.0647C7.44413 13.7081 6.55282 15.7657 6.55282 18.0163H8.55282ZM18.5447 26C12.8283 26 8.55282 22.2465 8.55282 18.0163H6.55282C6.55282 23.7093 12.1198 28 18.5447 28V26ZM28.5365 18.0163C28.5365 22.2465 24.2611 26 18.5447 26V28C24.9695 28 30.5365 23.7093 30.5365 18.0163H28.5365ZM26.6391 13.3426C27.8488 14.676 28.5365 16.2924 28.5365 18.0163H30.5365C30.5365 15.7353 29.621 13.6529 28.1203 11.9988L26.6391 13.3426ZM30.968 8.30144C29.9089 9.28995 28.0792 10.9171 26.7881 11.8645L27.9713 13.477C29.3621 12.4564 31.2627 10.7622 32.3326 9.76355L30.968 8.30144ZM34.7381 1.79415C34.7049 1.71122 34.6943 1.6462 34.6906 1.61899C34.6864 1.58833 34.6865 1.57039 34.6865 1.57022C34.6865 1.56888 34.6865 1.57603 34.6851 1.59325C34.6838 1.61005 34.6813 1.63307 34.6771 1.66285C34.6596 1.78763 34.62 1.97687 34.551 2.22583C34.4141 2.71974 34.1812 3.37903 33.8557 4.10516C33.1972 5.57412 32.2117 7.20078 30.9878 8.28349L32.3129 9.78149C33.8369 8.43331 34.9652 6.51934 35.6807 4.92327C36.0422 4.11688 36.3113 3.36256 36.4783 2.75992C36.5613 2.46062 36.624 2.18086 36.6577 1.94067C36.6744 1.82138 36.6867 1.69325 36.6865 1.56698C36.6863 1.46344 36.6794 1.26212 36.5951 1.05137L34.7381 1.79415ZM33.8204 2.38628C34.0997 2.3087 34.5166 2.22002 34.8559 2.19558C34.937 2.18975 35.0047 2.18828 35.0585 2.19001C35.0849 2.19086 35.1056 2.19242 35.121 2.19409C35.1286 2.19491 35.1343 2.19571 35.1384 2.19634C35.1404 2.19666 35.1419 2.19692 35.1429 2.19711C35.144 2.1973 35.1444 2.1974 35.1444 2.1974C35.1444 2.19739 35.1438 2.19726 35.1426 2.19697C35.1415 2.19669 35.1397 2.19623 35.1373 2.19556C35.1327 2.19424 35.1252 2.19194 35.1153 2.18828C35.0964 2.18127 35.0632 2.16722 35.0222 2.14154C34.9358 2.08739 34.8115 1.97772 34.7381 1.79415L36.5951 1.05137C36.3607 0.465462 35.8109 0.294853 35.5639 0.241874C35.272 0.179266 34.9635 0.182652 34.7122 0.200751C34.1954 0.237968 33.64 0.360672 33.2851 0.459242L33.8204 2.38628ZM24.8673 10.7394C25.7843 9.22668 27.114 7.36378 28.6903 5.7582C30.2799 4.13904 32.0411 2.86293 33.8115 2.38871L33.294 0.456813C31.0244 1.06474 28.961 2.62766 27.2631 4.35706C25.552 6.10004 24.1314 8.0952 23.157 9.70265L24.8673 10.7394ZM18.5447 10.0326C20.3908 10.0326 22.1122 10.4337 23.5871 11.1262L24.4371 9.31585C22.6914 8.49618 20.6792 8.03259 18.5447 8.03259V10.0326ZM13.2966 11.2255C14.8159 10.4723 16.6118 10.0326 18.5447 10.0326V8.03259C16.3102 8.03259 14.2095 8.54063 12.4083 9.43357L13.2966 11.2255Z" fill="white" mask="url(#path-1-outside-1_6118_3114)"/>
<mask id="path-3-outside-2_6118_3114" maskUnits="userSpaceOnUse" x="41.6865" y="0" width="37" height="28" fill="black">
<rect fill="white" x="41.6865" width="37" height="28"/>
<path fill-rule="evenodd" clip-rule="evenodd" d="M54.5389 10.3295C52.7023 7.21233 48.9909 2.35056 44.8203 1.23343C44.1861 1.05728 42.8756 0.810666 42.7064 1.23343C42.4951 1.76188 43.9747 6.41227 46.7227 8.84316C47.8833 9.92639 49.9955 11.8026 51.3426 12.7303C50.0198 14.2135 49.2393 16.0404 49.2393 18.0163C49.2393 22.9779 54.1606 27 60.2312 27C66.3018 27 71.223 22.9779 71.223 18.0163C71.223 16.0139 70.4215 14.1645 69.0662 12.6707C70.4072 11.6868 72.2723 10.0261 73.3369 9.03249C76.0848 6.6016 77.5645 1.95122 77.3531 1.42276C77.184 0.999997 75.8734 1.24661 75.2393 1.42276C71.1993 2.50491 67.5901 7.10084 65.6986 10.221C64.0883 9.46496 62.2215 9.03259 60.2312 9.03259C58.1475 9.03259 56.1993 9.50646 54.5389 10.3295Z"/>
</mask>
<path fill-rule="evenodd" clip-rule="evenodd" d="M54.5389 10.3295C52.7023 7.21233 48.9909 2.35056 44.8203 1.23343C44.1861 1.05728 42.8756 0.810666 42.7064 1.23343C42.4951 1.76188 43.9747 6.41227 46.7227 8.84316C47.8833 9.92639 49.9955 11.8026 51.3426 12.7303C50.0198 14.2135 49.2393 16.0404 49.2393 18.0163C49.2393 22.9779 54.1606 27 60.2312 27C66.3018 27 71.223 22.9779 71.223 18.0163C71.223 16.0139 70.4215 14.1645 69.0662 12.6707C70.4072 11.6868 72.2723 10.0261 73.3369 9.03249C76.0848 6.6016 77.5645 1.95122 77.3531 1.42276C77.184 0.999997 75.8734 1.24661 75.2393 1.42276C71.1993 2.50491 67.5901 7.10084 65.6986 10.221C64.0883 9.46496 62.2215 9.03259 60.2312 9.03259C58.1475 9.03259 56.1993 9.50646 54.5389 10.3295Z" fill="white"/>
<path d="M44.8203 1.23343L44.5526 2.19699L44.5615 2.19938L44.8203 1.23343ZM54.5389 10.3295L53.6774 10.8371L54.1496 11.6387L54.9831 11.2255L54.5389 10.3295ZM42.7064 1.23343L41.778 0.862039L42.7064 1.23343ZM46.7227 8.84316L47.405 8.11211L47.3953 8.103L47.3853 8.09416L46.7227 8.84316ZM51.3426 12.7303L52.0889 13.3958L52.8435 12.5497L51.9097 11.9066L51.3426 12.7303ZM69.0662 12.6707L68.4746 11.8645L67.5801 12.5209L68.3256 13.3426L69.0662 12.6707ZM73.3369 9.03249L72.6743 8.28349L72.6643 8.29233L72.6545 8.30144L73.3369 9.03249ZM77.3531 1.42276L78.2816 1.05137L78.2816 1.05137L77.3531 1.42276ZM75.2393 1.42276L75.498 2.38875L75.5069 2.38628L75.2393 1.42276ZM65.6986 10.221L65.2736 11.1262L66.0876 11.5084L66.5538 10.7394L65.6986 10.221ZM44.5615 2.19938C46.3905 2.68928 48.2078 4.03438 49.8343 5.72481C51.4463 7.4002 52.7882 9.32796 53.6774 10.8371L55.4005 9.82189C54.4531 8.21389 53.0209 6.15218 51.2755 4.3381C49.5444 2.53906 47.4207 0.894712 45.079 0.267482L44.5615 2.19938ZM43.6349 1.60482C43.5615 1.78839 43.4372 1.89806 43.3508 1.95221C43.3098 1.97788 43.2766 1.99194 43.2577 1.99895C43.2478 2.00261 43.2403 2.00491 43.2357 2.00622C43.2333 2.0069 43.2316 2.00736 43.2304 2.00764C43.2292 2.00793 43.2286 2.00806 43.2286 2.00807C43.2286 2.00807 43.2291 2.00797 43.2301 2.00778C43.2311 2.00759 43.2326 2.00733 43.2346 2.00701C43.2387 2.00637 43.2444 2.00558 43.252 2.00476C43.2674 2.00309 43.2881 2.00153 43.3145 2.00068C43.3683 1.99895 43.4361 2.00041 43.5171 2.00625C43.8564 2.03069 44.2733 2.11937 44.5526 2.19695L45.0879 0.269912C44.7331 0.171341 44.1776 0.0486371 43.6608 0.0114196C43.4095 -0.00667883 43.1011 -0.0100651 42.8092 0.0525428C42.5622 0.105522 42.0123 0.276131 41.778 0.862039L43.6349 1.60482ZM47.3853 8.09416C46.1613 7.01145 45.1758 5.38479 44.5173 3.91583C44.1918 3.1897 43.9589 2.53041 43.8221 2.0365C43.7531 1.78754 43.7134 1.5983 43.6959 1.47352C43.6917 1.44374 43.6893 1.42072 43.6879 1.40392C43.6865 1.3867 43.6865 1.37955 43.6865 1.38089C43.6865 1.38106 43.6866 1.399 43.6824 1.42966C43.6787 1.45687 43.6681 1.52189 43.6349 1.60482L41.778 0.862039C41.6937 1.07279 41.6867 1.2741 41.6865 1.37765C41.6863 1.50392 41.6986 1.63205 41.7153 1.75134C41.749 1.99153 41.8118 2.27129 41.8947 2.57059C42.0617 3.17323 42.3308 3.92755 42.6923 4.73394C43.4078 6.33001 44.5361 8.24398 46.0601 9.59216L47.3853 8.09416ZM51.9097 11.9066C50.6303 11.0256 48.5663 9.19592 47.405 8.11211L46.0404 9.57422C47.2004 10.6569 49.3607 12.5797 50.7754 13.5539L51.9097 11.9066ZM50.2393 18.0163C50.2393 16.3151 50.909 14.7189 52.0889 13.3958L50.5963 12.0647C49.1307 13.7081 48.2393 15.7657 48.2393 18.0163H50.2393ZM60.2312 26C54.5148 26 50.2393 22.2465 50.2393 18.0163H48.2393C48.2393 23.7093 53.8063 28 60.2312 28V26ZM70.223 18.0163C70.223 22.2465 65.9476 26 60.2312 26V28C66.656 28 72.223 23.7093 72.223 18.0163H70.223ZM68.3256 13.3426C69.5353 14.676 70.223 16.2924 70.223 18.0163H72.223C72.223 15.7353 71.3076 13.6529 69.8068 11.9988L68.3256 13.3426ZM72.6545 8.30144C71.5954 9.28995 69.7658 10.9171 68.4746 11.8645L69.6578 13.477C71.0486 12.4564 72.9492 10.7622 74.0192 9.76355L72.6545 8.30144ZM76.4246 1.79415C76.3915 1.71122 76.3808 1.6462 76.3771 1.61899C76.3729 1.58833 76.373 1.57039 76.373 1.57022C76.373 1.56888 76.3731 1.57603 76.3717 1.59325C76.3703 1.61005 76.3678 1.63307 76.3636 1.66285C76.3461 1.78763 76.3065 1.97687 76.2375 2.22583C76.1006 2.71974 75.8677 3.37903 75.5422 4.10516C74.8837 5.57412 73.8982 7.20078 72.6743 8.28349L73.9994 9.78149C75.5235 8.43331 76.6518 6.51934 77.3672 4.92327C77.7287 4.11688 77.9979 3.36256 78.1649 2.75992C78.2478 2.46062 78.3105 2.18086 78.3442 1.94067C78.361 1.82138 78.3732 1.69325 78.373 1.56698C78.3729 1.46344 78.3659 1.26212 78.2816 1.05137L76.4246 1.79415ZM75.5069 2.38628C75.7862 2.3087 76.2031 2.22002 76.5424 2.19558C76.6235 2.18975 76.6912 2.18828 76.745 2.19001C76.7715 2.19086 76.7922 2.19242 76.8075 2.19409C76.8151 2.19491 76.8209 2.19571 76.8249 2.19634C76.8269 2.19666 76.8284 2.19692 76.8295 2.19711C76.8305 2.1973 76.831 2.1974 76.8309 2.1974C76.8309 2.19739 76.8303 2.19726 76.8291 2.19697C76.828 2.19669 76.8262 2.19623 76.8238 2.19556C76.8192 2.19424 76.8117 2.19194 76.8019 2.18828C76.783 2.18127 76.7497 2.16722 76.7088 2.14154C76.6223 2.08739 76.4981 1.97772 76.4246 1.79415L78.2816 1.05137C78.0472 0.465462 77.4974 0.294853 77.2504 0.241874C76.9585 0.179266 76.6501 0.182652 76.3988 0.200751C75.882 0.237968 75.3265 0.360672 74.9716 0.459242L75.5069 2.38628ZM66.5538 10.7394C67.4708 9.22668 68.8006 7.36378 70.3768 5.7582C71.9665 4.13904 73.7276 2.86293 75.498 2.38871L74.9806 0.456813C72.711 1.06474 70.6475 2.62766 68.9497 4.35706C67.2385 6.10004 65.8179 8.0952 64.8435 9.70265L66.5538 10.7394ZM60.2312 10.0326C62.0774 10.0326 63.7988 10.4337 65.2736 11.1262L66.1236 9.31585C64.3779 8.49618 62.3657 8.03259 60.2312 8.03259V10.0326ZM54.9831 11.2255C56.5025 10.4723 58.2983 10.0326 60.2312 10.0326V8.03259C57.9967 8.03259 55.8961 8.54063 54.0948 9.43357L54.9831 11.2255Z" fill="white" mask="url(#path-3-outside-2_6118_3114)"/>
<mask id="path-5-outside-3_6118_3114" maskUnits="userSpaceOnUse" x="83.373" y="0" width="37" height="28" fill="black">
<rect fill="white" x="83.373" width="37" height="28"/>
<path fill-rule="evenodd" clip-rule="evenodd" d="M96.2255 10.3295C94.3889 7.21233 90.6774 2.35056 86.5068 1.23343C85.8726 1.05728 84.5621 0.810666 84.393 1.23343C84.1816 1.76188 85.6613 6.41227 88.4092 8.84316C89.5698 9.92639 91.682 11.8026 93.0291 12.7303C91.7064 14.2135 90.9259 16.0404 90.9259 18.0163C90.9259 22.9779 95.8471 27 101.918 27C107.988 27 112.91 22.9779 112.91 18.0163C112.91 16.0139 112.108 14.1645 110.753 12.6707C112.094 11.6868 113.959 10.0261 115.023 9.03249C117.771 6.6016 119.251 1.95122 119.04 1.42276C118.871 0.999997 117.56 1.24661 116.926 1.42276C112.886 2.50491 109.277 7.10084 107.385 10.221C105.775 9.46496 103.908 9.03259 101.918 9.03259C99.834 9.03259 97.8858 9.50646 96.2255 10.3295Z"/>
</mask>
<path fill-rule="evenodd" clip-rule="evenodd" d="M96.2255 10.3295C94.3889 7.21233 90.6774 2.35056 86.5068 1.23343C85.8726 1.05728 84.5621 0.810666 84.393 1.23343C84.1816 1.76188 85.6613 6.41227 88.4092 8.84316C89.5698 9.92639 91.682 11.8026 93.0291 12.7303C91.7064 14.2135 90.9259 16.0404 90.9259 18.0163C90.9259 22.9779 95.8471 27 101.918 27C107.988 27 112.91 22.9779 112.91 18.0163C112.91 16.0139 112.108 14.1645 110.753 12.6707C112.094 11.6868 113.959 10.0261 115.023 9.03249C117.771 6.6016 119.251 1.95122 119.04 1.42276C118.871 0.999997 117.56 1.24661 116.926 1.42276C112.886 2.50491 109.277 7.10084 107.385 10.221C105.775 9.46496 103.908 9.03259 101.918 9.03259C99.834 9.03259 97.8858 9.50646 96.2255 10.3295Z" fill="white"/>
<path d="M86.5068 1.23343L86.2391 2.19699L86.2481 2.19938L86.5068 1.23343ZM96.2255 10.3295L95.3639 10.8371L95.8361 11.6387L96.6696 11.2255L96.2255 10.3295ZM84.393 1.23343L83.4645 0.862039L84.393 1.23343ZM88.4092 8.84316L89.0915 8.11211L89.0818 8.103L89.0718 8.09416L88.4092 8.84316ZM93.0291 12.7303L93.7754 13.3958L94.5301 12.5497L93.5963 11.9066L93.0291 12.7303ZM110.753 12.6707L110.161 11.8645L109.267 12.5209L110.012 13.3426L110.753 12.6707ZM115.023 9.03249L114.361 8.28349L114.351 8.29233L114.341 8.30144L115.023 9.03249ZM119.04 1.42276L119.968 1.05137L119.968 1.05137L119.04 1.42276ZM116.926 1.42276L117.185 2.38875L117.193 2.38628L116.926 1.42276ZM107.385 10.221L106.96 11.1262L107.774 11.5084L108.24 10.7394L107.385 10.221ZM86.2481 2.19938C88.077 2.68928 89.8943 4.03438 91.5208 5.72481C93.1328 7.4002 94.4747 9.32796 95.3639 10.8371L97.087 9.82189C96.1396 8.21389 94.7075 6.15218 92.962 4.3381C91.231 2.53906 89.1072 0.894712 86.7655 0.267482L86.2481 2.19938ZM85.3214 1.60482C85.248 1.78839 85.1237 1.89806 85.0373 1.95221C84.9963 1.97788 84.9631 1.99194 84.9442 1.99895C84.9343 2.00261 84.9269 2.00491 84.9222 2.00622C84.9199 2.0069 84.9181 2.00736 84.9169 2.00764C84.9158 2.00793 84.9152 2.00806 84.9151 2.00807C84.9151 2.00807 84.9156 2.00797 84.9166 2.00778C84.9176 2.00759 84.9192 2.00733 84.9212 2.00701C84.9252 2.00637 84.931 2.00558 84.9385 2.00476C84.9539 2.00309 84.9746 2.00153 85.0011 2.00068C85.0549 1.99895 85.1226 2.00041 85.2037 2.00625C85.543 2.03069 85.9599 2.11937 86.2391 2.19695L86.7744 0.269912C86.4196 0.171341 85.8641 0.0486371 85.3473 0.0114196C85.096 -0.00667883 84.7876 -0.0100651 84.4957 0.0525428C84.2487 0.105522 83.6989 0.276131 83.4645 0.862039L85.3214 1.60482ZM89.0718 8.09416C87.8479 7.01145 86.8624 5.38479 86.2038 3.91583C85.8783 3.1897 85.6454 2.53041 85.5086 2.0365C85.4396 1.78754 85.4 1.5983 85.3824 1.47352C85.3783 1.44374 85.3758 1.42072 85.3744 1.40392C85.373 1.3867 85.373 1.37955 85.373 1.38089C85.373 1.38106 85.3731 1.399 85.369 1.42966C85.3653 1.45687 85.3546 1.52189 85.3214 1.60482L83.4645 0.862039C83.3802 1.07279 83.3732 1.2741 83.373 1.37765C83.3728 1.50392 83.3851 1.63205 83.4018 1.75134C83.4355 1.99153 83.4983 2.27129 83.5812 2.57059C83.7482 3.17323 84.0173 3.92755 84.3788 4.73394C85.0943 6.33001 86.2226 8.24398 87.7466 9.59216L89.0718 8.09416ZM93.5963 11.9066C92.3168 11.0256 90.2528 9.19592 89.0915 8.11211L87.7269 9.57422C88.8869 10.6569 91.0473 12.5797 92.462 13.5539L93.5963 11.9066ZM91.9259 18.0163C91.9259 16.3151 92.5955 14.7189 93.7754 13.3958L92.2828 12.0647C90.8172 13.7081 89.9259 15.7657 89.9259 18.0163H91.9259ZM101.918 26C96.2013 26 91.9259 22.2465 91.9259 18.0163H89.9259C89.9259 23.7093 95.4929 28 101.918 28V26ZM111.91 18.0163C111.91 22.2465 107.634 26 101.918 26V28C108.343 28 113.91 23.7093 113.91 18.0163H111.91ZM110.012 13.3426C111.222 14.676 111.91 16.2924 111.91 18.0163H113.91C113.91 15.7353 112.994 13.6529 111.493 11.9988L110.012 13.3426ZM114.341 8.30144C113.282 9.28995 111.452 10.9171 110.161 11.8645L111.344 13.477C112.735 12.4564 114.636 10.7622 115.706 9.76355L114.341 8.30144ZM118.111 1.79415C118.078 1.71122 118.067 1.6462 118.064 1.61899C118.059 1.58833 118.06 1.57039 118.06 1.57022C118.06 1.56888 118.06 1.57603 118.058 1.59325C118.057 1.61005 118.054 1.63307 118.05 1.66285C118.033 1.78763 117.993 1.97687 117.924 2.22583C117.787 2.71974 117.554 3.37903 117.229 4.10516C116.57 5.57412 115.585 7.20078 114.361 8.28349L115.686 9.78149C117.21 8.43331 118.338 6.51934 119.054 4.92327C119.415 4.11688 119.684 3.36256 119.851 2.75992C119.934 2.46062 119.997 2.18086 120.031 1.94067C120.047 1.82138 120.06 1.69325 120.06 1.56698C120.059 1.46344 120.052 1.26212 119.968 1.05137L118.111 1.79415ZM117.193 2.38628C117.473 2.3087 117.89 2.22002 118.229 2.19558C118.31 2.18975 118.378 2.18828 118.432 2.19001C118.458 2.19086 118.479 2.19242 118.494 2.19409C118.502 2.19491 118.507 2.19571 118.511 2.19634C118.513 2.19666 118.515 2.19692 118.516 2.19711C118.517 2.1973 118.517 2.1974 118.517 2.1974C118.517 2.19739 118.517 2.19726 118.516 2.19697C118.515 2.19669 118.513 2.19623 118.51 2.19556C118.506 2.19424 118.498 2.19194 118.488 2.18828C118.469 2.18127 118.436 2.16722 118.395 2.14154C118.309 2.08739 118.185 1.97772 118.111 1.79415L119.968 1.05137C119.734 0.465462 119.184 0.294853 118.937 0.241874C118.645 0.179266 118.337 0.182652 118.085 0.200751C117.568 0.237968 117.013 0.360672 116.658 0.459242L117.193 2.38628ZM108.24 10.7394C109.157 9.22668 110.487 7.36378 112.063 5.7582C113.653 4.13904 115.414 2.86293 117.185 2.38871L116.667 0.456813C114.397 1.06474 112.334 2.62766 110.636 4.35706C108.925 6.10004 107.504 8.0952 106.53 9.70265L108.24 10.7394ZM101.918 10.0326C103.764 10.0326 105.485 10.4337 106.96 11.1262L107.81 9.31585C106.064 8.49618 104.052 8.03259 101.918 8.03259V10.0326ZM96.6696 11.2255C98.189 10.4723 99.9849 10.0326 101.918 10.0326V8.03259C99.6832 8.03259 97.5826 8.54063 95.7813 9.43357L96.6696 11.2255Z" fill="white" mask="url(#path-5-outside-3_6118_3114)"/>
<mask id="path-7-outside-4_6118_3114" maskUnits="userSpaceOnUse" x="125.06" y="0" width="37" height="28" fill="black">
<rect fill="white" x="125.06" width="37" height="28"/>
<path fill-rule="evenodd" clip-rule="evenodd" d="M137.912 10.3295C136.075 7.21233 132.364 2.35056 128.193 1.23343C127.559 1.05728 126.249 0.810666 126.079 1.23343C125.868 1.76188 127.348 6.41227 130.096 8.84316C131.256 9.92639 133.369 11.8026 134.716 12.7303C133.393 14.2135 132.612 16.0404 132.612 18.0163C132.612 22.9779 137.534 27 143.604 27C149.675 27 154.596 22.9779 154.596 18.0163C154.596 16.0139 153.795 14.1645 152.439 12.6707C153.78 11.6868 155.645 10.0261 156.71 9.03249C159.458 6.6016 160.938 1.95122 160.726 1.42276C160.557 0.999997 159.246 1.24661 158.612 1.42276C154.572 2.50491 150.963 7.10084 149.072 10.221C147.461 9.46496 145.595 9.03259 143.604 9.03259C141.521 9.03259 139.572 9.50646 137.912 10.3295Z"/>
</mask>
<path fill-rule="evenodd" clip-rule="evenodd" d="M137.912 10.3295C136.075 7.21233 132.364 2.35056 128.193 1.23343C127.559 1.05728 126.249 0.810666 126.079 1.23343C125.868 1.76188 127.348 6.41227 130.096 8.84316C131.256 9.92639 133.369 11.8026 134.716 12.7303C133.393 14.2135 132.612 16.0404 132.612 18.0163C132.612 22.9779 137.534 27 143.604 27C149.675 27 154.596 22.9779 154.596 18.0163C154.596 16.0139 153.795 14.1645 152.439 12.6707C153.78 11.6868 155.645 10.0261 156.71 9.03249C159.458 6.6016 160.938 1.95122 160.726 1.42276C160.557 0.999997 159.246 1.24661 158.612 1.42276C154.572 2.50491 150.963 7.10084 149.072 10.221C147.461 9.46496 145.595 9.03259 143.604 9.03259C141.521 9.03259 139.572 9.50646 137.912 10.3295Z" fill="white"/>
<path d="M128.193 1.23343L127.926 2.19699L127.935 2.19938L128.193 1.23343ZM137.912 10.3295L137.05 10.8371L137.523 11.6387L138.356 11.2255L137.912 10.3295ZM126.079 1.23343L125.151 0.862039L126.079 1.23343ZM130.096 8.84316L130.778 8.11211L130.768 8.103L130.758 8.09416L130.096 8.84316ZM134.716 12.7303L135.462 13.3958L136.217 12.5497L135.283 11.9066L134.716 12.7303ZM152.439 12.6707L151.848 11.8645L150.953 12.5209L151.699 13.3426L152.439 12.6707ZM156.71 9.03249L156.047 8.28349L156.037 8.29233L156.028 8.30144L156.71 9.03249ZM160.726 1.42276L161.655 1.05137L161.655 1.05137L160.726 1.42276ZM158.612 1.42276L158.871 2.38875L158.88 2.38628L158.612 1.42276ZM149.072 10.221L148.647 11.1262L149.461 11.5084L149.927 10.7394L149.072 10.221ZM127.935 2.19938C129.764 2.68928 131.581 4.03438 133.207 5.72481C134.819 7.4002 136.161 9.32796 137.05 10.8371L138.774 9.82189C137.826 8.21389 136.394 6.15218 134.649 4.3381C132.917 2.53906 130.794 0.894712 128.452 0.267482L127.935 2.19938ZM127.008 1.60482C126.935 1.78839 126.81 1.89806 126.724 1.95221C126.683 1.97788 126.65 1.99194 126.631 1.99895C126.621 2.00261 126.613 2.00491 126.609 2.00622C126.606 2.0069 126.605 2.00736 126.603 2.00764C126.602 2.00793 126.602 2.00806 126.602 2.00807C126.602 2.00807 126.602 2.00797 126.603 2.00778C126.604 2.00759 126.606 2.00733 126.608 2.00701C126.612 2.00637 126.617 2.00558 126.625 2.00476C126.64 2.00309 126.661 2.00153 126.688 2.00068C126.741 1.99895 126.809 2.00041 126.89 2.00625C127.229 2.03069 127.646 2.11937 127.926 2.19695L128.461 0.269912C128.106 0.171341 127.551 0.0486371 127.034 0.0114196C126.783 -0.00667883 126.474 -0.0100651 126.182 0.0525428C125.935 0.105522 125.385 0.276131 125.151 0.862039L127.008 1.60482ZM130.758 8.09416C129.534 7.01145 128.549 5.38479 127.89 3.91583C127.565 3.1897 127.332 2.53041 127.195 2.0365C127.126 1.78754 127.086 1.5983 127.069 1.47352C127.065 1.44374 127.062 1.42072 127.061 1.40392C127.06 1.3867 127.06 1.37955 127.06 1.38089C127.06 1.38106 127.06 1.399 127.055 1.42966C127.052 1.45687 127.041 1.52189 127.008 1.60482L125.151 0.862039C125.067 1.07279 125.06 1.2741 125.06 1.37765C125.059 1.50392 125.072 1.63205 125.088 1.75134C125.122 1.99153 125.185 2.27129 125.268 2.57059C125.435 3.17323 125.704 3.92755 126.065 4.73394C126.781 6.33001 127.909 8.24398 129.433 9.59216L130.758 8.09416ZM135.283 11.9066C134.003 11.0256 131.939 9.19592 130.778 8.11211L129.413 9.57422C130.573 10.6569 132.734 12.5797 134.148 13.5539L135.283 11.9066ZM133.612 18.0163C133.612 16.3151 134.282 14.7189 135.462 13.3958L133.969 12.0647C132.504 13.7081 131.612 15.7657 131.612 18.0163H133.612ZM143.604 26C137.888 26 133.612 22.2465 133.612 18.0163H131.612C131.612 23.7093 137.179 28 143.604 28V26ZM153.596 18.0163C153.596 22.2465 149.321 26 143.604 26V28C150.029 28 155.596 23.7093 155.596 18.0163H153.596ZM151.699 13.3426C152.908 14.676 153.596 16.2924 153.596 18.0163H155.596C155.596 15.7353 154.681 13.6529 153.18 11.9988L151.699 13.3426ZM156.028 8.30144C154.968 9.28995 153.139 10.9171 151.848 11.8645L153.031 13.477C154.422 12.4564 156.322 10.7622 157.392 9.76355L156.028 8.30144ZM159.798 1.79415C159.765 1.71122 159.754 1.6462 159.75 1.61899C159.746 1.58833 159.746 1.57039 159.746 1.57022C159.746 1.56888 159.746 1.57603 159.745 1.59325C159.743 1.61005 159.741 1.63307 159.737 1.66285C159.719 1.78763 159.68 1.97687 159.611 2.22583C159.474 2.71974 159.241 3.37903 158.915 4.10516C158.257 5.57412 157.271 7.20078 156.047 8.28349L157.372 9.78149C158.897 8.43331 160.025 6.51934 160.74 4.92327C161.102 4.11688 161.371 3.36256 161.538 2.75992C161.621 2.46062 161.684 2.18086 161.717 1.94067C161.734 1.82138 161.746 1.69325 161.746 1.56698C161.746 1.46344 161.739 1.26212 161.655 1.05137L159.798 1.79415ZM158.88 2.38628C159.159 2.3087 159.576 2.22002 159.915 2.19558C159.997 2.18975 160.064 2.18828 160.118 2.19001C160.145 2.19086 160.165 2.19242 160.181 2.19409C160.188 2.19491 160.194 2.19571 160.198 2.19634C160.2 2.19666 160.201 2.19692 160.203 2.19711C160.204 2.1973 160.204 2.1974 160.204 2.1974C160.204 2.19739 160.203 2.19726 160.202 2.19697C160.201 2.19669 160.199 2.19623 160.197 2.19556C160.192 2.19424 160.185 2.19194 160.175 2.18828C160.156 2.18127 160.123 2.16722 160.082 2.14154C159.995 2.08739 159.871 1.97772 159.798 1.79415L161.655 1.05137C161.42 0.465462 160.87 0.294853 160.623 0.241874C160.332 0.179266 160.023 0.182652 159.772 0.200751C159.255 0.237968 158.7 0.360672 158.345 0.459242L158.88 2.38628ZM149.927 10.7394C150.844 9.22668 152.174 7.36378 153.75 5.7582C155.34 4.13904 157.101 2.86293 158.871 2.38871L158.354 0.456813C156.084 1.06474 154.021 2.62766 152.323 4.35706C150.612 6.10004 149.191 8.0952 148.217 9.70265L149.927 10.7394ZM143.604 10.0326C145.45 10.0326 147.172 10.4337 148.647 11.1262L149.497 9.31585C147.751 8.49618 145.739 8.03259 143.604 8.03259V10.0326ZM138.356 11.2255C139.875 10.4723 141.671 10.0326 143.604 10.0326V8.03259C141.37 8.03259 139.269 8.54063 137.468 9.43357L138.356 11.2255Z" fill="white" mask="url(#path-7-outside-4_6118_3114)"/>
<mask id="path-9-outside-5_6118_3114" maskUnits="userSpaceOnUse" x="166.746" y="0" width="37" height="28" fill="black">
<rect fill="white" x="166.746" width="37" height="28"/>
<path fill-rule="evenodd" clip-rule="evenodd" d="M179.599 10.3295C177.762 7.21233 174.05 2.35056 169.88 1.23343C169.246 1.05728 167.935 0.810666 167.766 1.23343C167.555 1.76188 169.034 6.41227 171.782 8.84316C172.943 9.92639 175.055 11.8026 176.402 12.7303C175.079 14.2135 174.299 16.0404 174.299 18.0163C174.299 22.9779 179.22 27 185.291 27C191.361 27 196.283 22.9779 196.283 18.0163C196.283 16.0139 195.481 14.1645 194.126 12.6707C195.467 11.6868 197.332 10.0261 198.396 9.03249C201.144 6.6016 202.624 1.95122 202.413 1.42276C202.244 0.999997 200.933 1.24661 200.299 1.42276C196.259 2.50491 192.65 7.10084 190.758 10.221C189.148 9.46496 187.281 9.03259 185.291 9.03259C183.207 9.03259 181.259 9.50646 179.599 10.3295Z"/>
</mask>
<path fill-rule="evenodd" clip-rule="evenodd" d="M179.599 10.3295C177.762 7.21233 174.05 2.35056 169.88 1.23343C169.246 1.05728 167.935 0.810666 167.766 1.23343C167.555 1.76188 169.034 6.41227 171.782 8.84316C172.943 9.92639 175.055 11.8026 176.402 12.7303C175.079 14.2135 174.299 16.0404 174.299 18.0163C174.299 22.9779 179.22 27 185.291 27C191.361 27 196.283 22.9779 196.283 18.0163C196.283 16.0139 195.481 14.1645 194.126 12.6707C195.467 11.6868 197.332 10.0261 198.396 9.03249C201.144 6.6016 202.624 1.95122 202.413 1.42276C202.244 0.999997 200.933 1.24661 200.299 1.42276C196.259 2.50491 192.65 7.10084 190.758 10.221C189.148 9.46496 187.281 9.03259 185.291 9.03259C183.207 9.03259 181.259 9.50646 179.599 10.3295Z" fill="white"/>
<path d="M169.88 1.23343L169.612 2.19699L169.621 2.19938L169.88 1.23343ZM179.599 10.3295L178.737 10.8371L179.209 11.6387L180.043 11.2255L179.599 10.3295ZM167.766 1.23343L166.838 0.862039L167.766 1.23343ZM171.782 8.84316L172.465 8.11211L172.455 8.103L172.445 8.09416L171.782 8.84316ZM176.402 12.7303L177.148 13.3958L177.903 12.5497L176.969 11.9066L176.402 12.7303ZM194.126 12.6707L193.534 11.8645L192.64 12.5209L193.385 13.3426L194.126 12.6707ZM198.396 9.03249L197.734 8.28349L197.724 8.29233L197.714 8.30144L198.396 9.03249ZM202.413 1.42276L203.341 1.05137L203.341 1.05137L202.413 1.42276ZM200.299 1.42276L200.558 2.38875L200.567 2.38628L200.299 1.42276ZM190.758 10.221L190.333 11.1262L191.147 11.5084L191.613 10.7394L190.758 10.221ZM169.621 2.19938C171.45 2.68928 173.267 4.03438 174.894 5.72481C176.506 7.4002 177.848 9.32796 178.737 10.8371L180.46 9.82189C179.513 8.21389 178.081 6.15218 176.335 4.3381C174.604 2.53906 172.48 0.894712 170.139 0.267482L169.621 2.19938ZM168.694 1.60482C168.621 1.78839 168.497 1.89806 168.41 1.95221C168.369 1.97788 168.336 1.99194 168.317 1.99895C168.307 2.00261 168.3 2.00491 168.295 2.00622C168.293 2.0069 168.291 2.00736 168.29 2.00764C168.289 2.00793 168.288 2.00806 168.288 2.00807C168.288 2.00807 168.289 2.00797 168.29 2.00778C168.291 2.00759 168.292 2.00733 168.294 2.00701C168.298 2.00637 168.304 2.00558 168.312 2.00476C168.327 2.00309 168.348 2.00153 168.374 2.00068C168.428 1.99895 168.496 2.00041 168.577 2.00625C168.916 2.03069 169.333 2.11937 169.612 2.19695L170.147 0.269912C169.793 0.171341 169.237 0.0486371 168.72 0.0114196C168.469 -0.00667883 168.161 -0.0100651 167.869 0.0525428C167.622 0.105522 167.072 0.276131 166.838 0.862039L168.694 1.60482ZM172.445 8.09416C171.221 7.01145 170.235 5.38479 169.577 3.91583C169.251 3.1897 169.018 2.53041 168.882 2.0365C168.813 1.78754 168.773 1.5983 168.755 1.47352C168.751 1.44374 168.749 1.42072 168.747 1.40392C168.746 1.3867 168.746 1.37955 168.746 1.38089C168.746 1.38106 168.746 1.399 168.742 1.42966C168.738 1.45687 168.728 1.52189 168.694 1.60482L166.838 0.862039C166.753 1.07279 166.746 1.2741 166.746 1.37765C166.746 1.50392 166.758 1.63205 166.775 1.75134C166.809 1.99153 166.871 2.27129 166.954 2.57059C167.121 3.17323 167.39 3.92755 167.752 4.73394C168.467 6.33001 169.596 8.24398 171.12 9.59216L172.445 8.09416ZM176.969 11.9066C175.69 11.0256 173.626 9.19592 172.465 8.11211L171.1 9.57422C172.26 10.6569 174.42 12.5797 175.835 13.5539L176.969 11.9066ZM175.299 18.0163C175.299 16.3151 175.969 14.7189 177.148 13.3958L175.656 12.0647C174.19 13.7081 173.299 15.7657 173.299 18.0163H175.299ZM185.291 26C179.574 26 175.299 22.2465 175.299 18.0163H173.299C173.299 23.7093 178.866 28 185.291 28V26ZM195.283 18.0163C195.283 22.2465 191.007 26 185.291 26V28C191.716 28 197.283 23.7093 197.283 18.0163H195.283ZM193.385 13.3426C194.595 14.676 195.283 16.2924 195.283 18.0163H197.283C197.283 15.7353 196.367 13.6529 194.866 11.9988L193.385 13.3426ZM197.714 8.30144C196.655 9.28995 194.825 10.9171 193.534 11.8645L194.717 13.477C196.108 12.4564 198.009 10.7622 199.079 9.76355L197.714 8.30144ZM201.484 1.79415C201.451 1.71122 201.44 1.6462 201.437 1.61899C201.433 1.58833 201.433 1.57039 201.433 1.57022C201.433 1.56888 201.433 1.57603 201.431 1.59325C201.43 1.61005 201.427 1.63307 201.423 1.66285C201.406 1.78763 201.366 1.97687 201.297 2.22583C201.16 2.71974 200.927 3.37903 200.602 4.10516C199.943 5.57412 198.958 7.20078 197.734 8.28349L199.059 9.78149C200.583 8.43331 201.711 6.51934 202.427 4.92327C202.788 4.11688 203.057 3.36256 203.224 2.75992C203.307 2.46062 203.37 2.18086 203.404 1.94067C203.421 1.82138 203.433 1.69325 203.433 1.56698C203.432 1.46344 203.425 1.26212 203.341 1.05137L201.484 1.79415ZM200.567 2.38628C200.846 2.3087 201.263 2.22002 201.602 2.19558C201.683 2.18975 201.751 2.18828 201.805 2.19001C201.831 2.19086 201.852 2.19242 201.867 2.19409C201.875 2.19491 201.88 2.19571 201.884 2.19634C201.886 2.19666 201.888 2.19692 201.889 2.19711C201.89 2.1973 201.891 2.1974 201.891 2.1974C201.89 2.19739 201.89 2.19726 201.889 2.19697C201.888 2.19669 201.886 2.19623 201.883 2.19556C201.879 2.19424 201.871 2.19194 201.861 2.18828C201.843 2.18127 201.809 2.16722 201.768 2.14154C201.682 2.08739 201.558 1.97772 201.484 1.79415L203.341 1.05137C203.107 0.465462 202.557 0.294853 202.31 0.241874C202.018 0.179266 201.71 0.182652 201.458 0.200751C200.942 0.237968 200.386 0.360672 200.031 0.459242L200.567 2.38628ZM191.613 10.7394C192.53 9.22668 193.86 7.36378 195.436 5.7582C197.026 4.13904 198.787 2.86293 200.558 2.38871L200.04 0.456813C197.771 1.06474 195.707 2.62766 194.009 4.35706C192.298 6.10004 190.878 8.0952 189.903 9.70265L191.613 10.7394ZM185.291 10.0326C187.137 10.0326 188.858 10.4337 190.333 11.1262L191.183 9.31585C189.437 8.49618 187.425 8.03259 185.291 8.03259V10.0326ZM180.043 11.2255C181.562 10.4723 183.358 10.0326 185.291 10.0326V8.03259C183.056 8.03259 180.956 8.54063 179.154 9.43357L180.043 11.2255Z" fill="white" mask="url(#path-9-outside-5_6118_3114)"/>
<mask id="path-11-outside-6_6118_3114" maskUnits="userSpaceOnUse" x="208.433" y="0" width="37" height="28" fill="black">
<rect fill="white" x="208.433" width="37" height="28"/>
<path fill-rule="evenodd" clip-rule="evenodd" d="M221.285 10.3295C219.448 7.21233 215.737 2.35056 211.566 1.23343C210.932 1.05728 209.622 0.810666 209.453 1.23343C209.241 1.76188 210.721 6.41227 213.469 8.84316C214.629 9.92639 216.742 11.8026 218.089 12.7303C216.766 14.2135 215.985 16.0404 215.985 18.0163C215.985 22.9779 220.907 27 226.977 27C233.048 27 237.969 22.9779 237.969 18.0163C237.969 16.0139 237.168 14.1645 235.812 12.6707C237.153 11.6868 239.018 10.0261 240.083 9.03249C242.831 6.6016 244.311 1.95122 244.099 1.42276C243.93 0.999997 242.62 1.24661 241.985 1.42276C237.945 2.50491 234.336 7.10084 232.445 10.221C230.834 9.46496 228.968 9.03259 226.977 9.03259C224.894 9.03259 222.945 9.50646 221.285 10.3295Z"/>
</mask>
<path fill-rule="evenodd" clip-rule="evenodd" d="M221.285 10.3295C219.448 7.21233 215.737 2.35056 211.566 1.23343C210.932 1.05728 209.622 0.810666 209.453 1.23343C209.241 1.76188 210.721 6.41227 213.469 8.84316C214.629 9.92639 216.742 11.8026 218.089 12.7303C216.766 14.2135 215.985 16.0404 215.985 18.0163C215.985 22.9779 220.907 27 226.977 27C233.048 27 237.969 22.9779 237.969 18.0163C237.969 16.0139 237.168 14.1645 235.812 12.6707C237.153 11.6868 239.018 10.0261 240.083 9.03249C242.831 6.6016 244.311 1.95122 244.099 1.42276C243.93 0.999997 242.62 1.24661 241.985 1.42276C237.945 2.50491 234.336 7.10084 232.445 10.221C230.834 9.46496 228.968 9.03259 226.977 9.03259C224.894 9.03259 222.945 9.50646 221.285 10.3295Z" fill="white"/>
<path d="M211.566 1.23343L211.299 2.19699L211.308 2.19938L211.566 1.23343ZM221.285 10.3295L220.423 10.8371L220.896 11.6387L221.729 11.2255L221.285 10.3295ZM209.453 1.23343L208.524 0.862039L209.453 1.23343ZM213.469 8.84316L214.151 8.11211L214.141 8.103L214.131 8.09416L213.469 8.84316ZM218.089 12.7303L218.835 13.3958L219.59 12.5497L218.656 11.9066L218.089 12.7303ZM235.812 12.6707L235.221 11.8645L234.326 12.5209L235.072 13.3426L235.812 12.6707ZM240.083 9.03249L239.42 8.28349L239.41 8.29233L239.401 8.30144L240.083 9.03249ZM244.099 1.42276L245.028 1.05137L245.028 1.05137L244.099 1.42276ZM241.985 1.42276L242.244 2.38875L242.253 2.38628L241.985 1.42276ZM232.445 10.221L232.02 11.1262L232.834 11.5084L233.3 10.7394L232.445 10.221ZM211.308 2.19938C213.137 2.68928 214.954 4.03438 216.58 5.72481C218.192 7.4002 219.534 9.32796 220.423 10.8371L222.147 9.82189C221.199 8.21389 219.767 6.15218 218.022 4.3381C216.291 2.53906 214.167 0.894712 211.825 0.267482L211.308 2.19938ZM210.381 1.60482C210.308 1.78839 210.183 1.89806 210.097 1.95221C210.056 1.97788 210.023 1.99194 210.004 1.99895C209.994 2.00261 209.986 2.00491 209.982 2.00622C209.979 2.0069 209.978 2.00736 209.976 2.00764C209.975 2.00793 209.975 2.00806 209.975 2.00807C209.975 2.00807 209.975 2.00797 209.976 2.00778C209.977 2.00759 209.979 2.00733 209.981 2.00701C209.985 2.00637 209.991 2.00558 209.998 2.00476C210.013 2.00309 210.034 2.00153 210.061 2.00068C210.114 1.99895 210.182 2.00041 210.263 2.00625C210.603 2.03069 211.019 2.11937 211.299 2.19695L211.834 0.269912C211.479 0.171341 210.924 0.0486371 210.407 0.0114196C210.156 -0.00667883 209.847 -0.0100651 209.555 0.0525428C209.308 0.105522 208.758 0.276131 208.524 0.862039L210.381 1.60482ZM214.131 8.09416C212.907 7.01145 211.922 5.38479 211.263 3.91583C210.938 3.1897 210.705 2.53041 210.568 2.0365C210.499 1.78754 210.46 1.5983 210.442 1.47352C210.438 1.44374 210.435 1.42072 210.434 1.40392C210.433 1.3867 210.433 1.37955 210.433 1.38089C210.433 1.38106 210.433 1.399 210.429 1.42966C210.425 1.45687 210.414 1.52189 210.381 1.60482L208.524 0.862039C208.44 1.07279 208.433 1.2741 208.433 1.37765C208.432 1.50392 208.445 1.63205 208.461 1.75134C208.495 1.99153 208.558 2.27129 208.641 2.57059C208.808 3.17323 209.077 3.92755 209.438 4.73394C210.154 6.33001 211.282 8.24398 212.806 9.59216L214.131 8.09416ZM218.656 11.9066C217.376 11.0256 215.312 9.19592 214.151 8.11211L212.786 9.57422C213.946 10.6569 216.107 12.5797 217.522 13.5539L218.656 11.9066ZM216.985 18.0163C216.985 16.3151 217.655 14.7189 218.835 13.3958L217.342 12.0647C215.877 13.7081 214.985 15.7657 214.985 18.0163H216.985ZM226.977 26C221.261 26 216.985 22.2465 216.985 18.0163H214.985C214.985 23.7093 220.552 28 226.977 28V26ZM236.969 18.0163C236.969 22.2465 232.694 26 226.977 26V28C233.402 28 238.969 23.7093 238.969 18.0163H236.969ZM235.072 13.3426C236.281 14.676 236.969 16.2924 236.969 18.0163H238.969C238.969 15.7353 238.054 13.6529 236.553 11.9988L235.072 13.3426ZM239.401 8.30144C238.342 9.28995 236.512 10.9171 235.221 11.8645L236.404 13.477C237.795 12.4564 239.695 10.7622 240.765 9.76355L239.401 8.30144ZM243.171 1.79415C243.138 1.71122 243.127 1.6462 243.123 1.61899C243.119 1.58833 243.119 1.57039 243.119 1.57022C243.119 1.56888 243.119 1.57603 243.118 1.59325C243.116 1.61005 243.114 1.63307 243.11 1.66285C243.092 1.78763 243.053 1.97687 242.984 2.22583C242.847 2.71974 242.614 3.37903 242.288 4.10516C241.63 5.57412 240.644 7.20078 239.42 8.28349L240.746 9.78149C242.27 8.43331 243.398 6.51934 244.113 4.92327C244.475 4.11688 244.744 3.36256 244.911 2.75992C244.994 2.46062 245.057 2.18086 245.09 1.94067C245.107 1.82138 245.119 1.69325 245.119 1.56698C245.119 1.46344 245.112 1.26212 245.028 1.05137L243.171 1.79415ZM242.253 2.38628C242.532 2.3087 242.949 2.22002 243.289 2.19558C243.37 2.18975 243.437 2.18828 243.491 2.19001C243.518 2.19086 243.538 2.19242 243.554 2.19409C243.561 2.19491 243.567 2.19571 243.571 2.19634C243.573 2.19666 243.575 2.19692 243.576 2.19711C243.577 2.1973 243.577 2.1974 243.577 2.1974C243.577 2.19739 243.576 2.19726 243.575 2.19697C243.574 2.19669 243.572 2.19623 243.57 2.19556C243.565 2.19424 243.558 2.19194 243.548 2.18828C243.529 2.18127 243.496 2.16722 243.455 2.14154C243.368 2.08739 243.244 1.97772 243.171 1.79415L245.028 1.05137C244.793 0.465462 244.243 0.294853 243.996 0.241874C243.705 0.179266 243.396 0.182652 243.145 0.200751C242.628 0.237968 242.073 0.360672 241.718 0.459242L242.253 2.38628ZM233.3 10.7394C234.217 9.22668 235.547 7.36378 237.123 5.7582C238.713 4.13904 240.474 2.86293 242.244 2.38871L241.727 0.456813C239.457 1.06474 237.394 2.62766 235.696 4.35706C233.985 6.10004 232.564 8.0952 231.59 9.70265L233.3 10.7394ZM226.977 10.0326C228.823 10.0326 230.545 10.4337 232.02 11.1262L232.87 9.31585C231.124 8.49618 229.112 8.03259 226.977 8.03259V10.0326ZM221.729 11.2255C223.249 10.4723 225.044 10.0326 226.977 10.0326V8.03259C224.743 8.03259 222.642 8.54063 220.841 9.43357L221.729 11.2255Z" fill="white" mask="url(#path-11-outside-6_6118_3114)"/>
<mask id="path-13-outside-7_6118_3114" maskUnits="userSpaceOnUse" x="250.119" y="0" width="37" height="28" fill="black">
<rect fill="white" x="250.119" width="37" height="28"/>
<path fill-rule="evenodd" clip-rule="evenodd" d="M262.972 10.3295C261.135 7.21235 257.424 2.35058 253.253 1.23344C252.619 1.05729 251.308 0.810681 251.139 1.23344C250.928 1.7619 252.407 6.41229 255.155 8.84318C256.316 9.92641 258.428 11.8026 259.775 12.7303C258.452 14.2135 257.672 16.0404 257.672 18.0163C257.672 22.9779 262.593 27.0001 268.664 27.0001C274.734 27.0001 279.656 22.9779 279.656 18.0163C279.656 16.0139 278.854 14.1645 277.499 12.6707C278.84 11.6868 280.705 10.0261 281.769 9.03251C284.517 6.60162 285.997 1.95123 285.786 1.42278C285.617 1.00001 284.306 1.24662 283.672 1.42278C279.632 2.50493 276.023 7.10085 274.131 10.2211C272.521 9.46497 270.654 9.03261 268.664 9.03261C266.58 9.03261 264.632 9.50647 262.972 10.3295Z"/>
</mask>
<path fill-rule="evenodd" clip-rule="evenodd" d="M262.972 10.3295C261.135 7.21235 257.424 2.35058 253.253 1.23344C252.619 1.05729 251.308 0.810681 251.139 1.23344C250.928 1.7619 252.407 6.41229 255.155 8.84318C256.316 9.92641 258.428 11.8026 259.775 12.7303C258.452 14.2135 257.672 16.0404 257.672 18.0163C257.672 22.9779 262.593 27.0001 268.664 27.0001C274.734 27.0001 279.656 22.9779 279.656 18.0163C279.656 16.0139 278.854 14.1645 277.499 12.6707C278.84 11.6868 280.705 10.0261 281.769 9.03251C284.517 6.60162 285.997 1.95123 285.786 1.42278C285.617 1.00001 284.306 1.24662 283.672 1.42278C279.632 2.50493 276.023 7.10085 274.131 10.2211C272.521 9.46497 270.654 9.03261 268.664 9.03261C266.58 9.03261 264.632 9.50647 262.972 10.3295Z" fill="white"/>
<path d="M253.253 1.23344L252.985 2.197L252.994 2.19939L253.253 1.23344ZM262.972 10.3295L262.11 10.8372L262.582 11.6387L263.416 11.2255L262.972 10.3295ZM251.139 1.23344L250.211 0.862054L251.139 1.23344ZM255.155 8.84318L255.838 8.11212L255.828 8.10302L255.818 8.09418L255.155 8.84318ZM259.775 12.7303L260.522 13.3959L261.276 12.5497L260.342 11.9067L259.775 12.7303ZM277.499 12.6707L276.907 11.8645L276.013 12.5209L276.758 13.3427L277.499 12.6707ZM281.769 9.03251L281.107 8.28351L281.097 8.29235L281.087 8.30145L281.769 9.03251ZM285.786 1.42278L286.714 1.05139L286.714 1.05139L285.786 1.42278ZM283.672 1.42278L283.931 2.38877L283.94 2.38629L283.672 1.42278ZM274.131 10.2211L273.706 11.1262L274.52 11.5084L274.986 10.7394L274.131 10.2211ZM252.994 2.19939C254.823 2.6893 256.64 4.0344 258.267 5.72482C259.879 7.40021 261.221 9.32798 262.11 10.8372L263.833 9.82191C262.886 8.2139 261.454 6.15219 259.708 4.33812C257.977 2.53907 255.853 0.894727 253.512 0.267497L252.994 2.19939ZM252.068 1.60484C251.994 1.78841 251.87 1.89807 251.783 1.95222C251.742 1.9779 251.709 1.99195 251.69 1.99896C251.68 2.00262 251.673 2.00492 251.668 2.00624C251.666 2.00691 251.664 2.00737 251.663 2.00766C251.662 2.00795 251.661 2.00808 251.661 2.00808C251.661 2.00809 251.662 2.00798 251.663 2.00779C251.664 2.00761 251.665 2.00734 251.667 2.00703C251.671 2.00639 251.677 2.0056 251.685 2.00477C251.7 2.0031 251.721 2.00155 251.747 2.0007C251.801 1.99896 251.869 2.00043 251.95 2.00627C252.289 2.0307 252.706 2.11938 252.985 2.19696L253.521 0.269927C253.166 0.171356 252.61 0.0486525 252.093 0.011435C251.842 -0.00666345 251.534 -0.0100498 251.242 0.0525582C250.995 0.105537 250.445 0.276147 250.211 0.862054L252.068 1.60484ZM255.818 8.09418C254.594 7.01147 253.608 5.3848 252.95 3.91584C252.624 3.18972 252.392 2.53042 252.255 2.03652C252.186 1.78756 252.146 1.59831 252.129 1.47353C252.124 1.44376 252.122 1.42073 252.121 1.40393C252.119 1.38672 252.119 1.37957 252.119 1.38091C252.119 1.38107 252.119 1.39902 252.115 1.42968C252.111 1.45688 252.101 1.52191 252.068 1.60484L250.211 0.862054C250.126 1.0728 250.119 1.27412 250.119 1.37766C250.119 1.50394 250.131 1.63206 250.148 1.75136C250.182 1.99154 250.244 2.2713 250.327 2.57061C250.494 3.17324 250.763 3.92756 251.125 4.73395C251.84 6.33002 252.969 8.24399 254.493 9.59217L255.818 8.09418ZM260.342 11.9067C259.063 11.0256 256.999 9.19594 255.838 8.11212L254.473 9.57423C255.633 10.6569 257.793 12.5797 259.208 13.5539L260.342 11.9067ZM258.672 18.0163C258.672 16.3151 259.342 14.7189 260.522 13.3959L259.029 12.0647C257.563 13.7081 256.672 15.7658 256.672 18.0163H258.672ZM268.664 26.0001C262.947 26.0001 258.672 22.2465 258.672 18.0163H256.672C256.672 23.7093 262.239 28.0001 268.664 28.0001V26.0001ZM278.656 18.0163C278.656 22.2465 274.38 26.0001 268.664 26.0001V28.0001C275.089 28.0001 280.656 23.7093 280.656 18.0163H278.656ZM276.758 13.3427C277.968 14.676 278.656 16.2925 278.656 18.0163H280.656C280.656 15.7353 279.74 13.6529 278.239 11.9988L276.758 13.3427ZM281.087 8.30145C280.028 9.28996 278.198 10.9171 276.907 11.8645L278.09 13.477C279.481 12.4565 281.382 10.7622 282.452 9.76356L281.087 8.30145ZM284.857 1.79416C284.824 1.71124 284.813 1.64621 284.81 1.61901C284.806 1.58834 284.806 1.5704 284.806 1.57024C284.806 1.5689 284.806 1.57605 284.804 1.59326C284.803 1.61006 284.8 1.63309 284.796 1.66286C284.779 1.78764 284.739 1.97689 284.67 2.22585C284.533 2.71976 284.3 3.37905 283.975 4.10517C283.316 5.57413 282.331 7.2008 281.107 8.28351L282.432 9.7815C283.956 8.43332 285.084 6.51935 285.8 4.92328C286.161 4.11689 286.43 3.36257 286.597 2.75994C286.68 2.46063 286.743 2.18087 286.777 1.94069C286.794 1.82139 286.806 1.69327 286.806 1.567C286.805 1.46345 286.799 1.26214 286.714 1.05139L284.857 1.79416ZM283.94 2.38629C284.219 2.30871 284.636 2.22004 284.975 2.1956C285.056 2.18976 285.124 2.1883 285.178 2.19003C285.204 2.19088 285.225 2.19243 285.24 2.1941C285.248 2.19493 285.253 2.19572 285.258 2.19636C285.26 2.19667 285.261 2.19694 285.262 2.19713C285.263 2.19731 285.264 2.19742 285.264 2.19741C285.264 2.19741 285.263 2.19728 285.262 2.19699C285.261 2.1967 285.259 2.19624 285.256 2.19557C285.252 2.19425 285.244 2.19195 285.234 2.18829C285.216 2.18128 285.182 2.16723 285.141 2.14155C285.055 2.0874 284.931 1.97774 284.857 1.79417L286.714 1.05139C286.48 0.465478 285.93 0.294868 285.683 0.241889C285.391 0.179281 285.083 0.182668 284.831 0.200766C284.315 0.237984 283.759 0.360687 283.404 0.459258L283.94 2.38629ZM274.986 10.7394C275.903 9.22669 277.233 7.36379 278.809 5.75821C280.399 4.13906 282.16 2.86295 283.931 2.38872L283.413 0.456828C281.144 1.06475 279.08 2.62768 277.382 4.35708C275.671 6.10005 274.251 8.09521 273.276 9.70266L274.986 10.7394ZM268.664 10.0326C270.51 10.0326 272.231 10.4338 273.706 11.1262L274.556 9.31587C272.811 8.49619 270.798 8.03261 268.664 8.03261V10.0326ZM263.416 11.2255C264.935 10.4723 266.731 10.0326 268.664 10.0326V8.03261C266.429 8.03261 264.329 8.54065 262.527 9.43358L263.416 11.2255Z" fill="white" mask="url(#path-13-outside-7_6118_3114)"/>
</svg>
