<svg width="287" height="28" viewBox="0 0 287 28" fill="none" xmlns="http://www.w3.org/2000/svg">
<mask id="path-1-outside-1_6061_704" maskUnits="userSpaceOnUse" x="0" y="0" width="37" height="28" fill="black">
<rect fill="white" width="37" height="28"/>
<path fill-rule="evenodd" clip-rule="evenodd" d="M12.8524 10.3295C11.0158 7.21235 7.30437 2.35058 3.13374 1.23344C2.49959 1.05729 1.18903 0.810681 1.01992 1.23344C0.808539 1.7619 2.28821 6.41229 5.03617 8.84318C6.19678 9.92641 8.30899 11.8026 9.65607 12.7303C8.33331 14.2135 7.55282 16.0404 7.55282 18.0163C7.55282 22.9779 12.474 27.0001 18.5447 27.0001C24.6153 27.0001 29.5365 22.9779 29.5365 18.0163C29.5365 16.0139 28.7349 14.1645 27.3797 12.6707C28.7207 11.6868 30.5858 10.0261 31.6503 9.03251C34.3983 6.60162 35.878 1.95123 35.6666 1.42278C35.4975 1.00001 34.1869 1.24662 33.5528 1.42278C29.5127 2.50493 25.9036 7.10085 24.0121 10.2211C22.4018 9.46497 20.535 9.03261 18.5447 9.03261C16.461 9.03261 14.5127 9.50647 12.8524 10.3295Z"/>
</mask>
<path fill-rule="evenodd" clip-rule="evenodd" d="M12.8524 10.3295C11.0158 7.21235 7.30437 2.35058 3.13374 1.23344C2.49959 1.05729 1.18903 0.810681 1.01992 1.23344C0.808539 1.7619 2.28821 6.41229 5.03617 8.84318C6.19678 9.92641 8.30899 11.8026 9.65607 12.7303C8.33331 14.2135 7.55282 16.0404 7.55282 18.0163C7.55282 22.9779 12.474 27.0001 18.5447 27.0001C24.6153 27.0001 29.5365 22.9779 29.5365 18.0163C29.5365 16.0139 28.7349 14.1645 27.3797 12.6707C28.7207 11.6868 30.5858 10.0261 31.6503 9.03251C34.3983 6.60162 35.878 1.95123 35.6666 1.42278C35.4975 1.00001 34.1869 1.24662 33.5528 1.42278C29.5127 2.50493 25.9036 7.10085 24.0121 10.2211C22.4018 9.46497 20.535 9.03261 18.5447 9.03261C16.461 9.03261 14.5127 9.50647 12.8524 10.3295Z" fill="white"/>
<path d="M3.13374 1.23344L2.86608 2.197L2.875 2.19939L3.13374 1.23344ZM12.8524 10.3295L11.9908 10.8372L12.4631 11.6387L13.2966 11.2255L12.8524 10.3295ZM1.01992 1.23344L0.0914447 0.862054L1.01992 1.23344ZM5.03617 8.84318L5.71849 8.11212L5.70874 8.10302L5.69875 8.09418L5.03617 8.84318ZM9.65607 12.7303L10.4024 13.3959L11.157 12.5497L10.2232 11.9067L9.65607 12.7303ZM27.3797 12.6707L26.7881 11.8645L25.8935 12.5209L26.6391 13.3427L27.3797 12.6707ZM31.6503 9.03251L30.9878 8.28351L30.9778 8.29235L30.968 8.30145L31.6503 9.03251ZM35.6666 1.42278L36.5951 1.05139L36.5951 1.05139L35.6666 1.42278ZM33.5528 1.42278L33.8115 2.38877L33.8204 2.38629L33.5528 1.42278ZM24.0121 10.2211L23.5871 11.1262L24.4011 11.5084L24.8673 10.7394L24.0121 10.2211ZM2.875 2.19939C4.70397 2.6893 6.52123 4.0344 8.14774 5.72482C9.75978 7.40021 11.1016 9.32798 11.9908 10.8372L13.714 9.82191C12.7666 8.2139 11.3344 6.15219 9.58893 4.33812C7.85791 2.53907 5.73414 0.894727 3.39248 0.267497L2.875 2.19939ZM1.9484 1.60484C1.87497 1.78841 1.75069 1.89807 1.66427 1.95222C1.6233 1.9779 1.59006 1.99195 1.57116 1.99896C1.56129 2.00262 1.55381 2.00492 1.54918 2.00624C1.54682 2.00691 1.54504 2.00737 1.54388 2.00766C1.54272 2.00795 1.54211 2.00808 1.54209 2.00808C1.54206 2.00809 1.54255 2.00798 1.54357 2.00779C1.5446 2.00761 1.5461 2.00734 1.54811 2.00703C1.55217 2.00639 1.55792 2.0056 1.56549 2.00477C1.58086 2.0031 1.60156 2.00155 1.62803 2.0007C1.68182 1.99896 1.74953 2.00043 1.83061 2.00627C2.16991 2.0307 2.58681 2.11938 2.8661 2.19696L3.40138 0.269927C3.04653 0.171356 2.49106 0.0486525 1.97427 0.011435C1.72296 -0.00666345 1.41455 -0.0100498 1.12265 0.0525582C0.875649 0.105537 0.325808 0.276147 0.0914447 0.862054L1.9484 1.60484ZM5.69875 8.09418C4.47481 7.01147 3.4893 5.3848 2.8308 3.91584C2.5053 3.18972 2.2724 2.53042 2.13554 2.03652C2.06655 1.78756 2.0269 1.59831 2.0094 1.47353C2.00522 1.44376 2.00275 1.42073 2.00138 1.40393C1.99997 1.38672 2 1.37957 2 1.38091C2 1.38107 2.00009 1.39902 1.99592 1.42968C1.99222 1.45688 1.98157 1.52191 1.9484 1.60484L0.0914447 0.862054C0.0071449 1.0728 0.000170171 1.27412 2.33712e-06 1.37766C-0.000202334 1.50394 0.0120571 1.63206 0.0287908 1.75136C0.0624821 1.99154 0.125227 2.2713 0.208168 2.57061C0.375163 3.17324 0.644298 3.92756 1.00578 4.73395C1.72127 6.33002 2.84957 8.24399 4.3736 9.59217L5.69875 8.09418ZM10.2232 11.9067C8.94378 11.0256 6.87973 9.19594 5.71849 8.11212L4.35386 9.57423C5.51383 10.6569 7.67421 12.5797 9.08892 13.5539L10.2232 11.9067ZM8.55282 18.0163C8.55282 16.3151 9.2225 14.7189 10.4024 13.3959L8.90975 12.0647C7.44413 13.7081 6.55282 15.7658 6.55282 18.0163H8.55282ZM18.5447 26.0001C12.8283 26.0001 8.55282 22.2465 8.55282 18.0163H6.55282C6.55282 23.7093 12.1198 28.0001 18.5447 28.0001V26.0001ZM28.5365 18.0163C28.5365 22.2465 24.2611 26.0001 18.5447 26.0001V28.0001C24.9695 28.0001 30.5365 23.7093 30.5365 18.0163H28.5365ZM26.6391 13.3427C27.8488 14.676 28.5365 16.2925 28.5365 18.0163H30.5365C30.5365 15.7353 29.621 13.6529 28.1203 11.9988L26.6391 13.3427ZM30.968 8.30145C29.9089 9.28996 28.0792 10.9171 26.7881 11.8645L27.9713 13.477C29.3621 12.4565 31.2627 10.7622 32.3326 9.76356L30.968 8.30145ZM34.7381 1.79416C34.7049 1.71124 34.6943 1.64621 34.6906 1.61901C34.6864 1.58834 34.6865 1.5704 34.6865 1.57024C34.6865 1.5689 34.6865 1.57605 34.6851 1.59326C34.6838 1.61006 34.6813 1.63309 34.6771 1.66286C34.6596 1.78764 34.62 1.97689 34.551 2.22585C34.4141 2.71976 34.1812 3.37905 33.8557 4.10517C33.1972 5.57413 32.2117 7.2008 30.9878 8.28351L32.3129 9.7815C33.8369 8.43332 34.9652 6.51935 35.6807 4.92328C36.0422 4.11689 36.3113 3.36257 36.4783 2.75994C36.5613 2.46063 36.624 2.18087 36.6577 1.94069C36.6744 1.82139 36.6867 1.69327 36.6865 1.567C36.6863 1.46345 36.6794 1.26214 36.5951 1.05139L34.7381 1.79416ZM33.8204 2.38629C34.0997 2.30871 34.5166 2.22004 34.8559 2.1956C34.937 2.18976 35.0047 2.1883 35.0585 2.19003C35.0849 2.19088 35.1056 2.19243 35.121 2.1941C35.1286 2.19493 35.1343 2.19572 35.1384 2.19636C35.1404 2.19667 35.1419 2.19694 35.1429 2.19713C35.144 2.19731 35.1444 2.19742 35.1444 2.19741C35.1444 2.19741 35.1438 2.19728 35.1426 2.19699C35.1415 2.1967 35.1397 2.19624 35.1373 2.19557C35.1327 2.19425 35.1252 2.19195 35.1153 2.18829C35.0964 2.18128 35.0632 2.16723 35.0222 2.14155C34.9358 2.0874 34.8115 1.97774 34.7381 1.79417L36.5951 1.05139C36.3607 0.465478 35.8109 0.294868 35.5639 0.241889C35.272 0.179281 34.9635 0.182668 34.7122 0.200766C34.1954 0.237984 33.64 0.360687 33.2851 0.459258L33.8204 2.38629ZM24.8673 10.7394C25.7843 9.22669 27.114 7.36379 28.6903 5.75821C30.2799 4.13906 32.0411 2.86295 33.8115 2.38872L33.294 0.456828C31.0244 1.06475 28.961 2.62768 27.2631 4.35708C25.552 6.10005 24.1314 8.09521 23.157 9.70266L24.8673 10.7394ZM18.5447 10.0326C20.3908 10.0326 22.1122 10.4338 23.5871 11.1262L24.4371 9.31587C22.6914 8.49619 20.6792 8.03261 18.5447 8.03261V10.0326ZM13.2966 11.2255C14.8159 10.4723 16.6118 10.0326 18.5447 10.0326V8.03261C16.3102 8.03261 14.2095 8.54065 12.4083 9.43358L13.2966 11.2255Z" fill="white" mask="url(#path-1-outside-1_6061_704)"/>
<mask id="path-3-outside-2_6061_704" maskUnits="userSpaceOnUse" x="41.6865" y="0" width="37" height="28" fill="black">
<rect fill="white" x="41.6865" width="37" height="28"/>
<path fill-rule="evenodd" clip-rule="evenodd" d="M54.5389 10.3295C52.7023 7.21235 48.9909 2.35058 44.8203 1.23344C44.1861 1.05729 42.8756 0.810681 42.7064 1.23344C42.4951 1.7619 43.9747 6.41229 46.7227 8.84318C47.8833 9.92641 49.9955 11.8026 51.3426 12.7303C50.0198 14.2135 49.2393 16.0404 49.2393 18.0163C49.2393 22.9779 54.1606 27.0001 60.2312 27.0001C66.3018 27.0001 71.223 22.9779 71.223 18.0163C71.223 16.0139 70.4215 14.1645 69.0662 12.6707C70.4072 11.6868 72.2723 10.0261 73.3369 9.03251C76.0848 6.60162 77.5645 1.95123 77.3531 1.42278C77.184 1.00001 75.8734 1.24662 75.2393 1.42278C71.1993 2.50493 67.5901 7.10085 65.6986 10.2211C64.0883 9.46497 62.2215 9.03261 60.2312 9.03261C58.1475 9.03261 56.1993 9.50647 54.5389 10.3295Z"/>
</mask>
<path fill-rule="evenodd" clip-rule="evenodd" d="M54.5389 10.3295C52.7023 7.21235 48.9909 2.35058 44.8203 1.23344C44.1861 1.05729 42.8756 0.810681 42.7064 1.23344C42.4951 1.7619 43.9747 6.41229 46.7227 8.84318C47.8833 9.92641 49.9955 11.8026 51.3426 12.7303C50.0198 14.2135 49.2393 16.0404 49.2393 18.0163C49.2393 22.9779 54.1606 27.0001 60.2312 27.0001C66.3018 27.0001 71.223 22.9779 71.223 18.0163C71.223 16.0139 70.4215 14.1645 69.0662 12.6707C70.4072 11.6868 72.2723 10.0261 73.3369 9.03251C76.0848 6.60162 77.5645 1.95123 77.3531 1.42278C77.184 1.00001 75.8734 1.24662 75.2393 1.42278C71.1993 2.50493 67.5901 7.10085 65.6986 10.2211C64.0883 9.46497 62.2215 9.03261 60.2312 9.03261C58.1475 9.03261 56.1993 9.50647 54.5389 10.3295Z" fill="white"/>
<path d="M44.8203 1.23344L44.5526 2.197L44.5615 2.19939L44.8203 1.23344ZM54.5389 10.3295L53.6774 10.8372L54.1496 11.6387L54.9831 11.2255L54.5389 10.3295ZM42.7064 1.23344L41.778 0.862054L42.7064 1.23344ZM46.7227 8.84318L47.405 8.11212L47.3953 8.10302L47.3853 8.09418L46.7227 8.84318ZM51.3426 12.7303L52.0889 13.3959L52.8435 12.5497L51.9097 11.9067L51.3426 12.7303ZM69.0662 12.6707L68.4746 11.8645L67.5801 12.5209L68.3256 13.3427L69.0662 12.6707ZM73.3369 9.03251L72.6743 8.28351L72.6643 8.29235L72.6545 8.30145L73.3369 9.03251ZM77.3531 1.42278L78.2816 1.05139L78.2816 1.05139L77.3531 1.42278ZM75.2393 1.42278L75.498 2.38877L75.5069 2.38629L75.2393 1.42278ZM65.6986 10.2211L65.2736 11.1262L66.0876 11.5084L66.5538 10.7394L65.6986 10.2211ZM44.5615 2.19939C46.3905 2.6893 48.2078 4.0344 49.8343 5.72482C51.4463 7.40021 52.7882 9.32798 53.6774 10.8372L55.4005 9.82191C54.4531 8.2139 53.0209 6.15219 51.2755 4.33812C49.5444 2.53907 47.4207 0.894727 45.079 0.267497L44.5615 2.19939ZM43.6349 1.60484C43.5615 1.78841 43.4372 1.89807 43.3508 1.95222C43.3098 1.9779 43.2766 1.99195 43.2577 1.99896C43.2478 2.00262 43.2403 2.00492 43.2357 2.00624C43.2333 2.00691 43.2316 2.00737 43.2304 2.00766C43.2292 2.00795 43.2286 2.00808 43.2286 2.00808C43.2286 2.00809 43.2291 2.00798 43.2301 2.00779C43.2311 2.00761 43.2326 2.00734 43.2346 2.00703C43.2387 2.00639 43.2444 2.0056 43.252 2.00477C43.2674 2.0031 43.2881 2.00155 43.3145 2.0007C43.3683 1.99896 43.4361 2.00043 43.5171 2.00627C43.8564 2.0307 44.2733 2.11938 44.5526 2.19696L45.0879 0.269927C44.7331 0.171356 44.1776 0.0486525 43.6608 0.011435C43.4095 -0.00666345 43.1011 -0.0100498 42.8092 0.0525582C42.5622 0.105537 42.0123 0.276147 41.778 0.862054L43.6349 1.60484ZM47.3853 8.09418C46.1613 7.01147 45.1758 5.3848 44.5173 3.91584C44.1918 3.18972 43.9589 2.53042 43.8221 2.03652C43.7531 1.78756 43.7134 1.59831 43.6959 1.47353C43.6917 1.44376 43.6893 1.42073 43.6879 1.40393C43.6865 1.38672 43.6865 1.37957 43.6865 1.38091C43.6865 1.38107 43.6866 1.39902 43.6824 1.42968C43.6787 1.45688 43.6681 1.52191 43.6349 1.60484L41.778 0.862054C41.6937 1.0728 41.6867 1.27412 41.6865 1.37766C41.6863 1.50394 41.6986 1.63206 41.7153 1.75136C41.749 1.99154 41.8118 2.2713 41.8947 2.57061C42.0617 3.17324 42.3308 3.92756 42.6923 4.73395C43.4078 6.33002 44.5361 8.24399 46.0601 9.59217L47.3853 8.09418ZM51.9097 11.9067C50.6303 11.0256 48.5663 9.19594 47.405 8.11212L46.0404 9.57423C47.2004 10.6569 49.3607 12.5797 50.7754 13.5539L51.9097 11.9067ZM50.2393 18.0163C50.2393 16.3151 50.909 14.7189 52.0889 13.3959L50.5963 12.0647C49.1307 13.7081 48.2393 15.7658 48.2393 18.0163H50.2393ZM60.2312 26.0001C54.5148 26.0001 50.2393 22.2465 50.2393 18.0163H48.2393C48.2393 23.7093 53.8063 28.0001 60.2312 28.0001V26.0001ZM70.223 18.0163C70.223 22.2465 65.9476 26.0001 60.2312 26.0001V28.0001C66.656 28.0001 72.223 23.7093 72.223 18.0163H70.223ZM68.3256 13.3427C69.5353 14.676 70.223 16.2925 70.223 18.0163H72.223C72.223 15.7353 71.3076 13.6529 69.8068 11.9988L68.3256 13.3427ZM72.6545 8.30145C71.5954 9.28996 69.7658 10.9171 68.4746 11.8645L69.6578 13.477C71.0486 12.4565 72.9492 10.7622 74.0192 9.76356L72.6545 8.30145ZM76.4246 1.79416C76.3915 1.71124 76.3808 1.64621 76.3771 1.61901C76.3729 1.58834 76.373 1.5704 76.373 1.57024C76.373 1.5689 76.3731 1.57605 76.3717 1.59326C76.3703 1.61006 76.3678 1.63309 76.3636 1.66286C76.3461 1.78764 76.3065 1.97689 76.2375 2.22585C76.1006 2.71976 75.8677 3.37905 75.5422 4.10517C74.8837 5.57413 73.8982 7.2008 72.6743 8.28351L73.9994 9.7815C75.5235 8.43332 76.6518 6.51935 77.3672 4.92328C77.7287 4.11689 77.9979 3.36257 78.1649 2.75994C78.2478 2.46063 78.3105 2.18087 78.3442 1.94069C78.361 1.82139 78.3732 1.69327 78.373 1.567C78.3729 1.46345 78.3659 1.26214 78.2816 1.05139L76.4246 1.79416ZM75.5069 2.38629C75.7862 2.30871 76.2031 2.22004 76.5424 2.1956C76.6235 2.18976 76.6912 2.1883 76.745 2.19003C76.7715 2.19088 76.7922 2.19243 76.8075 2.1941C76.8151 2.19493 76.8209 2.19572 76.8249 2.19636C76.8269 2.19667 76.8284 2.19694 76.8295 2.19713C76.8305 2.19731 76.831 2.19742 76.8309 2.19741C76.8309 2.19741 76.8303 2.19728 76.8291 2.19699C76.828 2.1967 76.8262 2.19624 76.8238 2.19557C76.8192 2.19425 76.8117 2.19195 76.8019 2.18829C76.783 2.18128 76.7497 2.16723 76.7088 2.14155C76.6223 2.0874 76.4981 1.97774 76.4246 1.79417L78.2816 1.05139C78.0472 0.465478 77.4974 0.294868 77.2504 0.241889C76.9585 0.179281 76.6501 0.182668 76.3988 0.200766C75.882 0.237984 75.3265 0.360687 74.9716 0.459258L75.5069 2.38629ZM66.5538 10.7394C67.4708 9.22669 68.8006 7.36379 70.3768 5.75821C71.9665 4.13906 73.7276 2.86295 75.498 2.38872L74.9806 0.456828C72.711 1.06475 70.6475 2.62768 68.9497 4.35708C67.2385 6.10005 65.8179 8.09521 64.8435 9.70266L66.5538 10.7394ZM60.2312 10.0326C62.0774 10.0326 63.7988 10.4338 65.2736 11.1262L66.1236 9.31587C64.3779 8.49619 62.3657 8.03261 60.2312 8.03261V10.0326ZM54.9831 11.2255C56.5025 10.4723 58.2983 10.0326 60.2312 10.0326V8.03261C57.9967 8.03261 55.8961 8.54065 54.0948 9.43358L54.9831 11.2255Z" fill="white" mask="url(#path-3-outside-2_6061_704)"/>
<mask id="path-5-outside-3_6061_704" maskUnits="userSpaceOnUse" x="83.373" y="0" width="37" height="28" fill="black">
<rect fill="white" x="83.373" width="37" height="28"/>
<path fill-rule="evenodd" clip-rule="evenodd" d="M96.2255 10.3295C94.3889 7.21235 90.6774 2.35058 86.5068 1.23344C85.8726 1.05729 84.5621 0.810681 84.393 1.23344C84.1816 1.7619 85.6613 6.41229 88.4092 8.84318C89.5698 9.92641 91.682 11.8026 93.0291 12.7303C91.7064 14.2135 90.9259 16.0404 90.9259 18.0163C90.9259 22.9779 95.8471 27.0001 101.918 27.0001C107.988 27.0001 112.91 22.9779 112.91 18.0163C112.91 16.0139 112.108 14.1645 110.753 12.6707C112.094 11.6868 113.959 10.0261 115.023 9.03251C117.771 6.60162 119.251 1.95123 119.04 1.42278C118.871 1.00001 117.56 1.24662 116.926 1.42278C112.886 2.50493 109.277 7.10085 107.385 10.2211C105.775 9.46497 103.908 9.03261 101.918 9.03261C99.834 9.03261 97.8858 9.50647 96.2255 10.3295Z"/>
</mask>
<path fill-rule="evenodd" clip-rule="evenodd" d="M96.2255 10.3295C94.3889 7.21235 90.6774 2.35058 86.5068 1.23344C85.8726 1.05729 84.5621 0.810681 84.393 1.23344C84.1816 1.7619 85.6613 6.41229 88.4092 8.84318C89.5698 9.92641 91.682 11.8026 93.0291 12.7303C91.7064 14.2135 90.9259 16.0404 90.9259 18.0163C90.9259 22.9779 95.8471 27.0001 101.918 27.0001C107.988 27.0001 112.91 22.9779 112.91 18.0163C112.91 16.0139 112.108 14.1645 110.753 12.6707C112.094 11.6868 113.959 10.0261 115.023 9.03251C117.771 6.60162 119.251 1.95123 119.04 1.42278C118.871 1.00001 117.56 1.24662 116.926 1.42278C112.886 2.50493 109.277 7.10085 107.385 10.2211C105.775 9.46497 103.908 9.03261 101.918 9.03261C99.834 9.03261 97.8858 9.50647 96.2255 10.3295Z" fill="white"/>
<path d="M86.5068 1.23344L86.2391 2.197L86.2481 2.19939L86.5068 1.23344ZM96.2255 10.3295L95.3639 10.8372L95.8361 11.6387L96.6696 11.2255L96.2255 10.3295ZM84.393 1.23344L83.4645 0.862054L84.393 1.23344ZM88.4092 8.84318L89.0915 8.11212L89.0818 8.10302L89.0718 8.09418L88.4092 8.84318ZM93.0291 12.7303L93.7754 13.3959L94.5301 12.5497L93.5963 11.9067L93.0291 12.7303ZM110.753 12.6707L110.161 11.8645L109.267 12.5209L110.012 13.3427L110.753 12.6707ZM115.023 9.03251L114.361 8.28351L114.351 8.29235L114.341 8.30145L115.023 9.03251ZM119.04 1.42278L119.968 1.05139L119.968 1.05139L119.04 1.42278ZM116.926 1.42278L117.185 2.38877L117.193 2.38629L116.926 1.42278ZM107.385 10.2211L106.96 11.1262L107.774 11.5084L108.24 10.7394L107.385 10.2211ZM86.2481 2.19939C88.077 2.6893 89.8943 4.0344 91.5208 5.72482C93.1328 7.40021 94.4747 9.32798 95.3639 10.8372L97.087 9.82191C96.1396 8.2139 94.7075 6.15219 92.962 4.33812C91.231 2.53907 89.1072 0.894727 86.7655 0.267497L86.2481 2.19939ZM85.3214 1.60484C85.248 1.78841 85.1237 1.89807 85.0373 1.95222C84.9963 1.9779 84.9631 1.99195 84.9442 1.99896C84.9343 2.00262 84.9269 2.00492 84.9222 2.00624C84.9199 2.00691 84.9181 2.00737 84.9169 2.00766C84.9158 2.00795 84.9152 2.00808 84.9151 2.00808C84.9151 2.00809 84.9156 2.00798 84.9166 2.00779C84.9176 2.00761 84.9192 2.00734 84.9212 2.00703C84.9252 2.00639 84.931 2.0056 84.9385 2.00477C84.9539 2.0031 84.9746 2.00155 85.0011 2.0007C85.0549 1.99896 85.1226 2.00043 85.2037 2.00627C85.543 2.0307 85.9599 2.11938 86.2391 2.19696L86.7744 0.269927C86.4196 0.171356 85.8641 0.0486525 85.3473 0.011435C85.096 -0.00666345 84.7876 -0.0100498 84.4957 0.0525582C84.2487 0.105537 83.6989 0.276147 83.4645 0.862054L85.3214 1.60484ZM89.0718 8.09418C87.8479 7.01147 86.8624 5.3848 86.2038 3.91584C85.8783 3.18972 85.6454 2.53042 85.5086 2.03652C85.4396 1.78756 85.3999 1.59831 85.3824 1.47353C85.3783 1.44376 85.3758 1.42073 85.3744 1.40393C85.373 1.38672 85.373 1.37957 85.373 1.38091C85.373 1.38107 85.3731 1.39902 85.369 1.42968C85.3653 1.45688 85.3546 1.52191 85.3214 1.60484L83.4645 0.862054C83.3802 1.0728 83.3732 1.27412 83.373 1.37766C83.3728 1.50394 83.3851 1.63206 83.4018 1.75136C83.4355 1.99154 83.4983 2.2713 83.5812 2.57061C83.7482 3.17324 84.0173 3.92756 84.3788 4.73395C85.0943 6.33002 86.2226 8.24399 87.7466 9.59217L89.0718 8.09418ZM93.5963 11.9067C92.3168 11.0256 90.2528 9.19594 89.0915 8.11212L87.7269 9.57423C88.8869 10.6569 91.0473 12.5797 92.462 13.5539L93.5963 11.9067ZM91.9259 18.0163C91.9259 16.3151 92.5955 14.7189 93.7754 13.3959L92.2828 12.0647C90.8172 13.7081 89.9259 15.7658 89.9259 18.0163H91.9259ZM101.918 26.0001C96.2013 26.0001 91.9259 22.2465 91.9259 18.0163H89.9259C89.9259 23.7093 95.4929 28.0001 101.918 28.0001V26.0001ZM111.91 18.0163C111.91 22.2465 107.634 26.0001 101.918 26.0001V28.0001C108.343 28.0001 113.91 23.7093 113.91 18.0163H111.91ZM110.012 13.3427C111.222 14.676 111.91 16.2925 111.91 18.0163H113.91C113.91 15.7353 112.994 13.6529 111.493 11.9988L110.012 13.3427ZM114.341 8.30145C113.282 9.28996 111.452 10.9171 110.161 11.8645L111.344 13.477C112.735 12.4565 114.636 10.7622 115.706 9.76356L114.341 8.30145ZM118.111 1.79416C118.078 1.71124 118.067 1.64621 118.064 1.61901C118.059 1.58834 118.06 1.5704 118.06 1.57024C118.06 1.5689 118.06 1.57605 118.058 1.59326C118.057 1.61006 118.054 1.63309 118.05 1.66286C118.033 1.78764 117.993 1.97689 117.924 2.22585C117.787 2.71976 117.554 3.37905 117.229 4.10517C116.57 5.57413 115.585 7.2008 114.361 8.28351L115.686 9.7815C117.21 8.43332 118.338 6.51935 119.054 4.92328C119.415 4.11689 119.684 3.36257 119.851 2.75994C119.934 2.46063 119.997 2.18087 120.031 1.94069C120.047 1.82139 120.06 1.69327 120.06 1.567C120.059 1.46345 120.052 1.26214 119.968 1.05139L118.111 1.79416ZM117.193 2.38629C117.473 2.30871 117.89 2.22004 118.229 2.1956C118.31 2.18976 118.378 2.1883 118.432 2.19003C118.458 2.19088 118.479 2.19243 118.494 2.1941C118.502 2.19493 118.507 2.19572 118.511 2.19636C118.513 2.19667 118.515 2.19694 118.516 2.19713C118.517 2.19731 118.517 2.19742 118.517 2.19741C118.517 2.19741 118.517 2.19728 118.516 2.19699C118.515 2.1967 118.513 2.19624 118.51 2.19557C118.506 2.19425 118.498 2.19195 118.488 2.18829C118.469 2.18128 118.436 2.16723 118.395 2.14155C118.309 2.0874 118.185 1.97774 118.111 1.79417L119.968 1.05139C119.734 0.465478 119.184 0.294868 118.937 0.241889C118.645 0.179281 118.337 0.182668 118.085 0.200766C117.568 0.237984 117.013 0.360687 116.658 0.459258L117.193 2.38629ZM108.24 10.7394C109.157 9.22669 110.487 7.36379 112.063 5.75821C113.653 4.13906 115.414 2.86295 117.185 2.38872L116.667 0.456828C114.397 1.06475 112.334 2.62768 110.636 4.35708C108.925 6.10005 107.504 8.09521 106.53 9.70266L108.24 10.7394ZM101.918 10.0326C103.764 10.0326 105.485 10.4338 106.96 11.1262L107.81 9.31587C106.064 8.49619 104.052 8.03261 101.918 8.03261V10.0326ZM96.6696 11.2255C98.189 10.4723 99.9849 10.0326 101.918 10.0326V8.03261C99.6832 8.03261 97.5826 8.54065 95.7813 9.43358L96.6696 11.2255Z" fill="white" mask="url(#path-5-outside-3_6061_704)"/>
<mask id="path-7-outside-4_6061_704" maskUnits="userSpaceOnUse" x="125.06" y="0" width="37" height="28" fill="black">
<rect fill="white" x="125.06" width="37" height="28"/>
<path fill-rule="evenodd" clip-rule="evenodd" d="M137.912 10.3295C136.075 7.21235 132.364 2.35058 128.193 1.23344C127.559 1.05729 126.249 0.810681 126.079 1.23344C125.868 1.7619 127.348 6.41229 130.096 8.84318C131.256 9.92641 133.369 11.8026 134.716 12.7303C133.393 14.2135 132.612 16.0404 132.612 18.0163C132.612 22.9779 137.534 27.0001 143.604 27.0001C149.675 27.0001 154.596 22.9779 154.596 18.0163C154.596 16.0139 153.795 14.1645 152.439 12.6707C153.78 11.6868 155.645 10.0261 156.71 9.03251C159.458 6.60162 160.938 1.95123 160.726 1.42278C160.557 1.00001 159.246 1.24662 158.612 1.42278C154.572 2.50493 150.963 7.10085 149.072 10.2211C147.461 9.46497 145.595 9.03261 143.604 9.03261C141.521 9.03261 139.572 9.50647 137.912 10.3295Z"/>
</mask>
<path fill-rule="evenodd" clip-rule="evenodd" d="M137.912 10.3295C136.075 7.21235 132.364 2.35058 128.193 1.23344C127.559 1.05729 126.249 0.810681 126.079 1.23344C125.868 1.7619 127.348 6.41229 130.096 8.84318C131.256 9.92641 133.369 11.8026 134.716 12.7303C133.393 14.2135 132.612 16.0404 132.612 18.0163C132.612 22.9779 137.534 27.0001 143.604 27.0001C149.675 27.0001 154.596 22.9779 154.596 18.0163C154.596 16.0139 153.795 14.1645 152.439 12.6707C153.78 11.6868 155.645 10.0261 156.71 9.03251C159.458 6.60162 160.938 1.95123 160.726 1.42278C160.557 1.00001 159.246 1.24662 158.612 1.42278C154.572 2.50493 150.963 7.10085 149.072 10.2211C147.461 9.46497 145.595 9.03261 143.604 9.03261C141.521 9.03261 139.572 9.50647 137.912 10.3295Z" fill="white"/>
<path d="M128.193 1.23344L127.926 2.197L127.935 2.19939L128.193 1.23344ZM137.912 10.3295L137.05 10.8372L137.523 11.6387L138.356 11.2255L137.912 10.3295ZM126.079 1.23344L125.151 0.862054L126.079 1.23344ZM130.096 8.84318L130.778 8.11212L130.768 8.10302L130.758 8.09418L130.096 8.84318ZM134.716 12.7303L135.462 13.3959L136.217 12.5497L135.283 11.9067L134.716 12.7303ZM152.439 12.6707L151.848 11.8645L150.953 12.5209L151.699 13.3427L152.439 12.6707ZM156.71 9.03251L156.047 8.28351L156.037 8.29235L156.028 8.30145L156.71 9.03251ZM160.726 1.42278L161.655 1.05139L161.655 1.05139L160.726 1.42278ZM158.612 1.42278L158.871 2.38877L158.88 2.38629L158.612 1.42278ZM149.072 10.2211L148.647 11.1262L149.461 11.5084L149.927 10.7394L149.072 10.2211ZM127.935 2.19939C129.764 2.6893 131.581 4.0344 133.207 5.72482C134.819 7.40021 136.161 9.32798 137.05 10.8372L138.774 9.82191C137.826 8.2139 136.394 6.15219 134.649 4.33812C132.917 2.53907 130.794 0.894727 128.452 0.267497L127.935 2.19939ZM127.008 1.60484C126.935 1.78841 126.81 1.89807 126.724 1.95222C126.683 1.9779 126.65 1.99195 126.631 1.99896C126.621 2.00262 126.613 2.00492 126.609 2.00624C126.606 2.00691 126.605 2.00737 126.603 2.00766C126.602 2.00795 126.602 2.00808 126.602 2.00808C126.602 2.00809 126.602 2.00798 126.603 2.00779C126.604 2.00761 126.606 2.00734 126.608 2.00703C126.612 2.00639 126.617 2.0056 126.625 2.00477C126.64 2.0031 126.661 2.00155 126.688 2.0007C126.741 1.99896 126.809 2.00043 126.89 2.00627C127.229 2.0307 127.646 2.11938 127.926 2.19696L128.461 0.269927C128.106 0.171356 127.551 0.0486525 127.034 0.011435C126.783 -0.00666345 126.474 -0.0100498 126.182 0.0525582C125.935 0.105537 125.385 0.276147 125.151 0.862054L127.008 1.60484ZM130.758 8.09418C129.534 7.01147 128.549 5.3848 127.89 3.91584C127.565 3.18972 127.332 2.53042 127.195 2.03652C127.126 1.78756 127.086 1.59831 127.069 1.47353C127.065 1.44376 127.062 1.42073 127.061 1.40393C127.06 1.38672 127.06 1.37957 127.06 1.38091C127.06 1.38107 127.06 1.39902 127.055 1.42968C127.052 1.45688 127.041 1.52191 127.008 1.60484L125.151 0.862054C125.067 1.0728 125.06 1.27412 125.06 1.37766C125.059 1.50394 125.072 1.63206 125.088 1.75136C125.122 1.99154 125.185 2.2713 125.268 2.57061C125.435 3.17324 125.704 3.92756 126.065 4.73395C126.781 6.33002 127.909 8.24399 129.433 9.59217L130.758 8.09418ZM135.283 11.9067C134.003 11.0256 131.939 9.19594 130.778 8.11212L129.413 9.57423C130.573 10.6569 132.734 12.5797 134.148 13.5539L135.283 11.9067ZM133.612 18.0163C133.612 16.3151 134.282 14.7189 135.462 13.3959L133.969 12.0647C132.504 13.7081 131.612 15.7658 131.612 18.0163H133.612ZM143.604 26.0001C137.888 26.0001 133.612 22.2465 133.612 18.0163H131.612C131.612 23.7093 137.179 28.0001 143.604 28.0001V26.0001ZM153.596 18.0163C153.596 22.2465 149.321 26.0001 143.604 26.0001V28.0001C150.029 28.0001 155.596 23.7093 155.596 18.0163H153.596ZM151.699 13.3427C152.908 14.676 153.596 16.2925 153.596 18.0163H155.596C155.596 15.7353 154.681 13.6529 153.18 11.9988L151.699 13.3427ZM156.028 8.30145C154.968 9.28996 153.139 10.9171 151.848 11.8645L153.031 13.477C154.422 12.4565 156.322 10.7622 157.392 9.76356L156.028 8.30145ZM159.798 1.79416C159.765 1.71124 159.754 1.64621 159.75 1.61901C159.746 1.58834 159.746 1.5704 159.746 1.57024C159.746 1.5689 159.746 1.57605 159.745 1.59326C159.743 1.61006 159.741 1.63309 159.737 1.66286C159.719 1.78764 159.68 1.97689 159.611 2.22585C159.474 2.71976 159.241 3.37905 158.915 4.10517C158.257 5.57413 157.271 7.2008 156.047 8.28351L157.372 9.7815C158.897 8.43332 160.025 6.51935 160.74 4.92328C161.102 4.11689 161.371 3.36257 161.538 2.75994C161.621 2.46063 161.684 2.18087 161.717 1.94069C161.734 1.82139 161.746 1.69327 161.746 1.567C161.746 1.46345 161.739 1.26214 161.655 1.05139L159.798 1.79416ZM158.88 2.38629C159.159 2.30871 159.576 2.22004 159.915 2.1956C159.997 2.18976 160.064 2.1883 160.118 2.19003C160.145 2.19088 160.165 2.19243 160.181 2.1941C160.188 2.19493 160.194 2.19572 160.198 2.19636C160.2 2.19667 160.201 2.19694 160.203 2.19713C160.204 2.19731 160.204 2.19742 160.204 2.19741C160.204 2.19741 160.203 2.19728 160.202 2.19699C160.201 2.1967 160.199 2.19624 160.197 2.19557C160.192 2.19425 160.185 2.19195 160.175 2.18829C160.156 2.18128 160.123 2.16723 160.082 2.14155C159.995 2.0874 159.871 1.97774 159.798 1.79417L161.655 1.05139C161.42 0.465478 160.87 0.294868 160.623 0.241889C160.332 0.179281 160.023 0.182668 159.772 0.200766C159.255 0.237984 158.7 0.360687 158.345 0.459258L158.88 2.38629ZM149.927 10.7394C150.844 9.22669 152.174 7.36379 153.75 5.75821C155.34 4.13906 157.101 2.86295 158.871 2.38872L158.354 0.456828C156.084 1.06475 154.021 2.62768 152.323 4.35708C150.612 6.10005 149.191 8.09521 148.217 9.70266L149.927 10.7394ZM143.604 10.0326C145.45 10.0326 147.172 10.4338 148.647 11.1262L149.497 9.31587C147.751 8.49619 145.739 8.03261 143.604 8.03261V10.0326ZM138.356 11.2255C139.875 10.4723 141.671 10.0326 143.604 10.0326V8.03261C141.37 8.03261 139.269 8.54065 137.468 9.43358L138.356 11.2255Z" fill="white" mask="url(#path-7-outside-4_6061_704)"/>
<mask id="path-9-outside-5_6061_704" maskUnits="userSpaceOnUse" x="166.746" y="0" width="37" height="28" fill="black">
<rect fill="white" x="166.746" width="37" height="28"/>
<path fill-rule="evenodd" clip-rule="evenodd" d="M179.599 10.3295C177.762 7.21233 174.05 2.35056 169.88 1.23343C169.246 1.05728 167.935 0.810666 167.766 1.23343C167.555 1.76188 169.034 6.41227 171.782 8.84316C172.943 9.92639 175.055 11.8026 176.402 12.7303C175.079 14.2135 174.299 16.0404 174.299 18.0163C174.299 22.9779 179.22 27 185.291 27C191.361 27 196.283 22.9779 196.283 18.0163C196.283 16.0139 195.481 14.1645 194.126 12.6707C195.467 11.6868 197.332 10.0261 198.396 9.03249C201.144 6.6016 202.624 1.95122 202.413 1.42276C202.244 0.999997 200.933 1.24661 200.299 1.42276C196.259 2.50491 192.65 7.10084 190.758 10.221C189.148 9.46496 187.281 9.03259 185.291 9.03259C183.207 9.03259 181.259 9.50646 179.599 10.3295Z"/>
</mask>
<path d="M169.88 1.23343L169.612 2.19699L169.621 2.19938L169.88 1.23343ZM179.599 10.3295L178.737 10.8371L179.209 11.6387L180.043 11.2255L179.599 10.3295ZM167.766 1.23343L166.838 0.862039L167.766 1.23343ZM171.782 8.84316L172.465 8.11211L172.455 8.103L172.445 8.09416L171.782 8.84316ZM176.402 12.7303L177.148 13.3958L177.903 12.5497L176.969 11.9066L176.402 12.7303ZM194.126 12.6707L193.534 11.8645L192.64 12.5209L193.385 13.3426L194.126 12.6707ZM198.396 9.03249L197.734 8.28349L197.724 8.29233L197.714 8.30144L198.396 9.03249ZM202.413 1.42276L203.341 1.05137V1.05137L202.413 1.42276ZM200.299 1.42276L200.558 2.38875L200.567 2.38628L200.299 1.42276ZM190.758 10.221L190.333 11.1262L191.147 11.5084L191.613 10.7394L190.758 10.221ZM169.621 2.19938C171.45 2.68928 173.267 4.03438 174.894 5.72481C176.506 7.4002 177.848 9.32796 178.737 10.8371L180.46 9.82189C179.513 8.21389 178.081 6.15218 176.335 4.3381C174.604 2.53906 172.48 0.894712 170.139 0.267482L169.621 2.19938ZM168.694 1.60482C168.621 1.78839 168.497 1.89806 168.41 1.95221C168.369 1.97788 168.336 1.99194 168.317 1.99895C168.307 2.00261 168.3 2.00491 168.295 2.00622C168.293 2.0069 168.291 2.00736 168.29 2.00764C168.289 2.00793 168.288 2.00806 168.288 2.00807C168.288 2.00807 168.289 2.00797 168.29 2.00778C168.291 2.00759 168.292 2.00733 168.294 2.00701C168.298 2.00637 168.304 2.00558 168.312 2.00476C168.327 2.00309 168.348 2.00153 168.374 2.00068C168.428 1.99895 168.496 2.00041 168.577 2.00625C168.916 2.03069 169.333 2.11937 169.612 2.19695L170.147 0.269912C169.793 0.171341 169.237 0.0486371 168.72 0.0114196C168.469 -0.00667882 168.161 -0.0100651 167.869 0.0525428C167.622 0.105522 167.072 0.276131 166.838 0.862039L168.694 1.60482ZM172.445 8.09416C171.221 7.01145 170.235 5.38479 169.577 3.91583C169.251 3.1897 169.018 2.53041 168.882 2.0365C168.813 1.78754 168.773 1.5983 168.755 1.47352C168.751 1.44374 168.749 1.42072 168.747 1.40392C168.746 1.3867 168.746 1.37955 168.746 1.38089C168.746 1.38106 168.746 1.399 168.742 1.42966C168.738 1.45687 168.728 1.52189 168.694 1.60482L166.838 0.862039C166.753 1.07279 166.746 1.2741 166.746 1.37765C166.746 1.50392 166.758 1.63205 166.775 1.75134C166.809 1.99153 166.871 2.27129 166.954 2.57059C167.121 3.17323 167.39 3.92755 167.752 4.73394C168.467 6.33001 169.596 8.24398 171.12 9.59216L172.445 8.09416ZM176.969 11.9066C175.69 11.0256 173.626 9.19592 172.465 8.11211L171.1 9.57422C172.26 10.6569 174.42 12.5797 175.835 13.5539L176.969 11.9066ZM175.299 18.0163C175.299 16.3151 175.969 14.7189 177.148 13.3958L175.656 12.0647C174.19 13.7081 173.299 15.7657 173.299 18.0163H175.299ZM185.291 26C179.574 26 175.299 22.2465 175.299 18.0163H173.299C173.299 23.7093 178.866 28 185.291 28V26ZM195.283 18.0163C195.283 22.2465 191.007 26 185.291 26V28C191.716 28 197.283 23.7093 197.283 18.0163H195.283ZM193.385 13.3426C194.595 14.676 195.283 16.2924 195.283 18.0163H197.283C197.283 15.7353 196.367 13.6529 194.866 11.9988L193.385 13.3426ZM197.714 8.30144C196.655 9.28995 194.825 10.9171 193.534 11.8645L194.717 13.477C196.108 12.4564 198.009 10.7622 199.079 9.76355L197.714 8.30144ZM201.484 1.79415C201.451 1.71122 201.44 1.6462 201.437 1.61899C201.433 1.58833 201.433 1.57039 201.433 1.57022C201.433 1.56888 201.433 1.57603 201.431 1.59325C201.43 1.61005 201.427 1.63307 201.423 1.66285C201.406 1.78763 201.366 1.97687 201.297 2.22583C201.16 2.71974 200.927 3.37903 200.602 4.10516C199.943 5.57412 198.958 7.20078 197.734 8.28349L199.059 9.78149C200.583 8.43331 201.711 6.51934 202.427 4.92327C202.788 4.11688 203.057 3.36256 203.224 2.75992C203.307 2.46062 203.37 2.18086 203.404 1.94067C203.421 1.82138 203.433 1.69325 203.433 1.56698C203.432 1.46344 203.425 1.26212 203.341 1.05137L201.484 1.79415ZM200.567 2.38628C200.846 2.3087 201.263 2.22002 201.602 2.19558C201.683 2.18975 201.751 2.18828 201.805 2.19001C201.831 2.19086 201.852 2.19242 201.867 2.19409C201.875 2.19491 201.88 2.19571 201.884 2.19634C201.886 2.19666 201.888 2.19692 201.889 2.19711C201.89 2.1973 201.891 2.1974 201.891 2.1974C201.89 2.19739 201.89 2.19726 201.889 2.19697C201.888 2.19669 201.886 2.19623 201.883 2.19556C201.879 2.19424 201.871 2.19194 201.861 2.18828C201.843 2.18127 201.809 2.16722 201.768 2.14154C201.682 2.08739 201.558 1.97772 201.484 1.79415L203.341 1.05137C203.107 0.465462 202.557 0.294853 202.31 0.241874C202.018 0.179266 201.71 0.182652 201.458 0.200751C200.942 0.237968 200.386 0.360672 200.031 0.459242L200.567 2.38628ZM191.613 10.7394C192.53 9.22668 193.86 7.36378 195.436 5.7582C197.026 4.13904 198.787 2.86293 200.558 2.38871L200.04 0.456813C197.771 1.06474 195.707 2.62766 194.009 4.35706C192.298 6.10004 190.878 8.0952 189.903 9.70265L191.613 10.7394ZM185.291 10.0326C187.137 10.0326 188.858 10.4337 190.333 11.1262L191.183 9.31585C189.437 8.49618 187.425 8.03259 185.291 8.03259V10.0326ZM180.043 11.2255C181.562 10.4723 183.358 10.0326 185.291 10.0326V8.03259C183.056 8.03259 180.956 8.54063 179.154 9.43357L180.043 11.2255Z" fill="white" mask="url(#path-9-outside-5_6061_704)"/>
<mask id="path-11-outside-6_6061_704" maskUnits="userSpaceOnUse" x="208.433" y="0" width="37" height="28" fill="black">
<rect fill="white" x="208.433" width="37" height="28"/>
<path fill-rule="evenodd" clip-rule="evenodd" d="M221.285 10.3295C219.448 7.21233 215.737 2.35056 211.566 1.23343C210.932 1.05728 209.622 0.810666 209.453 1.23343C209.241 1.76188 210.721 6.41227 213.469 8.84316C214.629 9.92639 216.742 11.8026 218.089 12.7303C216.766 14.2135 215.985 16.0404 215.985 18.0163C215.985 22.9779 220.907 27 226.977 27C233.048 27 237.969 22.9779 237.969 18.0163C237.969 16.0139 237.168 14.1645 235.812 12.6707C237.153 11.6868 239.018 10.0261 240.083 9.03249C242.831 6.6016 244.311 1.95122 244.099 1.42276C243.93 0.999997 242.62 1.24661 241.985 1.42276C237.945 2.50491 234.336 7.10084 232.445 10.221C230.834 9.46496 228.968 9.03259 226.977 9.03259C224.894 9.03259 222.945 9.50646 221.285 10.3295Z"/>
</mask>
<path d="M211.566 1.23343L211.299 2.19699L211.308 2.19938L211.566 1.23343ZM221.285 10.3295L220.423 10.8371L220.896 11.6387L221.729 11.2255L221.285 10.3295ZM209.453 1.23343L208.524 0.862039L209.453 1.23343ZM213.469 8.84316L214.151 8.11211L214.141 8.103L214.131 8.09416L213.469 8.84316ZM218.089 12.7303L218.835 13.3958L219.59 12.5497L218.656 11.9066L218.089 12.7303ZM235.812 12.6707L235.221 11.8645L234.326 12.5209L235.072 13.3426L235.812 12.6707ZM240.083 9.03249L239.42 8.28349L239.41 8.29233L239.401 8.30144L240.083 9.03249ZM244.099 1.42276L245.028 1.05137V1.05137L244.099 1.42276ZM241.985 1.42276L242.244 2.38875L242.253 2.38628L241.985 1.42276ZM232.445 10.221L232.02 11.1262L232.834 11.5084L233.3 10.7394L232.445 10.221ZM211.308 2.19938C213.137 2.68928 214.954 4.03438 216.58 5.72481C218.192 7.4002 219.534 9.32796 220.423 10.8371L222.147 9.82189C221.199 8.21389 219.767 6.15218 218.022 4.3381C216.291 2.53906 214.167 0.894712 211.825 0.267482L211.308 2.19938ZM210.381 1.60482C210.308 1.78839 210.183 1.89806 210.097 1.95221C210.056 1.97788 210.023 1.99194 210.004 1.99895C209.994 2.00261 209.986 2.00491 209.982 2.00622C209.979 2.0069 209.978 2.00736 209.976 2.00764C209.975 2.00793 209.975 2.00806 209.975 2.00807C209.975 2.00807 209.975 2.00797 209.976 2.00778C209.977 2.00759 209.979 2.00733 209.981 2.00701C209.985 2.00637 209.991 2.00558 209.998 2.00476C210.013 2.00309 210.034 2.00153 210.061 2.00068C210.114 1.99895 210.182 2.00041 210.263 2.00625C210.603 2.03069 211.019 2.11937 211.299 2.19695L211.834 0.269912C211.479 0.171341 210.924 0.0486371 210.407 0.0114196C210.156 -0.00667882 209.847 -0.0100651 209.555 0.0525428C209.308 0.105522 208.758 0.276131 208.524 0.862039L210.381 1.60482ZM214.131 8.09416C212.907 7.01145 211.922 5.38479 211.263 3.91583C210.938 3.1897 210.705 2.53041 210.568 2.0365C210.499 1.78754 210.46 1.5983 210.442 1.47352C210.438 1.44374 210.435 1.42072 210.434 1.40392C210.433 1.3867 210.433 1.37955 210.433 1.38089C210.433 1.38106 210.433 1.399 210.429 1.42966C210.425 1.45687 210.414 1.52189 210.381 1.60482L208.524 0.862039C208.44 1.07279 208.433 1.2741 208.433 1.37765C208.432 1.50392 208.445 1.63205 208.461 1.75134C208.495 1.99153 208.558 2.27129 208.641 2.57059C208.808 3.17323 209.077 3.92755 209.438 4.73394C210.154 6.33001 211.282 8.24398 212.806 9.59216L214.131 8.09416ZM218.656 11.9066C217.376 11.0256 215.312 9.19592 214.151 8.11211L212.786 9.57422C213.946 10.6569 216.107 12.5797 217.522 13.5539L218.656 11.9066ZM216.985 18.0163C216.985 16.3151 217.655 14.7189 218.835 13.3958L217.342 12.0647C215.877 13.7081 214.985 15.7657 214.985 18.0163H216.985ZM226.977 26C221.261 26 216.985 22.2465 216.985 18.0163H214.985C214.985 23.7093 220.552 28 226.977 28V26ZM236.969 18.0163C236.969 22.2465 232.694 26 226.977 26V28C233.402 28 238.969 23.7093 238.969 18.0163H236.969ZM235.072 13.3426C236.281 14.676 236.969 16.2924 236.969 18.0163H238.969C238.969 15.7353 238.054 13.6529 236.553 11.9988L235.072 13.3426ZM239.401 8.30144C238.342 9.28995 236.512 10.9171 235.221 11.8645L236.404 13.477C237.795 12.4564 239.695 10.7622 240.765 9.76355L239.401 8.30144ZM243.171 1.79415C243.138 1.71122 243.127 1.6462 243.123 1.61899C243.119 1.58833 243.119 1.57039 243.119 1.57022C243.119 1.56888 243.119 1.57603 243.118 1.59325C243.116 1.61005 243.114 1.63307 243.11 1.66285C243.092 1.78763 243.053 1.97687 242.984 2.22583C242.847 2.71974 242.614 3.37903 242.288 4.10516C241.63 5.57412 240.644 7.20078 239.42 8.28349L240.746 9.78149C242.27 8.43331 243.398 6.51934 244.113 4.92327C244.475 4.11688 244.744 3.36256 244.911 2.75992C244.994 2.46062 245.057 2.18086 245.09 1.94067C245.107 1.82138 245.119 1.69325 245.119 1.56698C245.119 1.46344 245.112 1.26212 245.028 1.05137L243.171 1.79415ZM242.253 2.38628C242.532 2.3087 242.949 2.22002 243.289 2.19558C243.37 2.18975 243.437 2.18828 243.491 2.19001C243.518 2.19086 243.538 2.19242 243.554 2.19409C243.561 2.19491 243.567 2.19571 243.571 2.19634C243.573 2.19666 243.575 2.19692 243.576 2.19711C243.577 2.1973 243.577 2.1974 243.577 2.1974C243.577 2.19739 243.576 2.19726 243.575 2.19697C243.574 2.19669 243.572 2.19623 243.57 2.19556C243.565 2.19424 243.558 2.19194 243.548 2.18828C243.529 2.18127 243.496 2.16722 243.455 2.14154C243.368 2.08739 243.244 1.97772 243.171 1.79415L245.028 1.05137C244.793 0.465462 244.243 0.294853 243.996 0.241874C243.705 0.179266 243.396 0.182652 243.145 0.200751C242.628 0.237968 242.073 0.360672 241.718 0.459242L242.253 2.38628ZM233.3 10.7394C234.217 9.22668 235.547 7.36378 237.123 5.7582C238.713 4.13904 240.474 2.86293 242.244 2.38871L241.727 0.456813C239.457 1.06474 237.394 2.62766 235.696 4.35706C233.985 6.10004 232.564 8.0952 231.59 9.70265L233.3 10.7394ZM226.977 10.0326C228.823 10.0326 230.545 10.4337 232.02 11.1262L232.87 9.31585C231.124 8.49618 229.112 8.03259 226.977 8.03259V10.0326ZM221.729 11.2255C223.249 10.4723 225.044 10.0326 226.977 10.0326V8.03259C224.743 8.03259 222.642 8.54063 220.841 9.43357L221.729 11.2255Z" fill="white" mask="url(#path-11-outside-6_6061_704)"/>
<mask id="path-13-outside-7_6061_704" maskUnits="userSpaceOnUse" x="250.119" y="0" width="37" height="28" fill="black">
<rect fill="white" x="250.119" width="37" height="28"/>
<path fill-rule="evenodd" clip-rule="evenodd" d="M262.972 10.3295C261.135 7.21233 257.424 2.35056 253.253 1.23343C252.619 1.05728 251.308 0.810666 251.139 1.23343C250.928 1.76188 252.407 6.41227 255.155 8.84316C256.316 9.92639 258.428 11.8026 259.775 12.7303C258.452 14.2135 257.672 16.0404 257.672 18.0163C257.672 22.9779 262.593 27 268.664 27C274.734 27 279.656 22.9779 279.656 18.0163C279.656 16.0139 278.854 14.1645 277.499 12.6707C278.84 11.6868 280.705 10.0261 281.769 9.03249C284.517 6.6016 285.997 1.95122 285.786 1.42276C285.617 0.999997 284.306 1.24661 283.672 1.42276C279.632 2.50491 276.023 7.10084 274.131 10.221C272.521 9.46496 270.654 9.03259 268.664 9.03259C266.58 9.03259 264.632 9.50646 262.972 10.3295Z"/>
</mask>
<path d="M253.253 1.23343L252.985 2.19699L252.994 2.19938L253.253 1.23343ZM262.972 10.3295L262.11 10.8371L262.582 11.6387L263.416 11.2255L262.972 10.3295ZM251.139 1.23343L250.211 0.862039L251.139 1.23343ZM255.155 8.84316L255.838 8.11211L255.828 8.103L255.818 8.09416L255.155 8.84316ZM259.775 12.7303L260.522 13.3958L261.276 12.5497L260.342 11.9066L259.775 12.7303ZM277.499 12.6707L276.907 11.8645L276.013 12.5209L276.758 13.3426L277.499 12.6707ZM281.769 9.03249L281.107 8.28349L281.097 8.29233L281.087 8.30144L281.769 9.03249ZM285.786 1.42276L286.714 1.05137V1.05137L285.786 1.42276ZM283.672 1.42276L283.931 2.38875L283.94 2.38628L283.672 1.42276ZM274.131 10.221L273.706 11.1262L274.52 11.5084L274.986 10.7394L274.131 10.221ZM252.994 2.19938C254.823 2.68928 256.64 4.03438 258.267 5.72481C259.879 7.4002 261.221 9.32796 262.11 10.8371L263.833 9.82189C262.886 8.21389 261.454 6.15218 259.708 4.3381C257.977 2.53906 255.853 0.894712 253.512 0.267482L252.994 2.19938ZM252.068 1.60482C251.994 1.78839 251.87 1.89806 251.783 1.95221C251.742 1.97788 251.709 1.99194 251.69 1.99895C251.68 2.00261 251.673 2.00491 251.668 2.00622C251.666 2.0069 251.664 2.00736 251.663 2.00764C251.662 2.00793 251.661 2.00806 251.661 2.00807C251.661 2.00807 251.662 2.00797 251.663 2.00778C251.664 2.00759 251.665 2.00733 251.667 2.00701C251.671 2.00637 251.677 2.00558 251.685 2.00476C251.7 2.00309 251.721 2.00153 251.747 2.00068C251.801 1.99895 251.869 2.00041 251.95 2.00625C252.289 2.03069 252.706 2.11937 252.985 2.19695L253.521 0.269912C253.166 0.171341 252.61 0.0486371 252.093 0.0114196C251.842 -0.00667882 251.534 -0.0100651 251.242 0.0525428C250.995 0.105522 250.445 0.276131 250.211 0.862039L252.068 1.60482ZM255.818 8.09416C254.594 7.01145 253.608 5.38479 252.95 3.91583C252.624 3.1897 252.392 2.53041 252.255 2.0365C252.186 1.78754 252.146 1.5983 252.129 1.47352C252.124 1.44374 252.122 1.42072 252.121 1.40392C252.119 1.3867 252.119 1.37955 252.119 1.38089C252.119 1.38106 252.119 1.399 252.115 1.42966C252.111 1.45687 252.101 1.52189 252.068 1.60482L250.211 0.862039C250.126 1.07279 250.119 1.2741 250.119 1.37765C250.119 1.50392 250.131 1.63205 250.148 1.75134C250.182 1.99153 250.244 2.27129 250.327 2.57059C250.494 3.17323 250.763 3.92755 251.125 4.73394C251.84 6.33001 252.969 8.24398 254.493 9.59216L255.818 8.09416ZM260.342 11.9066C259.063 11.0256 256.999 9.19592 255.838 8.11211L254.473 9.57422C255.633 10.6569 257.793 12.5797 259.208 13.5539L260.342 11.9066ZM258.672 18.0163C258.672 16.3151 259.342 14.7189 260.522 13.3958L259.029 12.0647C257.563 13.7081 256.672 15.7657 256.672 18.0163H258.672ZM268.664 26C262.947 26 258.672 22.2465 258.672 18.0163H256.672C256.672 23.7093 262.239 28 268.664 28V26ZM278.656 18.0163C278.656 22.2465 274.38 26 268.664 26V28C275.089 28 280.656 23.7093 280.656 18.0163H278.656ZM276.758 13.3426C277.968 14.676 278.656 16.2924 278.656 18.0163H280.656C280.656 15.7353 279.74 13.6529 278.239 11.9988L276.758 13.3426ZM281.087 8.30144C280.028 9.28995 278.198 10.9171 276.907 11.8645L278.09 13.477C279.481 12.4564 281.382 10.7622 282.452 9.76355L281.087 8.30144ZM284.857 1.79415C284.824 1.71122 284.813 1.6462 284.81 1.61899C284.806 1.58833 284.806 1.57039 284.806 1.57022C284.806 1.56888 284.806 1.57603 284.804 1.59325C284.803 1.61005 284.8 1.63307 284.796 1.66285C284.779 1.78763 284.739 1.97687 284.67 2.22583C284.533 2.71974 284.3 3.37903 283.975 4.10516C283.316 5.57412 282.331 7.20078 281.107 8.28349L282.432 9.78149C283.956 8.43331 285.084 6.51934 285.8 4.92327C286.161 4.11688 286.43 3.36256 286.597 2.75992C286.68 2.46062 286.743 2.18086 286.777 1.94067C286.794 1.82138 286.806 1.69325 286.806 1.56698C286.805 1.46344 286.799 1.26212 286.714 1.05137L284.857 1.79415ZM283.94 2.38628C284.219 2.3087 284.636 2.22002 284.975 2.19558C285.056 2.18975 285.124 2.18828 285.178 2.19001C285.204 2.19086 285.225 2.19242 285.24 2.19409C285.248 2.19491 285.253 2.19571 285.258 2.19634C285.26 2.19666 285.261 2.19692 285.262 2.19711C285.263 2.1973 285.264 2.1974 285.264 2.1974C285.264 2.19739 285.263 2.19726 285.262 2.19697C285.261 2.19669 285.259 2.19623 285.256 2.19556C285.252 2.19424 285.244 2.19194 285.234 2.18828C285.216 2.18127 285.182 2.16722 285.141 2.14154C285.055 2.08739 284.931 1.97772 284.857 1.79415L286.714 1.05137C286.48 0.465462 285.93 0.294853 285.683 0.241874C285.391 0.179266 285.083 0.182652 284.831 0.200751C284.315 0.237968 283.759 0.360672 283.404 0.459242L283.94 2.38628ZM274.986 10.7394C275.903 9.22668 277.233 7.36378 278.809 5.7582C280.399 4.13904 282.16 2.86293 283.931 2.38871L283.413 0.456813C281.144 1.06474 279.08 2.62766 277.382 4.35706C275.671 6.10004 274.251 8.0952 273.276 9.70265L274.986 10.7394ZM268.664 10.0326C270.51 10.0326 272.231 10.4337 273.706 11.1262L274.556 9.31585C272.811 8.49618 270.798 8.03259 268.664 8.03259V10.0326ZM263.416 11.2255C264.935 10.4723 266.731 10.0326 268.664 10.0326V8.03259C266.429 8.03259 264.329 8.54063 262.527 9.43357L263.416 11.2255Z" fill="white" mask="url(#path-13-outside-7_6061_704)"/>
</svg>
