<svg width="76" height="57" viewBox="0 0 76 57" fill="none" xmlns="http://www.w3.org/2000/svg">
<ellipse cx="38.4406" cy="37.2205" rx="24.0428" ry="19.6504" fill="#3F3A3A"/>
<path d="M71.2683 0.924651C60.9114 3.69882 51.8491 17.0303 48.6125 23.3492C49.9226 24.6592 52.9588 27.2793 54.6233 27.2793C56.2878 27.2793 63.6393 20.8062 67.107 17.5697C73.1177 12.2525 76.3543 2.08056 75.8919 0.924651C75.522 -7.37011e-05 72.6554 0.539349 71.2683 0.924651Z" fill="#3F3A3A"/>
<path d="M4.73177 0.510588C15.0887 3.28476 24.151 16.6162 27.3875 22.9352C26.0775 24.2452 23.0413 26.8652 21.3768 26.8652C19.7123 26.8652 12.3607 20.3921 8.89303 17.1556C2.88232 11.8384 -0.354214 1.66649 0.108149 0.510588C0.478037 -0.414136 3.34468 0.125286 4.73177 0.510588Z" fill="#3F3A3A"/>
</svg>
