<svg width="13" height="10" viewBox="0 0 13 10" fill="none" xmlns="http://www.w3.org/2000/svg">
<path d="M12.4725 0.0317926C12.0968 -0.209411 9.6439 0.904764 8.15493 3.9597C7.59088 3.66191 6.87469 3.55151 6.25313 3.55151C5.63157 3.55151 4.92002 3.67397 4.3736 3.96156C2.88463 0.904764 0.430844 -0.208483 0.0551224 0.0317926C-0.196286 0.192286 0.34735 2.63308 3.04327 4.87813C3.04327 4.87813 3.04234 4.87906 3.04141 4.87999C2.60539 5.31601 2.13782 6.17228 2.14525 7.06381C2.15916 8.62978 3.73441 10 6.24571 10C8.89246 10 10.3072 8.62421 10.3508 7.08422C10.3759 6.18991 10.0456 5.46537 9.47691 4.8837C12.1793 2.63772 12.7239 0.192286 12.4725 0.0317926Z" fill="#FFE050"/>
</svg>
