<svg width="177" height="122" viewBox="0 0 177 122" fill="none" xmlns="http://www.w3.org/2000/svg">
<path d="M137.944 42.9929C137.581 42.9929 137.226 43.0372 136.865 43.0465C132.268 18.4392 113.39 0 90.7903 0C74.3628 0 59.9099 9.73244 51.4759 24.4884C50.7462 24.4558 50.0306 24.3789 49.2939 24.3789C22.0687 24.3789 0 46.1562 0 73.0434C0 96.5994 16.9566 116.244 39.4752 120.736L39.3587 121.708H137.944C148.33 121.628 158.263 117.446 165.579 110.074C172.895 102.702 177 92.7365 177 82.3504C177 71.9643 172.895 61.9992 165.579 54.6269C158.263 47.2546 148.33 43.0728 137.944 42.9929Z" fill="white" fill-opacity="0.9"/>
</svg>
