<svg width="99" height="66" viewBox="0 0 99 66" fill="none" xmlns="http://www.w3.org/2000/svg">
<path d="M19.3072 22.415C22.0207 9.61109 33.3961 0 47.0265 0C60.6352 0 71.9927 9.57977 74.7295 22.351C75.4116 22.287 76.0937 22.2461 76.7963 22.2461C82.6077 22.2461 88.181 24.551 92.2902 28.6537C96.3994 32.7564 98.7079 38.3209 98.7079 44.123C98.7079 49.9252 96.3994 55.4897 92.2902 59.5924C88.181 63.6951 82.6077 66 76.7963 66H21.9116C16.1003 66 10.527 63.6951 6.41776 59.5924C2.30853 55.4897 -1.01414e-05 49.9252 -1.01414e-05 44.123C-1.01414e-05 32.9224 8.43666 23.7008 19.3072 22.415ZM57.5342 54.5609C57.2995 54.6536 57.058 54.7339 56.8206 54.8211H57.6924C57.6433 54.7312 57.5833 54.6481 57.5355 54.5596L57.5342 54.5609Z" fill="#FFCE50"/>
</svg>
