<svg width="125" height="103" viewBox="0 0 125 103" fill="none" xmlns="http://www.w3.org/2000/svg">
<ellipse cx="62.7697" cy="76.4728" rx="61.8856" ry="25.6383" fill="#A68166"/>
<ellipse cx="61.8856" cy="57.0232" rx="61.8856" ry="27.4065" fill="#FFDADB"/>
<ellipse cx="62.7697" cy="37.5734" rx="61.8856" ry="25.6383" fill="#A68166"/>
<path d="M77.5204 19.2363C77.8616 27.6237 69.7216 31.216 59.517 31.6312C49.3124 32.0464 40.9075 29.1272 40.5662 20.7398C40.225 12.3525 48.056 1.16685 58.2607 0.751671C68.4653 0.336492 77.1792 10.849 77.5204 19.2363Z" fill="#FFDADB"/>
<path d="M100.483 92.3068C99.5616 94.8152 96.73 94.8803 93.6781 93.7596C90.6263 92.6388 88.5098 90.7565 89.431 88.2481C90.3522 85.7397 94.0177 83.4037 97.0696 84.5244C100.122 85.6452 101.404 89.7984 100.483 92.3068Z" fill="#FFDADB"/>
<path d="M39.7836 19.4496C26.6698 25.6382 2.56386 38.6342 11.051 41.1096C21.66 44.2039 105.648 7.07249 85.7558 22.5439C69.8423 34.921 46.1195 43.3198 36.2473 45.9721" stroke="#E2B2B2" stroke-width="3" stroke-linecap="round"/>
<path d="M87.2596 48.1306C95.8822 44.5338 111.78 36.8794 106.39 35.0362C99.6535 32.7322 44.5039 54.1566 57.7623 44.7848C68.3691 37.2875 83.8849 32.5807 90.3169 31.1644" stroke="#E2B2B2" stroke-width="3" stroke-linecap="round"/>
</svg>
