<svg width="375" height="85" viewBox="0 0 375 85" fill="none" xmlns="http://www.w3.org/2000/svg">
<path fill-rule="evenodd" clip-rule="evenodd" d="M0 17.498L15.625 11.8728C31.25 6.24768 62.5 -5.00265 93.75 2.49757C125 9.99779 156.25 36.2486 187.5 49.374C218.75 62.4993 250 62.4993 281.25 56.8742C312.5 51.249 343.75 39.9987 359.375 34.3735L375 28.7483V85H359.375C343.75 85 312.5 85 281.25 85C250 85 218.75 85 187.5 85C156.25 85 125 85 93.75 85C62.5 85 31.25 85 15.625 85H0V17.498Z" fill="#FCF3E4"/>
</svg>
