<svg width="70" height="134" viewBox="0 0 70 134" fill="none" xmlns="http://www.w3.org/2000/svg">
<ellipse cx="26" cy="124.5" rx="26" ry="9.5" fill="#649661"/>
<rect x="47.3331" y="7.22266" width="21.3851" height="7.63047" transform="rotate(47.0391 47.3331 7.22266)" fill="#E8B9C2"/>
<path d="M62.5309 7.99148C56.8253 1.86468 50.0217 4.92596 47.3331 7.22244L61.907 22.8724C64.4923 20.465 68.2364 14.1183 62.5309 7.99148Z" fill="#665B5E"/>
<rect x="25.7688" y="41.9149" width="1.645" height="3.39132" transform="rotate(47.0391 25.7688 41.9149)" fill="#665B5E"/>
<path d="M56.3229 28.0725L41.749 12.4225L22.3456 39.483L28.7917 46.4051L56.3229 28.0725Z" fill="#FFEFF2"/>
<rect x="46.8644" y="22.2699" width="0.822502" height="5.93481" transform="rotate(47.0391 46.8644 22.2699)" fill="#F5CED5"/>
<path d="M20 47.5V114" stroke="#665B5E" stroke-width="5" stroke-linecap="round"/>
<path d="M5 121L19.5 114L34.5 121" stroke="#665B5E" stroke-width="5" stroke-linecap="round"/>
<path d="M20 124.5V116" stroke="#665B5E" stroke-width="5" stroke-linecap="round"/>
<path d="M21.7045 34L20 48H35" stroke="#665B5E" stroke-width="3" stroke-linecap="round"/>
<path d="M22 34L35 47" stroke="#665B5E" stroke-width="3" stroke-linecap="round"/>
</svg>
