<svg width="129" height="89" viewBox="0 0 129 89" fill="none" xmlns="http://www.w3.org/2000/svg">
<path d="M28.4644 31.3338C28.7294 31.3338 28.9877 31.3661 29.251 31.3729C32.6013 13.4387 46.3595 0 62.8308 0C74.8034 0 85.3369 7.09313 91.4837 17.8475C92.0155 17.8237 92.537 17.7677 93.0739 17.7677C112.916 17.7677 129 33.6393 129 53.235C129 70.403 116.642 84.72 100.23 87.9939L100.315 88.7024H28.4644C20.8951 88.6441 13.6556 85.5964 8.32379 80.2234C2.99196 74.8503 3.40035e-06 67.5876 3.40035e-06 60.0181C3.40035e-06 52.4486 2.99196 45.1859 8.32379 39.8128C13.6556 34.4398 20.8951 31.3921 28.4644 31.3338Z" fill="white" fill-opacity="0.9"/>
</svg>
