<svg width="80" height="55" viewBox="0 0 80 55" fill="none" xmlns="http://www.w3.org/2000/svg">
<path d="M62.3477 19.4318C62.1833 19.4318 62.0232 19.4518 61.8598 19.4561C59.7821 8.3341 51.2499 0 41.0351 0C33.6103 0 27.0779 4.39884 23.2659 11.0682C22.9361 11.0535 22.6127 11.0187 22.2797 11.0187C9.97457 11.0187 0 20.8616 0 33.014C0 43.6608 7.664 52.5396 17.8419 54.5699L17.7892 55.0092H62.3477C67.0418 54.9731 71.5314 53.083 74.838 49.7509C78.1445 46.4188 80 41.9148 80 37.2205C80 32.5262 78.1445 28.0222 74.838 24.6901C71.5314 21.358 67.0418 19.4679 62.3477 19.4318Z" fill="white" fill-opacity="0.5"/>
</svg>
