<?xml version="1.0" encoding="utf-8"?>
<!-- Generator: Adobe Illustrator 25.2.3, SVG Export Plug-In . SVG Version: 6.00 Build 0)  -->
<svg version="1.1" id="圖層_1" xmlns="http://www.w3.org/2000/svg" xmlns:xlink="http://www.w3.org/1999/xlink" x="0px" y="0px"
	 viewBox="0 0 70 70" style="enable-background:new 0 0 70 70;" xml:space="preserve">
<style type="text/css">
	.st0{fill:#3F3A3A;}
	.st1{fill:#FFFFFF;}
</style>
<path class="st0" d="M35,0L35,0c19.3,0,35,15.7,35,35l0,0c0,19.3-15.7,35-35,35l0,0C15.7,70,0,54.3,0,35l0,0C0,15.7,15.7,0,35,0z"/>
<path class="st1" d="M30,47c-0.5,0-1-0.2-1.4-0.6c-0.8-0.8-0.8-2,0-2.8l8.6-8.6l-8.6-8.6c-0.8-0.8-0.8-2,0-2.8c0.8-0.8,2-0.8,2.8,0
	L42.8,35L31.4,46.4C31,46.8,30.5,47,30,47z"/>
</svg>
