<svg version="1.1" id="Layer_1" xmlns="http://www.w3.org/2000/svg" xmlns:xlink="http://www.w3.org/1999/xlink" x="0px" y="0px"
	 width="100%" viewBox="0 0 560 560" enable-background="new 0 0 560 560" xml:space="preserve">
<path fill="#000000" opacity="1.000000" stroke="none" 
	d="
M242.789368,373.339996 
	C209.582962,357.052979 191.095261,330.635651 185.553146,294.592896 
	C177.334045,241.140732 220.273804,191.346634 270.683044,185.030075 
	C324.192535,178.325012 373.324005,214.307648 380.483826,269.064362 
	C386.252869,313.184418 364.488190,355.468842 324.968750,372.758606 
	C297.923737,384.590851 270.525818,385.330994 242.789368,373.339996 
M319.171082,303.621124 
	C315.107056,308.209106 310.264252,311.544861 304.315979,313.297546 
	C285.930145,318.715027 267.047272,310.629120 257.025391,292.627869 
	C254.667038,288.391815 252.103348,286.282440 247.096252,287.731140 
	C233.355392,291.706787 219.546844,295.447937 205.792679,299.378479 
	C200.306793,300.946198 199.297516,302.768280 200.876511,308.174469 
	C212.090103,346.567474 250.218567,374.768616 294.281158,369.359314 
	C336.671326,364.155365 367.292938,330.843506 369.335297,292.705841 
	C369.604950,287.670105 368.076721,285.140442 362.981354,284.492096 
	C354.076630,283.359100 345.135986,282.509308 336.228790,281.393951 
	C331.835205,280.843811 329.376404,282.527710 328.135254,286.795654 
	C326.402344,292.754547 323.567047,298.221313 319.171082,303.621124 
M308.542053,241.730164 
	C313.739075,244.850494 318.444305,248.565063 321.623413,253.804108 
	C323.547455,256.974854 326.207703,258.281036 329.760620,258.710663 
	C336.185883,259.487701 342.565979,260.630615 348.983063,261.484711 
	C354.612457,262.233978 360.266693,262.796783 366.770172,263.540314 
	C364.215942,259.401550 360.747345,259.916382 357.876099,259.414642 
	C349.213654,257.900879 340.501068,256.676514 331.816650,255.285416 
	C328.571777,254.765625 325.715240,253.439529 324.096008,250.390579 
	C311.157867,226.028458 266.867126,228.213425 254.105118,251.423126 
	C252.011490,255.230698 248.812531,257.176544 244.793503,258.313721 
	C231.195648,262.161163 217.635193,266.140991 204.032578,269.971191 
	C201.336212,270.730438 199.134445,271.840210 197.891129,274.956268 
	C199.297211,274.784271 200.444458,274.755646 201.535690,274.493622 
	C217.373398,270.691437 233.180862,266.759430 249.051575,263.101501 
	C253.009018,262.189392 255.439453,260.286194 257.049225,256.541443 
	C260.902496,247.577866 267.790955,241.820786 277.165558,239.276321 
	C287.596161,236.445221 297.900208,236.768814 308.542053,241.730164 
M301.715363,294.439606 
	C309.964142,289.947052 312.266235,282.604553 311.770752,273.805634 
	C311.111511,262.100067 302.720947,254.241547 290.793335,254.322800 
	C279.701752,254.398376 270.835144,262.982605 270.354065,274.111145 
	C269.639679,290.636810 284.056763,300.333191 301.715363,294.439606 
z"/>
<path fill="#000000" opacity="1.000000" stroke="none" 
	d="
M302.944244,261.970032 
	C308.896484,268.100861 310.403595,276.600800 306.975739,283.302246 
	C303.578735,289.943390 295.991364,293.799622 288.632812,292.624847 
	C281.009460,291.407867 275.304047,285.674591 274.073395,277.561066 
	C272.952515,270.171265 276.287262,264.604523 282.143951,260.510956 
	C288.152374,256.311371 295.478729,256.878296 302.944244,261.970032 
M295.334167,285.214020 
	C295.932709,284.926147 296.573669,284.702667 297.123108,284.340332 
	C301.860199,281.216400 303.544678,276.510559 301.767242,271.453400 
	C299.972046,266.345642 295.629700,263.810608 289.509491,264.297394 
	C284.031769,264.733093 280.999146,267.639191 280.018768,273.392029 
	C278.597015,281.735077 284.745544,286.848053 295.334167,285.214020 
z"/>
</svg>