<svg version="1.1" id="Layer_1" xmlns="http://www.w3.org/2000/svg" xmlns:xlink="http://www.w3.org/1999/xlink" x="0px" y="0px"
	 width="100%" viewBox="0 0 592 592" enable-background="new 0 0 592 592" xml:space="preserve">
<path fill="#000000" opacity="1.000000" stroke="none" 
	d="
M228.733459,248.276520 
	C239.243515,253.513229 250.082809,254.289307 261.204590,253.563538 
	C285.302795,251.990997 309.347687,251.346863 333.350739,255.410538 
	C343.524597,257.132935 353.545227,255.081223 363.171112,251.197525 
	C393.431793,238.988449 423.779144,227.004822 454.712646,216.568161 
	C473.962341,210.073471 493.441742,204.355743 513.066528,199.124542 
	C516.618225,198.177765 520.169434,198.267044 522.685303,201.393768 
	C525.147400,204.453568 523.990723,207.648972 522.395142,210.744156 
	C505.889160,242.762756 486.498901,272.712738 460.082184,297.618591 
	C451.096863,306.090057 441.477570,313.771393 431.195038,320.620758 
	C424.360870,325.173035 423.736359,326.769623 426.463684,334.232819 
	C438.225189,366.417603 445.009308,399.743103 449.422119,433.622070 
	C449.915466,437.409668 450.632782,441.169861 451.059143,444.963806 
	C451.407135,448.060852 451.972778,451.286591 449.276550,454.035400 
	C445.955841,453.536682 445.299988,450.878418 444.811493,448.290192 
	C441.051605,428.368958 437.599518,408.386169 433.566254,388.521118 
	C429.992737,370.920654 426.292206,353.304504 418.830292,336.788422 
	C415.300415,328.975372 410.638855,321.928192 404.659760,315.762512 
	C403.852936,314.930511 403.075806,314.037140 402.457825,313.062592 
	C401.602509,311.713684 401.343384,310.191162 402.500702,308.896667 
	C403.864288,307.371521 405.477203,307.757721 407.038605,308.667389 
	C409.510681,310.107513 411.633423,311.942291 413.465027,314.151215 
	C417.633545,319.178406 419.096375,319.651642 424.389313,316.471741 
	C445.506012,303.785004 462.693207,287.240936 474.350891,265.266754 
	C481.611938,251.580032 485.920471,236.970764 488.505096,221.789627 
	C489.775391,214.328400 488.167755,213.021469 480.802338,215.498337 
	C438.815643,229.617767 397.319763,245.053513 356.453674,262.154236 
	C351.318573,264.303070 346.283081,264.801361 340.869934,263.688995 
	C329.601044,261.373352 318.222565,259.860657 306.682007,260.029083 
	C283.201019,260.371765 259.722595,258.703064 236.243271,259.912384 
	C229.334091,260.268280 223.915298,258.044861 218.918259,252.946411 
	C188.334808,221.742401 154.202774,194.954529 116.900543,172.207016 
	C115.207253,171.174438 113.583153,169.955109 111.414726,169.746902 
	C109.638397,171.076355 109.613724,173.116470 109.318413,175.064316 
	C105.633102,199.371719 110.736900,221.761200 124.350403,242.134689 
	C135.082809,258.196472 145.160553,274.708618 157.059402,289.979462 
	C162.496277,296.957092 163.479538,297.115845 169.638840,290.798035 
	C171.285736,289.108765 172.984772,287.539795 175.205002,286.661591 
	C176.862198,286.006104 178.800430,284.677979 180.138382,286.694824 
	C181.214081,288.316376 179.810257,289.812073 178.693954,291.090149 
	C172.978958,297.633514 167.975433,304.677917 163.602005,312.189362 
	C153.216980,330.025848 147.036652,349.574829 140.219284,368.884918 
	C135.535919,382.150452 131.998749,395.512451 132.212082,409.766357 
	C132.425644,424.036316 136.339874,437.290710 141.872421,450.228119 
	C142.453568,451.587067 143.050217,453.033081 143.163086,454.475952 
	C143.320236,456.484833 142.254303,458.018677 140.229141,458.592468 
	C138.234436,459.157654 136.941635,457.996246 136.276260,456.365448 
	C129.833572,440.574921 124.457275,424.578156 125.251755,407.115265 
	C126.646713,376.453400 138.521362,348.949951 150.644745,321.498047 
	C152.730408,316.775299 154.824066,312.055756 156.961502,307.356293 
	C158.362106,304.276825 157.855484,301.699463 155.598389,299.117523 
	C125.224876,264.372192 103.878304,224.134827 84.969780,182.453064 
	C81.881203,175.644623 79.896439,168.387680 78.320389,161.034576 
	C77.447952,156.964233 77.678276,153.324692 81.032692,150.583618 
	C84.453499,147.788300 87.912941,149.344803 91.323563,150.956589 
	C134.948776,171.572952 174.279205,198.295013 208.084183,232.908401 
	C214.052231,239.019165 220.663773,244.329163 228.733459,248.276520 
z"/>
<path fill="#000000" opacity="1.000000" stroke="none" 
	d="
M359.117523,402.355835 
	C365.942810,392.253113 375.883575,389.420471 386.782715,390.091309 
	C397.366028,390.742737 406.036163,395.615540 410.556152,405.730469 
	C416.342926,418.680389 409.237366,433.247437 395.582031,436.988678 
	C388.355377,438.968628 381.123566,438.839630 373.947632,436.585022 
	C358.076965,431.598541 351.931976,417.743713 359.117523,402.355835 
z"/>
<path fill="#000000" opacity="1.000000" stroke="none" 
	d="
M142.461914,415.602234 
	C136.238876,409.315582 132.484421,402.416565 135.474854,393.779877 
	C138.734940,384.364288 146.521301,380.356232 155.681290,378.854004 
	C160.611389,378.045471 165.661530,378.536102 170.486755,380.156067 
	C181.190582,383.749786 186.514343,391.885773 185.253082,402.669281 
	C184.063004,412.844238 176.533340,420.080933 165.457840,421.135071 
	C157.379349,421.903931 149.425644,421.393372 142.461914,415.602234 
z"/>
<path fill="#000000" opacity="1.000000" stroke="none" 
	d="
M363.590515,361.189758 
	C358.534149,370.901215 348.599182,375.007202 339.600800,371.385284 
	C330.923096,367.892456 326.402985,357.075775 329.181000,346.450439 
	C331.954041,335.844086 341.058838,329.839966 351.370972,331.817291 
	C360.297913,333.529053 366.638947,344.443970 365.061432,355.511414 
	C364.804962,357.310913 364.207977,359.061920 363.590515,361.189758 
M346.681946,345.550140 
	C346.222931,342.871490 344.471619,342.004120 341.999725,342.355804 
	C340.263397,342.602905 339.491211,343.856903 339.385529,345.500305 
	C339.244568,347.691193 340.529144,348.955444 342.479828,349.382751 
	C344.914764,349.916168 346.165009,348.516937 346.681946,345.550140 
z"/>
<path fill="#000000" opacity="1.000000" stroke="none" 
	d="
M275.940491,407.719940 
	C279.732788,408.014893 283.069946,408.103271 286.334991,408.634644 
	C296.991516,410.368835 301.037170,414.195435 302.073975,424.703461 
	C302.755249,431.608215 302.943665,438.635590 301.283508,445.536194 
	C300.184113,450.105988 297.563629,453.658783 293.172119,454.904694 
	C277.838165,459.255035 263.226074,458.777344 250.819931,447.015045 
	C242.927094,439.531799 241.514816,430.556244 244.866837,420.550873 
	C248.021637,411.134277 255.898163,408.804199 264.486298,407.867645 
	C268.104126,407.473175 271.794800,407.746490 275.940491,407.719940 
M251.041199,432.512115 
	C250.979019,435.321411 251.915543,437.776550 253.875412,439.758301 
	C261.390930,447.357788 270.266205,451.771423 281.193848,450.555786 
	C287.183929,449.889496 293.053680,448.091736 294.737762,441.384583 
	C296.619843,433.888885 297.487610,426.207703 291.960754,419.534119 
	C290.536163,417.813934 288.542419,416.966370 286.429047,416.314636 
	C281.205536,414.703766 275.850922,415.255463 270.548615,415.364716 
	C259.523285,415.591888 253.396606,420.830414 251.041199,432.512115 
z"/>
<path fill="#000000" opacity="1.000000" stroke="none" 
	d="
M193.537766,335.900787 
	C197.674820,328.208221 203.995514,324.632568 212.158234,325.129547 
	C222.717010,325.772369 228.274368,332.391083 229.068405,344.338562 
	C229.731232,354.311646 223.912109,361.689056 214.660843,364.424316 
	C198.378296,369.238525 189.103363,352.562103 192.133301,340.051941 
	C192.445496,338.762970 192.955338,337.521912 193.537766,335.900787 
M202.274597,338.576691 
	C202.132736,341.347595 203.469971,343.238892 206.173706,343.286591 
	C208.423767,343.326202 210.253616,341.942719 210.632782,339.432159 
	C210.972427,337.183228 210.054672,335.491821 207.887909,334.751526 
	C204.983353,333.759155 203.074188,334.820770 202.274597,338.576691 
z"/>
<path fill="#000000" opacity="1.000000" stroke="none" 
	d="
M255.144012,375.149536 
	C261.813660,371.168640 268.485931,372.053345 275.023682,374.145111 
	C278.048248,375.112823 279.009979,378.046906 278.654297,381.105865 
	C278.318329,383.994904 276.186066,385.456787 273.589142,385.905151 
	C268.439362,386.794189 263.270660,386.416443 258.322540,384.790070 
	C254.334229,383.479156 253.281906,380.178955 255.144012,375.149536 
z"/>
</svg>