<svg width="124" height="152" viewBox="0 0 124 152" fill="none" xmlns="http://www.w3.org/2000/svg">
<path d="M122.903 49.0677L0.467285 85.0507L28.506 14.0193C71.8726 17.3839 109.507 38.7868 122.903 49.0677Z" fill="#FFECEC"/>
<path d="M123.37 114.959L0 151.409V84.5834L123.37 48.1331V114.959Z" fill="#FFBEBE"/>
<path d="M123.37 70.5642L0 106.08V124.772L123.37 88.7894V70.5642Z" fill="#FFECEC"/>
<path d="M123.37 99.5376L0 135.053V139.259L123.37 103.276V99.5376Z" fill="#FFECEC"/>
<path d="M72.0547 39.5622C72.4154 48.429 63.8101 52.2267 53.022 52.6656C42.234 53.1046 33.3485 50.0185 32.9878 41.1516C32.627 32.2848 40.9058 20.4596 51.6939 20.0207C62.4819 19.5818 71.6939 30.6953 72.0547 39.5622Z" fill="white"/>
<path d="M65.6879 8.63458C50.6943 1.47631 42.2812 5.65197 39.9488 8.63458C37.15 10.6793 36.4503 16.943 36.4503 19.8193C36.4503 27.193 38.8493 42.4872 48.4452 44.6744C58.0412 46.8617 66.9374 38.1292 70.186 33.4896C74.934 28.1872 80.6816 15.7928 65.6879 8.63458Z" fill="#F584AC"/>
<path d="M48.7177 0C48.518 2.41413 49.633 4.86178 50.2155 5.78385C46.7206 4.27502 43.1842 5.15517 41.8528 5.78385C43.75 8.29856 47.8024 10.1846 49.5914 10.8133C47.0951 12.5233 47.3863 14.6273 47.844 15.4655C49.8411 16.3708 54.5009 16.178 56.5812 15.9684C57.0805 18.4832 60.7834 20.5368 62.5724 21.2494C65.1686 20.4446 65.6512 18.064 65.568 16.9743C68.2641 18.6843 72.849 19.1118 74.8045 19.1118C74.4051 16.5971 71.476 14.2081 70.0614 13.328C74.8544 13.1268 75.5534 11.2324 75.3038 10.3103C72.6077 8.49974 68.2724 7.79562 66.4417 7.66989C66.3419 4.8534 64.8191 2.72428 64.0702 2.01177C61.3742 1.71001 58.5367 3.31104 57.4549 4.14928C55.2581 1.93633 50.7148 0.461031 48.7177 0Z" fill="#88CF9F"/>
<path d="M44.15 16.4592C43.5841 16.8825 42.6921 18.1677 43.6512 19.9215C44.2052 19.5805 45.0805 18.4108 44.15 16.4592Z" fill="#C05C7F"/>
<path d="M40.1833 25.8591C39.6174 26.2824 38.7255 27.5676 39.6846 29.3214C40.2385 28.9804 41.1139 27.8107 40.1833 25.8591Z" fill="#C05C7F"/>
<path d="M48.2753 25.7626C47.7095 26.186 46.8175 27.4712 47.7766 29.2249C48.3306 28.884 49.2059 27.7142 48.2753 25.7626Z" fill="#C05C7F"/>
<path d="M57.9916 26.6574C57.4258 27.0808 56.5338 28.366 57.4929 30.1197C58.0469 29.7788 58.9222 28.609 57.9916 26.6574Z" fill="#C05C7F"/>
<path d="M70.4302 26.1769C69.8644 26.6003 68.9724 27.8855 69.9315 29.6392C70.4855 29.2983 71.3608 28.1285 70.4302 26.1769Z" fill="#C05C7F"/>
<path d="M64.1681 32.8481C63.6023 33.2714 62.7103 34.5566 63.6694 36.3104C64.2234 35.9695 65.0987 34.7997 64.1681 32.8481Z" fill="#C05C7F"/>
<path d="M52.2933 34.6718C51.7274 35.0952 50.8355 36.3804 51.7945 38.1341C52.3485 37.7932 53.2238 36.6234 52.2933 34.6718Z" fill="#C05C7F"/>
<path d="M44.3774 35.2988C43.8115 35.7221 42.9196 37.0073 43.8786 38.7611C44.4326 38.4201 45.308 37.2504 44.3774 35.2988Z" fill="#C05C7F"/>
</svg>
