<svg xmlns="http://www.w3.org/2000/svg" viewBox="0 0 45.05 42.94"><defs><style>.cls-1{fill:#fff;}</style></defs><g id="圖層_2" data-name="圖層 2"><g id="圖層_1-2" data-name="圖層 1"><path class="cls-1" d="M42.74,22.72a1.47,1.47,0,0,1-1.07-.44,1.69,1.69,0,0,1-.33-.49,1.8,1.8,0,0,1-.1-.57,2.64,2.64,0,0,1,0-.29c0-.1.06-.19.08-.28a1.35,1.35,0,0,1,.15-.26,2.31,2.31,0,0,1,.18-.23,2.23,2.23,0,0,1,.24-.19,1.05,1.05,0,0,1,.26-.13,1.15,1.15,0,0,1,.28-.09,1.51,1.51,0,0,1,1.35.41,2.33,2.33,0,0,1,.19.23,1.26,1.26,0,0,1,.13.26,2.29,2.29,0,0,1,.09.28,2.58,2.58,0,0,1,0,.29,1.56,1.56,0,0,1-.11.57,1.83,1.83,0,0,1-.33.49A1.53,1.53,0,0,1,42.74,22.72Z"/><path class="cls-1" d="M21,41.44a1.5,1.5,0,0,1,1.5-1.5h0a1.5,1.5,0,0,1,1.5,1.5h0a1.5,1.5,0,0,1-1.5,1.5h0A1.5,1.5,0,0,1,21,41.44Zm-6.82-.15h0a1.5,1.5,0,0,1-.8-2h0a1.5,1.5,0,0,1,2-.81h0a1.5,1.5,0,0,1,.8,2h0a1.49,1.49,0,0,1-1.38.93h0A1.43,1.43,0,0,1,14.21,41.29Zm14.66-.81a1.5,1.5,0,0,1,.8-2h0a1.48,1.48,0,0,1,2,.81h0a1.5,1.5,0,0,1-.79,2h0a1.53,1.53,0,0,1-.58.11h0A1.51,1.51,0,0,1,28.87,40.48ZM7.17,36.59h0a1.51,1.51,0,0,1,0-2.12h0a1.51,1.51,0,0,1,2.13,0h0a1.52,1.52,0,0,1,0,2.13h0A1.51,1.51,0,0,1,8.24,37h0A1.5,1.5,0,0,1,7.17,36.59Zm28.58,0a1.49,1.49,0,0,1,0-2.12h0a1.49,1.49,0,0,1,2.12,0h0a1.49,1.49,0,0,1,0,2.12h0A1.49,1.49,0,0,1,36.8,37h0A1.44,1.44,0,0,1,35.75,36.57Zm-33.29-7h0a1.5,1.5,0,0,1,.8-2h0a1.51,1.51,0,0,1,2,.81h0a1.51,1.51,0,0,1-.8,2h0a1.54,1.54,0,0,1-.58.12h0A1.51,1.51,0,0,1,2.46,29.56Zm38.16.79a1.53,1.53,0,0,1-.82-2h0a1.5,1.5,0,0,1,2-.81h0a1.51,1.51,0,0,1,.83,2h0a1.52,1.52,0,0,1-1.39.92h0A1.46,1.46,0,0,1,40.62,30.35Z"/><path class="cls-1" d="M2.3,22.72a1.63,1.63,0,0,1-.59-.11,2.11,2.11,0,0,1-.49-.33,1.53,1.53,0,0,1-.43-1.06,1.36,1.36,0,0,1,0-.29,1.61,1.61,0,0,1,.23-.54,2,2,0,0,1,.17-.23L1.46,20l.25-.14L2,19.75a1.46,1.46,0,0,1,1.34.41,1.07,1.07,0,0,1,.2.23,2.1,2.1,0,0,1,.13.26.92.92,0,0,1,.09.28,1.36,1.36,0,0,1,0,.29,1.47,1.47,0,0,1-.45,1.06A1.44,1.44,0,0,1,2.3,22.72Z"/><path class="cls-1" d="M44.63,9.72a.74.74,0,0,0-1,.32l-1.55,3A21.19,21.19,0,0,0,3,13L1.44,10a.74.74,0,0,0-1-.33.76.76,0,0,0-.39.44.79.79,0,0,0,.06.58l2.83,5.48L8.4,14.16a.76.76,0,0,0-.7-1.34l-2.89.94a19.2,19.2,0,0,1,35.41,0l-3-.95a.75.75,0,0,0-1,.32.74.74,0,0,0,0,.58.71.71,0,0,0,.38.44l5.6,2.05L45,10.74A.73.73,0,0,0,44.63,9.72ZM3.57,14.17h0Zm37.89,0Z"/></g></g></svg>