<svg xmlns="http://www.w3.org/2000/svg" viewBox="0 0 33.66 33.66"><defs><style>.cls-1{fill:#fff;}</style></defs><g id="圖層_2" data-name="圖層 2"><g id="圖層_1-2" data-name="圖層 1"><path class="cls-1" d="M21,.17A1.68,1.68,0,0,0,18.74,1a1.67,1.67,0,0,0,.83,2.28L26.2,6.37A44.67,44.67,0,0,0,6.38,26.2l-3.1-6.64A1.68,1.68,0,0,0,1,18.73,1.68,1.68,0,0,0,.17,21l5.9,12.65,12.65-5.9a1.72,1.72,0,0,0-1.45-3.11l-5.86,2.73a39.65,39.65,0,0,1,16-16l-2.73,5.87a1.73,1.73,0,0,0,2.14,2.35,1.69,1.69,0,0,0,1-.9l5.9-12.65ZM7.73,29.1l0-.06.08,0ZM29.06,7.7l.05,0,0,0Z"/></g></g></svg>