<svg width="527" height="646" viewBox="0 0 527 646" fill="none" xmlns="http://www.w3.org/2000/svg">
<path d="M325.747 546.827L231.36 574.567L252.976 519.808C286.407 522.401 315.42 538.901 325.747 546.827Z" fill="#FFECEC"/>
<path d="M326.108 597.623L231 625.723V574.206L326.108 546.106V597.623Z" fill="#FFBEBE"/>
<path d="M326.108 563.399L231 590.778V605.189L326.108 577.449V563.399Z" fill="#FFECEC"/>
<path d="M326.108 585.735L231 613.114V616.357L326.108 588.617V585.735Z" fill="#FFECEC"/>
<path d="M286.548 539.499C286.826 546.335 280.192 549.262 271.875 549.601C263.559 549.939 256.709 547.56 256.431 540.724C256.153 533.889 262.535 524.773 270.851 524.434C279.168 524.096 286.27 532.663 286.548 539.499Z" fill="white"/>
<path d="M281.64 515.656C270.081 510.138 263.595 513.357 261.797 515.656C259.639 517.233 259.1 522.062 259.1 524.279C259.1 529.963 260.949 541.754 268.347 543.44C275.745 545.126 282.603 538.394 285.107 534.818C288.768 530.73 293.198 521.175 281.64 515.656Z" fill="#F584AC"/>
<path d="M268.557 509C268.403 510.861 269.263 512.748 269.712 513.459C267.018 512.296 264.291 512.974 263.265 513.459C264.727 515.397 267.852 516.851 269.231 517.336C267.306 518.654 267.531 520.276 267.884 520.923C269.423 521.62 273.015 521.472 274.619 521.31C275.004 523.249 277.859 524.832 279.238 525.381C281.239 524.761 281.611 522.926 281.547 522.086C283.626 523.404 287.16 523.734 288.668 523.734C288.36 521.795 286.102 519.953 285.011 519.275C288.706 519.12 289.245 517.659 289.053 516.948C286.974 515.553 283.632 515.01 282.221 514.913C282.144 512.742 280.97 511.1 280.393 510.551C278.314 510.318 276.127 511.553 275.293 512.199C273.599 510.493 270.097 509.355 268.557 509Z" fill="#88CF9F"/>
<path d="M265.036 521.689C264.6 522.015 263.912 523.006 264.651 524.358C265.078 524.095 265.753 523.193 265.036 521.689Z" fill="#C05C7F"/>
<path d="M261.978 528.935C261.542 529.261 260.854 530.252 261.593 531.604C262.02 531.341 262.695 530.44 261.978 528.935Z" fill="#C05C7F"/>
<path d="M268.216 528.861C267.78 529.187 267.092 530.178 267.832 531.53C268.259 531.267 268.934 530.365 268.216 528.861Z" fill="#C05C7F"/>
<path d="M275.706 529.55C275.27 529.877 274.583 530.868 275.322 532.22C275.749 531.957 276.424 531.055 275.706 529.55Z" fill="#C05C7F"/>
<path d="M285.296 529.18C284.859 529.506 284.172 530.497 284.911 531.849C285.338 531.586 286.013 530.685 285.296 529.18Z" fill="#C05C7F"/>
<path d="M280.468 534.323C280.032 534.649 279.344 535.64 280.084 536.992C280.511 536.729 281.185 535.827 280.468 534.323Z" fill="#C05C7F"/>
<path d="M271.314 535.729C270.877 536.055 270.19 537.046 270.929 538.398C271.356 538.135 272.031 537.233 271.314 535.729Z" fill="#C05C7F"/>
<path d="M265.211 536.212C264.775 536.539 264.087 537.529 264.827 538.881C265.254 538.618 265.928 537.717 265.211 536.212Z" fill="#C05C7F"/>
<path d="M130.747 155.827L36.3602 183.567L57.9756 128.808C91.4074 131.401 120.42 147.901 130.747 155.827Z" fill="#FFECEC"/>
<path d="M131.108 206.623L36 234.723V183.206L131.108 155.106V206.623Z" fill="#FFBEBE"/>
<path d="M131.108 172.399L36 199.778V214.189L131.108 186.449V172.399Z" fill="#FFECEC"/>
<path d="M131.108 194.735L36 222.114V225.357L131.108 197.617V194.735Z" fill="#FFECEC"/>
<path d="M91.5478 148.499C91.8259 155.335 85.1919 158.262 76.8753 158.601C68.5587 158.939 61.7088 156.56 61.4307 149.724C61.1526 142.889 67.5348 133.773 75.8514 133.434C84.168 133.096 91.2697 141.663 91.5478 148.499Z" fill="white"/>
<path d="M86.6396 124.656C75.0808 119.138 68.5951 122.357 66.797 124.656C64.6394 126.233 64.1 131.062 64.1 133.279C64.1 138.963 65.9494 150.754 73.347 152.44C80.7446 154.126 87.6028 147.394 90.1073 143.818C93.7675 139.73 98.1984 130.175 86.6396 124.656Z" fill="#F584AC"/>
<path d="M73.5571 118C73.4032 119.861 74.2628 121.748 74.7118 122.459C72.0176 121.296 69.2913 121.974 68.2649 122.459C69.7275 124.397 72.8515 125.851 74.2307 126.336C72.3063 127.654 72.5308 129.276 72.8836 129.923C74.4232 130.62 78.0155 130.472 79.6192 130.31C80.0041 132.249 82.8587 133.832 84.2379 134.381C86.2393 133.761 86.6114 131.926 86.5473 131.086C88.6257 132.404 92.1603 132.734 93.6678 132.734C93.3598 130.795 91.1018 128.953 90.0113 128.275C93.7063 128.12 94.2451 126.659 94.0527 125.948C91.9742 124.553 88.6321 124.01 87.2208 123.913C87.1438 121.742 85.9699 120.1 85.3926 119.551C83.3142 119.318 81.1267 120.553 80.2928 121.199C78.5992 119.493 75.0967 118.355 73.5571 118Z" fill="#88CF9F"/>
<path d="M70.0358 130.689C69.5996 131.015 68.912 132.006 69.6513 133.358C70.0784 133.095 70.7532 132.193 70.0358 130.689Z" fill="#C05C7F"/>
<path d="M66.9778 137.935C66.5416 138.261 65.854 139.252 66.5934 140.604C67.0204 140.341 67.6952 139.44 66.9778 137.935Z" fill="#C05C7F"/>
<path d="M73.2161 137.861C72.7799 138.187 72.0923 139.178 72.8316 140.53C73.2587 140.267 73.9335 139.365 73.2161 137.861Z" fill="#C05C7F"/>
<path d="M80.7065 138.55C80.2702 138.877 79.5826 139.868 80.322 141.22C80.7491 140.957 81.4239 140.055 80.7065 138.55Z" fill="#C05C7F"/>
<path d="M90.2956 138.18C89.8593 138.506 89.1717 139.497 89.9111 140.849C90.3382 140.586 91.013 139.685 90.2956 138.18Z" fill="#C05C7F"/>
<path d="M85.4681 143.323C85.0318 143.649 84.3442 144.64 85.0836 145.992C85.5107 145.729 86.1855 144.827 85.4681 143.323Z" fill="#C05C7F"/>
<path d="M76.3135 144.729C75.8773 145.055 75.1897 146.046 75.929 147.398C76.3561 147.135 77.0309 146.233 76.3135 144.729Z" fill="#C05C7F"/>
<path d="M70.2111 145.212C69.7749 145.539 69.0873 146.529 69.8266 147.881C70.2537 147.618 70.9285 146.717 70.2111 145.212Z" fill="#C05C7F"/>
<path d="M135.641 347.119L37.2628 346.826L73.5799 300.492C104.888 312.501 127.999 336.581 135.641 347.119Z" fill="#FFECEC"/>
<path d="M121.519 395.914L22.3467 395.761L37.0202 346.378L136.192 346.531L121.519 395.914Z" fill="#FFBEBE"/>
<path d="M131.267 363.108L32.3 362.263L28.1955 376.077L127.265 376.576L131.267 363.108Z" fill="#FFECEC"/>
<path d="M124.905 384.518L25.9381 383.674L25.0146 386.782L124.084 387.281L124.905 384.518Z" fill="#FFECEC"/>
<path d="M100.153 328.93C98.4724 335.562 91.2793 336.478 83.2108 334.434C75.1422 332.389 69.2537 328.158 70.9341 321.526C72.6145 314.895 81.3289 307.974 89.3974 310.018C97.4659 312.063 101.833 322.298 100.153 328.93Z" fill="white"/>
<path d="M102.239 304.677C92.7308 296.095 85.5968 297.333 83.2183 299.025C80.7011 299.922 78.8086 304.397 78.177 306.522C76.5579 311.971 74.9725 323.8 81.5834 327.524C88.1943 331.247 96.6859 326.747 100.105 324.032C104.778 321.156 111.747 313.259 102.239 304.677Z" fill="#F584AC"/>
<path d="M91.5943 294.57C90.9166 296.31 91.2031 298.364 91.4311 299.173C89.1798 297.291 86.3731 297.165 85.2512 297.337C86.1011 299.612 88.6816 301.895 89.8656 302.753C87.6453 303.468 87.3986 305.087 87.5527 305.807C88.8297 306.914 92.3156 307.795 93.8989 308.097C93.7157 310.065 96.0011 312.396 97.1667 313.315C99.2619 313.29 100.141 311.637 100.319 310.814C101.936 312.669 105.23 313.992 106.675 314.421C106.932 312.475 105.292 310.067 104.44 309.106C108.026 310.01 108.959 308.763 108.977 308.027C107.382 306.097 104.333 304.625 103.008 304.13C103.552 302.026 102.895 300.119 102.498 299.428C100.572 298.613 98.1232 299.173 97.1398 299.555C96.0023 297.437 92.9688 295.349 91.5943 294.57Z" fill="#88CF9F"/>
<path d="M84.6047 305.73C84.0936 305.919 83.1523 306.673 83.4759 308.179C83.9602 308.049 84.8639 307.377 84.6047 305.73Z" fill="#C05C7F"/>
<path d="M79.6094 311.805C79.0983 311.994 78.1569 312.748 78.4806 314.254C78.9648 314.124 79.8685 313.452 79.6094 311.805Z" fill="#C05C7F"/>
<path d="M85.6105 313.511C85.0994 313.7 84.158 314.453 84.4817 315.96C84.9659 315.83 85.8696 315.157 85.6105 313.511Z" fill="#C05C7F"/>
<path d="M92.5941 316.306C92.083 316.494 91.1417 317.248 91.4653 318.755C91.9496 318.624 92.8533 317.952 92.5941 316.306Z" fill="#C05C7F"/>
<path d="M101.891 318.682C101.38 318.87 100.439 319.624 100.763 321.131C101.247 321.001 102.151 320.328 101.891 318.682Z" fill="#C05C7F"/>
<path d="M95.7991 322.237C95.288 322.425 94.3466 323.179 94.6703 324.686C95.1545 324.555 96.0582 323.883 95.7991 322.237Z" fill="#C05C7F"/>
<path d="M86.6234 320.977C86.1123 321.165 85.171 321.919 85.4946 323.426C85.9789 323.296 86.8826 322.623 86.6234 320.977Z" fill="#C05C7F"/>
<path d="M80.636 319.702C80.1249 319.891 79.1835 320.644 79.5072 322.151C79.9914 322.021 80.8951 321.349 80.636 319.702Z" fill="#C05C7F"/>
<path d="M204.753 284.687L92.5078 287.386L132.511 233.406C168.6 246.14 195.709 272.899 204.753 284.687Z" fill="#FFECEC"/>
<path d="M190.146 340.79L76.9999 343.674L92.217 286.883L205.363 283.999L190.146 340.79Z" fill="#FFBEBE"/>
<path d="M200.255 303.062L87.322 305.151L83.0654 321.037L196.105 318.55L200.255 303.062Z" fill="#FFECEC"/>
<path d="M193.657 327.685L80.7244 329.774L79.7667 333.349L192.806 330.862L193.657 327.685Z" fill="#FFECEC"/>
<path d="M163.704 265.03C161.992 272.647 153.814 273.915 144.546 271.832C135.278 269.748 128.429 265.102 130.142 257.484C131.854 249.867 141.583 241.703 150.851 243.786C160.119 245.87 165.417 257.412 163.704 265.03Z" fill="white"/>
<path d="M165.336 237.296C154.224 227.798 146.123 229.431 143.462 231.435C140.618 232.535 138.597 237.699 137.942 240.144C136.263 246.41 134.819 259.954 142.476 263.998C150.133 268.042 159.682 262.646 163.499 259.443C168.741 256.018 176.448 246.794 165.336 237.296Z" fill="#F584AC"/>
<path d="M152.88 226.094C152.161 228.1 152.551 230.434 152.836 231.35C150.21 229.272 147.004 229.215 145.729 229.446C146.769 232.015 149.783 234.54 151.161 235.482C148.65 236.367 148.418 238.221 148.616 239.038C150.107 240.262 154.111 241.159 155.927 241.455C155.779 243.706 158.458 246.294 159.816 247.307C162.206 247.214 163.158 245.301 163.335 244.356C165.237 246.423 169.036 247.831 170.698 248.276C170.931 246.048 168.986 243.351 167.984 242.281C172.103 243.201 173.129 241.75 173.127 240.91C171.248 238.757 167.724 237.171 166.196 236.648C166.753 234.231 165.944 232.075 165.469 231.299C163.247 230.429 160.471 231.143 159.361 231.609C157.998 229.228 154.473 226.94 152.88 226.094Z" fill="#88CF9F"/>
<path d="M145.25 239.041C144.673 239.272 143.623 240.161 144.038 241.87C144.587 241.706 145.597 240.911 145.25 239.041Z" fill="#C05C7F"/>
<path d="M139.739 246.126C139.162 246.357 138.111 247.246 138.527 248.955C139.075 248.792 140.085 247.997 139.739 246.126Z" fill="#C05C7F"/>
<path d="M146.638 247.887C146.061 248.118 145.01 249.007 145.426 250.716C145.974 250.552 146.984 249.757 146.638 247.887Z" fill="#C05C7F"/>
<path d="M154.692 250.86C154.114 251.091 153.064 251.98 153.479 253.689C154.028 253.525 155.038 252.73 154.692 250.86Z" fill="#C05C7F"/>
<path d="M165.372 253.284C164.795 253.515 163.744 254.404 164.16 256.113C164.708 255.949 165.718 255.155 165.372 253.284Z" fill="#C05C7F"/>
<path d="M158.531 257.528C157.954 257.759 156.903 258.648 157.319 260.357C157.867 260.193 158.877 259.398 158.531 257.528Z" fill="#C05C7F"/>
<path d="M148.024 256.373C147.447 256.604 146.396 257.493 146.812 259.202C147.36 259.039 148.37 258.244 148.024 256.373Z" fill="#C05C7F"/>
<path d="M141.154 255.104C140.577 255.334 139.526 256.224 139.942 257.932C140.49 257.769 141.5 256.974 141.154 255.104Z" fill="#C05C7F"/>
<path d="M450.753 69.6869L338.508 72.3864L378.511 18.4056C414.6 31.1402 441.709 57.8992 450.753 69.6869Z" fill="#FFECEC"/>
<path d="M436.146 125.79L323 128.674L338.217 71.8827L451.363 68.9989L436.146 125.79Z" fill="#FFBEBE"/>
<path d="M446.255 88.0618L333.322 90.1513L329.065 106.037L442.105 103.55L446.255 88.0618Z" fill="#FFECEC"/>
<path d="M439.657 112.685L326.724 114.774L325.767 118.349L438.806 115.862L439.657 112.685Z" fill="#FFECEC"/>
<path d="M409.704 50.0297C407.992 57.6473 399.814 58.9152 390.546 56.8316C381.278 54.748 374.429 50.102 376.142 42.4844C377.854 34.8668 387.583 26.7025 396.851 28.7861C406.119 30.8697 411.417 42.4121 409.704 50.0297Z" fill="white"/>
<path d="M411.336 22.2961C400.224 12.7984 392.123 14.4313 389.462 16.4349C386.618 17.5353 384.597 22.6991 383.942 25.1435C382.263 31.41 380.819 44.9539 388.476 48.9979C396.133 53.0418 405.682 47.6465 409.499 44.4433C414.741 41.0183 422.448 31.7938 411.336 22.2961Z" fill="#F584AC"/>
<path d="M398.88 11.0935C398.161 13.0997 398.551 15.4337 398.836 16.35C396.21 14.2718 393.004 14.2145 391.729 14.4456C392.769 17.0148 395.783 19.5404 397.161 20.4821C394.65 21.3669 394.418 23.2212 394.616 24.0378C396.107 25.2619 400.111 26.1592 401.927 26.4548C401.779 28.7056 404.458 31.2942 405.816 32.3071C408.206 32.2144 409.158 30.3011 409.335 29.3561C411.237 31.4233 415.036 32.8307 416.698 33.2759C416.931 31.0479 414.986 28.3506 413.984 27.2805C418.103 28.201 419.129 26.7502 419.127 25.9097C417.248 23.7571 413.724 22.1715 412.196 21.6477C412.753 19.2314 411.944 17.0753 411.469 16.2992C409.247 15.4288 406.471 16.1433 405.361 16.6093C403.998 14.2284 400.473 11.9401 398.88 11.0935Z" fill="#88CF9F"/>
<path d="M391.25 24.041C390.673 24.272 389.623 25.161 390.038 26.8699C390.587 26.7063 391.597 25.9115 391.25 24.041Z" fill="#C05C7F"/>
<path d="M385.739 31.1263C385.162 31.3573 384.111 32.2464 384.527 33.9552C385.075 33.7916 386.085 32.9968 385.739 31.1263Z" fill="#C05C7F"/>
<path d="M392.638 32.887C392.061 33.1179 391.01 34.007 391.426 35.7158C391.974 35.5522 392.984 34.7574 392.638 32.887Z" fill="#C05C7F"/>
<path d="M400.692 35.86C400.114 36.0909 399.064 36.98 399.479 38.6888C400.028 38.5253 401.038 37.7305 400.692 35.86Z" fill="#C05C7F"/>
<path d="M411.372 38.2841C410.795 38.515 409.744 39.4041 410.16 41.1129C410.708 40.9493 411.718 40.1545 411.372 38.2841Z" fill="#C05C7F"/>
<path d="M404.531 42.5277C403.954 42.7587 402.903 43.6477 403.319 45.3566C403.867 45.193 404.877 44.3982 404.531 42.5277Z" fill="#C05C7F"/>
<path d="M394.024 41.3733C393.447 41.6042 392.396 42.4933 392.812 44.2021C393.36 44.0386 394.37 43.2438 394.024 41.3733Z" fill="#C05C7F"/>
<path d="M387.154 40.1035C386.577 40.3345 385.526 41.2235 385.942 42.9324C386.49 42.7688 387.5 41.974 387.154 40.1035Z" fill="#C05C7F"/>
<path d="M129.747 480.827L35.3602 508.567L56.9756 453.808C90.4074 456.401 119.42 472.901 129.747 480.827Z" fill="#FFECEC"/>
<path d="M130.108 531.623L35 559.723V508.206L130.108 480.106V531.623Z" fill="#FFBEBE"/>
<path d="M130.108 497.399L35 524.778V539.189L130.108 511.449V497.399Z" fill="#FFECEC"/>
<path d="M130.108 519.735L35 547.114V550.357L130.108 522.617V519.735Z" fill="#FFECEC"/>
<path d="M90.5478 473.499C90.8259 480.335 84.1919 483.262 75.8753 483.601C67.5587 483.939 60.7088 481.56 60.4307 474.724C60.1526 467.889 66.5348 458.773 74.8514 458.434C83.168 458.096 90.2697 466.663 90.5478 473.499Z" fill="white"/>
<path d="M85.6396 449.656C74.0808 444.138 67.5951 447.357 65.797 449.656C63.6394 451.233 63.1 456.062 63.1 458.279C63.1 463.963 64.9494 475.754 72.347 477.44C79.7446 479.126 86.6028 472.394 89.1073 468.818C92.7675 464.73 97.1984 455.175 85.6396 449.656Z" fill="#F584AC"/>
<path d="M72.5571 443C72.4032 444.861 73.2628 446.748 73.7118 447.459C71.0176 446.296 68.2913 446.974 67.2649 447.459C68.7275 449.397 71.8515 450.851 73.2307 451.336C71.3063 452.654 71.5308 454.276 71.8836 454.923C73.4232 455.62 77.0155 455.472 78.6192 455.31C79.0041 457.249 81.8587 458.832 83.2379 459.381C85.2393 458.761 85.6114 456.926 85.5473 456.086C87.6257 457.404 91.1603 457.734 92.6678 457.734C92.3598 455.795 90.1018 453.953 89.0113 453.275C92.7063 453.12 93.2451 451.659 93.0527 450.948C90.9742 449.553 87.6321 449.01 86.2208 448.913C86.1438 446.742 84.9699 445.1 84.3926 444.551C82.3142 444.318 80.1267 445.553 79.2928 446.199C77.5992 444.493 74.0967 443.355 72.5571 443Z" fill="#88CF9F"/>
<path d="M69.0358 455.689C68.5996 456.015 67.912 457.006 68.6513 458.358C69.0784 458.095 69.7532 457.193 69.0358 455.689Z" fill="#C05C7F"/>
<path d="M65.9778 462.935C65.5416 463.261 64.854 464.252 65.5934 465.604C66.0204 465.341 66.6952 464.44 65.9778 462.935Z" fill="#C05C7F"/>
<path d="M72.2161 462.861C71.7799 463.187 71.0923 464.178 71.8316 465.53C72.2587 465.267 72.9335 464.365 72.2161 462.861Z" fill="#C05C7F"/>
<path d="M79.7065 463.55C79.2702 463.877 78.5826 464.868 79.322 466.22C79.7491 465.957 80.4239 465.055 79.7065 463.55Z" fill="#C05C7F"/>
<path d="M89.2956 463.18C88.8593 463.506 88.1717 464.497 88.9111 465.849C89.3382 465.586 90.013 464.685 89.2956 463.18Z" fill="#C05C7F"/>
<path d="M84.4681 468.323C84.0318 468.649 83.3442 469.64 84.0836 470.992C84.5107 470.729 85.1855 469.827 84.4681 468.323Z" fill="#C05C7F"/>
<path d="M75.3135 469.729C74.8773 470.055 74.1897 471.046 74.929 472.398C75.3561 472.135 76.0309 471.233 75.3135 469.729Z" fill="#C05C7F"/>
<path d="M69.2111 470.212C68.7749 470.539 68.0873 471.529 68.8266 472.881C69.2537 472.618 69.9285 471.717 69.2111 470.212Z" fill="#C05C7F"/>
<path d="M376.849 496.167L278.48 494.737L315.33 448.826C346.498 461.195 369.329 485.541 376.849 496.167Z" fill="#FFECEC"/>
<path d="M362.164 544.796L263 543.497L278.243 494.287L377.406 495.586L362.164 544.796Z" fill="#FFBEBE"/>
<path d="M372.29 512.104L273.34 510.117L269.076 523.882L368.133 525.525L372.29 512.104Z" fill="#FFECEC"/>
<path d="M365.681 533.44L266.731 531.453L265.771 534.55L364.828 536.193L365.681 533.44Z" fill="#FFECEC"/>
<path d="M341.573 477.569C339.816 484.181 332.613 485.014 324.568 482.877C316.524 480.739 310.685 476.44 312.442 469.828C314.199 463.216 322.992 456.397 331.037 458.534C339.081 460.672 343.33 470.957 341.573 477.569Z" fill="white"/>
<path d="M343.939 453.342C334.53 444.65 327.383 445.806 324.985 447.471C322.457 448.338 320.513 452.791 319.857 454.909C318.175 460.339 316.453 472.149 323.021 475.948C329.588 479.748 338.131 475.347 341.582 472.671C346.288 469.849 353.347 462.033 343.939 453.342Z" fill="#F584AC"/>
<path d="M333.412 443.113C332.714 444.845 332.977 446.901 333.195 447.713C330.966 445.805 328.161 445.647 327.037 445.806C327.861 448.09 330.415 450.404 331.589 451.275C329.36 451.964 329.095 453.58 329.241 454.302C330.505 455.424 333.98 456.345 335.56 456.665C335.354 458.631 337.612 460.988 338.767 461.921C340.863 461.92 341.761 460.277 341.948 459.456C343.544 461.33 346.823 462.691 348.263 463.137C348.542 461.194 346.93 458.766 346.089 457.796C349.664 458.741 350.611 457.505 350.638 456.769C349.065 454.821 346.034 453.314 344.714 452.803C345.283 450.707 344.647 448.791 344.258 448.096C342.342 447.259 339.887 447.79 338.899 448.161C337.786 446.03 334.777 443.908 333.412 443.113Z" fill="#88CF9F"/>
<path d="M326.294 454.191C325.781 454.374 324.831 455.117 325.137 456.627C325.622 456.502 326.534 455.84 326.294 454.191Z" fill="#C05C7F"/>
<path d="M321.229 460.208C320.715 460.391 319.765 461.134 320.072 462.644C320.557 462.519 321.469 461.858 321.229 460.208Z" fill="#C05C7F"/>
<path d="M327.21 461.983C326.696 462.166 325.746 462.909 326.053 464.419C326.538 464.294 327.45 463.632 327.21 461.983Z" fill="#C05C7F"/>
<path d="M334.16 464.858C333.647 465.041 332.697 465.784 333.003 467.294C333.489 467.169 334.401 466.508 334.16 464.858Z" fill="#C05C7F"/>
<path d="M343.43 467.342C342.916 467.524 341.967 468.267 342.273 469.777C342.758 469.653 343.67 468.991 343.43 467.342Z" fill="#C05C7F"/>
<path d="M337.297 470.826C336.783 471.009 335.833 471.751 336.14 473.262C336.625 473.137 337.537 472.475 337.297 470.826Z" fill="#C05C7F"/>
<path d="M328.136 469.46C327.623 469.643 326.673 470.386 326.979 471.896C327.465 471.771 328.376 471.11 328.136 469.46Z" fill="#C05C7F"/>
<path d="M322.164 468.116C321.651 468.299 320.701 469.042 321.007 470.552C321.493 470.427 322.404 469.766 322.164 468.116Z" fill="#C05C7F"/>
<path d="M323.849 408.167L225.48 406.737L262.33 360.826C293.498 373.195 316.329 397.541 323.849 408.167Z" fill="#FFECEC"/>
<path d="M309.164 456.796L210 455.497L225.243 406.287L324.406 407.586L309.164 456.796Z" fill="#FFBEBE"/>
<path d="M319.29 424.104L220.34 422.117L216.076 435.882L315.133 437.525L319.29 424.104Z" fill="#FFECEC"/>
<path d="M312.681 445.44L213.731 443.453L212.771 446.55L311.828 448.193L312.681 445.44Z" fill="#FFECEC"/>
<path d="M288.573 389.569C286.816 396.181 279.613 397.014 271.568 394.877C263.524 392.739 257.685 388.44 259.442 381.828C261.199 375.216 269.992 368.397 278.037 370.534C286.081 372.672 290.33 382.957 288.573 389.569Z" fill="white"/>
<path d="M290.939 365.342C281.53 356.65 274.383 357.806 271.985 359.471C269.457 360.338 267.513 364.791 266.857 366.909C265.175 372.339 263.453 384.149 270.021 387.948C276.588 391.748 285.131 387.347 288.582 384.671C293.288 381.849 300.347 374.033 290.939 365.342Z" fill="#F584AC"/>
<path d="M280.412 355.113C279.714 356.845 279.977 358.901 280.195 359.713C277.966 357.805 275.161 357.647 274.037 357.806C274.861 360.09 277.415 362.404 278.589 363.275C276.36 363.964 276.095 365.58 276.241 366.302C277.505 367.424 280.98 368.345 282.56 368.665C282.354 370.631 284.612 372.988 285.767 373.921C287.863 373.92 288.761 372.277 288.948 371.456C290.544 373.33 293.823 374.691 295.263 375.137C295.542 373.194 293.93 370.766 293.089 369.796C296.664 370.741 297.611 369.505 297.638 368.769C296.065 366.821 293.034 365.314 291.714 364.803C292.283 362.707 291.647 360.791 291.258 360.096C289.342 359.259 286.887 359.79 285.899 360.161C284.786 358.03 281.777 355.908 280.412 355.113Z" fill="#88CF9F"/>
<path d="M273.294 366.191C272.781 366.374 271.831 367.117 272.137 368.627C272.622 368.502 273.534 367.84 273.294 366.191Z" fill="#C05C7F"/>
<path d="M268.229 372.208C267.715 372.391 266.765 373.134 267.072 374.644C267.557 374.519 268.469 373.858 268.229 372.208Z" fill="#C05C7F"/>
<path d="M274.21 373.983C273.696 374.166 272.746 374.909 273.053 376.419C273.538 376.294 274.45 375.632 274.21 373.983Z" fill="#C05C7F"/>
<path d="M281.16 376.858C280.647 377.041 279.697 377.784 280.003 379.294C280.489 379.169 281.401 378.508 281.16 376.858Z" fill="#C05C7F"/>
<path d="M290.43 379.342C289.916 379.524 288.967 380.267 289.273 381.777C289.758 381.653 290.67 380.991 290.43 379.342Z" fill="#C05C7F"/>
<path d="M284.297 382.826C283.783 383.009 282.833 383.751 283.14 385.262C283.625 385.137 284.537 384.475 284.297 382.826Z" fill="#C05C7F"/>
<path d="M275.136 381.46C274.623 381.643 273.673 382.386 273.979 383.896C274.465 383.771 275.376 383.11 275.136 381.46Z" fill="#C05C7F"/>
<path d="M269.164 380.116C268.651 380.299 267.701 381.042 268.007 382.552C268.493 382.427 269.404 381.766 269.164 380.116Z" fill="#C05C7F"/>
<path d="M514.849 282.167L416.48 280.737L453.33 234.826C484.498 247.195 507.329 271.541 514.849 282.167Z" fill="#FFECEC"/>
<path d="M500.164 330.796L401 329.497L416.243 280.287L515.406 281.586L500.164 330.796Z" fill="#FFBEBE"/>
<path d="M510.29 298.104L411.34 296.117L407.076 309.882L506.133 311.525L510.29 298.104Z" fill="#FFECEC"/>
<path d="M503.681 319.44L404.731 317.453L403.771 320.55L502.828 322.193L503.681 319.44Z" fill="#FFECEC"/>
<path d="M479.573 263.569C477.816 270.181 470.613 271.014 462.568 268.877C454.524 266.739 448.685 262.44 450.442 255.828C452.199 249.216 460.992 242.397 469.037 244.534C477.081 246.672 481.33 256.957 479.573 263.569Z" fill="white"/>
<path d="M481.939 239.342C472.53 230.65 465.383 231.806 462.985 233.471C460.457 234.338 458.513 238.791 457.857 240.909C456.175 246.339 454.453 258.149 461.021 261.948C467.588 265.748 476.131 261.347 479.582 258.671C484.288 255.849 491.347 248.033 481.939 239.342Z" fill="#F584AC"/>
<path d="M471.412 229.113C470.714 230.845 470.977 232.901 471.195 233.713C468.966 231.805 466.161 231.647 465.037 231.806C465.861 234.09 468.415 236.404 469.589 237.275C467.36 237.964 467.095 239.58 467.241 240.302C468.505 241.424 471.98 242.345 473.56 242.665C473.354 244.631 475.612 246.988 476.767 247.921C478.863 247.92 479.761 246.277 479.948 245.456C481.544 247.33 484.823 248.691 486.263 249.137C486.542 247.194 484.93 244.766 484.089 243.796C487.664 244.741 488.611 243.505 488.638 242.769C487.065 240.821 484.034 239.314 482.714 238.803C483.283 236.707 482.647 234.791 482.258 234.096C480.342 233.259 477.887 233.79 476.899 234.161C475.786 232.03 472.777 229.908 471.412 229.113Z" fill="#88CF9F"/>
<path d="M464.294 240.191C463.781 240.374 462.831 241.117 463.137 242.627C463.622 242.502 464.534 241.84 464.294 240.191Z" fill="#C05C7F"/>
<path d="M459.229 246.208C458.715 246.391 457.765 247.134 458.072 248.644C458.557 248.519 459.469 247.858 459.229 246.208Z" fill="#C05C7F"/>
<path d="M465.21 247.983C464.696 248.166 463.746 248.909 464.053 250.419C464.538 250.294 465.45 249.632 465.21 247.983Z" fill="#C05C7F"/>
<path d="M472.16 250.858C471.647 251.041 470.697 251.784 471.003 253.294C471.489 253.169 472.401 252.508 472.16 250.858Z" fill="#C05C7F"/>
<path d="M481.43 253.342C480.916 253.524 479.967 254.267 480.273 255.777C480.758 255.653 481.67 254.991 481.43 253.342Z" fill="#C05C7F"/>
<path d="M475.297 256.826C474.783 257.009 473.833 257.751 474.14 259.262C474.625 259.137 475.537 258.475 475.297 256.826Z" fill="#C05C7F"/>
<path d="M466.136 255.46C465.623 255.643 464.673 256.386 464.979 257.896C465.465 257.771 466.376 257.11 466.136 255.46Z" fill="#C05C7F"/>
<path d="M460.164 254.116C459.651 254.299 458.701 255.042 459.007 256.552C459.493 256.427 460.404 255.766 460.164 254.116Z" fill="#C05C7F"/>
<path d="M429.857 573.728L332.432 560.059L374.713 519.094C404.097 535.249 423.719 562.248 429.857 573.728Z" fill="#F5E8FF"/>
<path d="M409.23 620.149L311 606.51L332.253 559.582L430.483 573.22L409.23 620.149Z" fill="#C2B3FB"/>
<path d="M422.308 591.27L324.376 576.975L319.769 587.148L417.85 601.115L422.308 591.27Z" fill="#F5E8FF"/>
<circle cx="375.869" cy="541.529" r="11.168" transform="rotate(34.107 375.869 541.529)" fill="#EA5860"/>
<circle cx="400.789" cy="549.704" r="10.8077" transform="rotate(34.107 400.789 549.704)" fill="#E46262"/>
<path d="M380.996 537.17C388.814 531.725 405.575 519.174 410.079 512.523C414.584 505.871 412.01 510.041 410.161 512.957C407.36 520.788 402.281 537.789 404.364 543.141" stroke="#635050" stroke-width="4" stroke-linecap="round"/>
<path d="M405.498 506.772C407.994 507.737 413.86 509.824 417.362 510.456" stroke="#635050" stroke-width="6" stroke-linecap="round"/>
<path d="M266.118 443.845L188.434 504.206L188.507 445.336C220.568 435.513 253.607 440.249 266.118 443.845Z" fill="#F5E8FF"/>
<path d="M285.046 490.984L206.822 551.945L187.967 504.003L266.19 443.042L285.046 490.984Z" fill="#C2B3FB"/>
<path d="M273.442 461.481L194.955 521.772L199.043 532.165L277.398 471.539L273.442 461.481Z" fill="#F5E8FF"/>
<circle cx="205.405" cy="460.138" r="11.168" transform="rotate(-11.7275 205.405 460.138)" fill="#EA5860"/>
<circle cx="228.632" cy="447.957" r="10.8077" transform="rotate(-11.7275 228.632 447.957)" fill="#E46262"/>
<path d="M205.851 453.422C207.392 444.022 210.067 423.254 208.434 415.388C206.801 407.522 207.999 412.273 208.802 415.632C212.469 423.097 221.125 438.586 226.415 440.821" stroke="#635050" stroke-width="4" stroke-linecap="round"/>
<path d="M201.118 414.668C203.548 413.55 209.133 410.796 212.026 408.724" stroke="#635050" stroke-width="6" stroke-linecap="round"/>
<path d="M471.118 117.845L393.434 178.206L393.507 119.336C425.568 109.513 458.607 114.249 471.118 117.845Z" fill="#F5E8FF"/>
<path d="M490.046 164.984L411.822 225.945L392.967 178.003L471.19 117.042L490.046 164.984Z" fill="#C2B3FB"/>
<path d="M478.442 135.481L399.955 195.772L404.043 206.165L482.398 145.539L478.442 135.481Z" fill="#F5E8FF"/>
<circle cx="410.405" cy="134.138" r="11.168" transform="rotate(-11.7275 410.405 134.138)" fill="#EA5860"/>
<circle cx="433.632" cy="121.957" r="10.8077" transform="rotate(-11.7275 433.632 121.957)" fill="#E46262"/>
<path d="M410.851 127.422C412.392 118.022 415.067 97.2539 413.434 89.3882C411.801 81.5224 412.999 86.2735 413.802 89.6322C417.469 97.0971 426.125 112.586 431.415 114.821" stroke="#635050" stroke-width="4" stroke-linecap="round"/>
<path d="M406.118 88.6676C408.548 87.5498 414.133 84.7961 417.026 82.7238" stroke="#635050" stroke-width="6" stroke-linecap="round"/>
<path d="M396.118 393.845L318.434 454.206L318.507 395.336C350.568 385.513 383.607 390.249 396.118 393.845Z" fill="#F5E8FF"/>
<path d="M415.046 440.984L336.822 501.945L317.967 454.003L396.19 393.042L415.046 440.984Z" fill="#C2B3FB"/>
<path d="M403.442 411.481L324.955 471.772L329.043 482.165L407.398 421.539L403.442 411.481Z" fill="#F5E8FF"/>
<circle cx="335.405" cy="410.138" r="11.168" transform="rotate(-11.7275 335.405 410.138)" fill="#EA5860"/>
<circle cx="358.632" cy="397.957" r="10.8077" transform="rotate(-11.7275 358.632 397.957)" fill="#E46262"/>
<path d="M335.851 403.422C337.392 394.022 340.067 373.254 338.434 365.388C336.801 357.522 337.999 362.273 338.802 365.632C342.469 373.097 351.125 388.586 356.415 390.821" stroke="#635050" stroke-width="4" stroke-linecap="round"/>
<path d="M331.118 364.668C333.548 363.55 339.133 360.796 342.026 358.724" stroke="#635050" stroke-width="6" stroke-linecap="round"/>
<path d="M480.665 344.964L368.201 336.295L413.652 286.392C448.433 302.775 472.819 332.266 480.665 344.964Z" fill="#F5E8FF"/>
<path d="M460.383 399.561L347 390.985L367.961 335.762L481.344 344.338L460.383 399.561Z" fill="#C2B3FB"/>
<path d="M473.282 365.578L360.192 356.229L355.648 368.201L468.884 377.163L473.282 365.578Z" fill="#F5E8FF"/>
<circle cx="416.58" cy="311.982" r="12.8047" transform="rotate(30.5281 416.58 311.982)" fill="#EA5860"/>
<circle cx="445.682" cy="319.553" r="12.3917" transform="rotate(30.5281 445.682 319.553)" fill="#E46262"/>
<path d="M422.136 306.627C430.692 299.837 448.973 284.275 453.652 276.341C458.33 268.407 455.684 273.363 453.776 276.832C451.132 285.994 446.536 305.811 449.303 311.787" stroke="#635050" stroke-width="4" stroke-linecap="round"/>
<path d="M447.998 270.088C450.923 271.014 457.785 272.983 461.838 273.454" stroke="#635050" stroke-width="6" stroke-linecap="round"/>
<path d="M210.665 200.965L98.2007 192.296L143.652 142.392C178.433 158.776 202.819 188.267 210.665 200.965Z" fill="#F5E8FF"/>
<path d="M190.383 255.562L77 246.985L97.9612 191.763L211.344 200.339L190.383 255.562Z" fill="#C2B3FB"/>
<path d="M203.282 221.579L90.1923 212.23L85.6482 224.201L198.884 233.164L203.282 221.579Z" fill="#F5E8FF"/>
<circle cx="146.58" cy="167.983" r="12.8047" transform="rotate(30.5281 146.58 167.983)" fill="#EA5860"/>
<circle cx="175.682" cy="175.554" r="12.3917" transform="rotate(30.5281 175.682 175.554)" fill="#E46262"/>
<path d="M152.136 162.627C160.692 155.838 178.973 140.276 183.652 132.342C188.33 124.408 185.684 129.363 183.776 132.833C181.132 141.995 176.536 161.812 179.303 167.788" stroke="#635050" stroke-width="4" stroke-linecap="round"/>
<path d="M177.998 126.089C180.923 127.015 187.785 128.983 191.838 129.455" stroke="#635050" stroke-width="6" stroke-linecap="round"/>
<path d="M433.926 185.736L327.203 149.22L383.688 112.268C413.268 136.828 429.505 171.48 433.926 185.736Z" fill="#F5E8FF"/>
<path d="M400.636 233.527L293 196.872L327.104 148.645L434.74 185.3L400.636 233.527Z" fill="#C2B3FB"/>
<path d="M421.623 203.849L314.464 166.519L307.071 176.974L414.469 213.967L421.623 203.849Z" fill="#F5E8FF"/>
<circle cx="380.125" cy="137.777" r="12.8047" transform="rotate(45.0087 380.125 137.777)" fill="#EA5860"/>
<circle cx="406.409" cy="152.385" r="12.3917" transform="rotate(45.0087 406.409 152.385)" fill="#E46262"/>
<path d="M386.843 133.981C396.825 129.547 418.417 119.051 424.931 112.539C431.445 106.027 427.643 110.163 424.928 113.045C420.077 121.255 410.672 139.294 411.856 145.771" stroke="#635050" stroke-width="4" stroke-linecap="round"/>
<path d="M421.02 105.071C423.62 106.698 429.772 110.32 433.578 111.791" stroke="#635050" stroke-width="6" stroke-linecap="round"/>
<path d="M242.857 570.728L145.432 557.059L187.713 516.094C217.097 532.249 236.719 559.248 242.857 570.728Z" fill="#F5E8FF"/>
<path d="M222.23 617.149L124 603.51L145.253 556.582L243.483 570.22L222.23 617.149Z" fill="#C2B3FB"/>
<path d="M235.308 588.27L137.376 573.975L132.769 584.148L230.85 598.115L235.308 588.27Z" fill="#F5E8FF"/>
<circle cx="188.869" cy="538.529" r="11.168" transform="rotate(34.107 188.869 538.529)" fill="#EA5860"/>
<circle cx="213.789" cy="546.704" r="10.8077" transform="rotate(34.107 213.789 546.704)" fill="#E46262"/>
<path d="M193.996 534.17C201.814 528.725 218.575 516.174 223.079 509.523C227.584 502.871 225.01 507.041 223.161 509.957C220.36 517.788 215.281 534.789 217.364 540.141" stroke="#635050" stroke-width="4" stroke-linecap="round"/>
<path d="M218.498 503.772C220.994 504.737 226.86 506.824 230.362 507.456" stroke="#635050" stroke-width="6" stroke-linecap="round"/>
<ellipse cx="234.518" cy="351.158" rx="55.1885" ry="22.8638" transform="rotate(4.24998 234.518 351.158)" fill="#F6E7C0"/>
<ellipse cx="235.017" cy="333.802" rx="55.1885" ry="24.4406" transform="rotate(4.24998 235.017 333.802)" fill="#FBF7F7"/>
<ellipse cx="237.088" cy="316.564" rx="55.1885" ry="22.8638" transform="rotate(4.24998 237.088 316.564)" fill="#F6E7C0"/>
<path d="M251.418 301.231C251.168 308.712 243.691 311.369 234.588 311.064C225.486 310.759 218.204 307.607 218.455 300.126C218.705 292.644 226.409 283.214 235.512 283.519C244.614 283.824 251.669 293.749 251.418 301.231Z" fill="#FBF7F7"/>
<path d="M267.01 367.732C266.025 369.902 263.503 369.773 260.863 368.574C258.223 367.376 256.465 365.562 257.45 363.392C258.435 361.222 261.849 359.387 264.489 360.585C267.129 361.784 267.996 365.562 267.01 367.732Z" fill="#FBF7F7"/>
<path d="M206.827 357.331C207.011 358.52 204.976 359.307 202.377 359.709C199.779 360.11 197.601 359.973 197.417 358.784C197.234 357.595 199.103 355.731 201.701 355.33C204.3 354.928 206.644 356.141 206.827 357.331Z" fill="#FBF7F7"/>
<path d="M217.844 298.926C205.772 303.563 183.475 313.528 190.86 316.29C200.09 319.743 277.237 292.272 258.524 304.716C243.553 314.672 221.901 320.574 212.946 322.28" stroke="#EDCE91" stroke-width="3" stroke-linecap="round"/>
<path d="M258.17 327.571C266.076 324.942 280.721 319.185 276.049 317.19C270.21 314.696 219.748 330.104 232.158 322.646C242.087 316.679 256.197 313.519 262.01 312.684" stroke="#EDCE91" stroke-width="3" stroke-linecap="round"/>
<ellipse cx="379.517" cy="268.158" rx="55.1885" ry="22.8638" transform="rotate(4.24998 379.517 268.158)" fill="#F6E7C0"/>
<ellipse cx="380.017" cy="250.802" rx="55.1885" ry="24.4406" transform="rotate(4.24998 380.017 250.802)" fill="#FBF7F7"/>
<ellipse cx="382.088" cy="233.564" rx="55.1885" ry="22.8638" transform="rotate(4.24998 382.088 233.564)" fill="#F6E7C0"/>
<path d="M396.418 218.231C396.167 225.712 388.691 228.369 379.588 228.064C370.485 227.759 363.204 224.607 363.454 217.126C363.705 209.644 371.409 200.214 380.512 200.519C389.614 200.824 396.669 210.749 396.418 218.231Z" fill="#FBF7F7"/>
<path d="M412.01 284.732C411.025 286.902 408.503 286.773 405.863 285.574C403.223 284.376 401.465 282.562 402.45 280.392C403.435 278.222 406.849 276.387 409.489 277.585C412.129 278.784 412.995 282.562 412.01 284.732Z" fill="#FBF7F7"/>
<path d="M351.827 274.331C352.011 275.52 349.976 276.307 347.377 276.709C344.779 277.11 342.601 276.973 342.417 275.784C342.234 274.595 344.103 272.731 346.701 272.33C349.3 271.928 351.644 273.141 351.827 274.331Z" fill="#FBF7F7"/>
<path d="M362.844 215.926C350.772 220.563 328.475 230.528 335.859 233.29C345.09 236.743 422.236 209.272 403.524 221.716C388.553 231.672 366.901 237.574 357.946 239.28" stroke="#EDCE91" stroke-width="3" stroke-linecap="round"/>
<path d="M403.17 244.571C411.076 241.942 425.72 236.185 421.049 234.19C415.21 231.696 364.748 247.104 377.158 239.646C387.087 233.679 401.196 230.519 407.01 229.684" stroke="#EDCE91" stroke-width="3" stroke-linecap="round"/>
<ellipse cx="465.517" cy="208.158" rx="55.1885" ry="22.8638" transform="rotate(4.24998 465.517 208.158)" fill="#F6E7C0"/>
<ellipse cx="466.017" cy="190.802" rx="55.1885" ry="24.4406" transform="rotate(4.24998 466.017 190.802)" fill="#FBF7F7"/>
<ellipse cx="468.088" cy="173.564" rx="55.1885" ry="22.8638" transform="rotate(4.24998 468.088 173.564)" fill="#F6E7C0"/>
<path d="M482.418 158.231C482.167 165.712 474.691 168.369 465.588 168.064C456.485 167.759 449.204 164.607 449.454 157.126C449.705 149.644 457.409 140.214 466.512 140.519C475.614 140.824 482.669 150.749 482.418 158.231Z" fill="#FBF7F7"/>
<path d="M498.01 224.732C497.025 226.902 494.503 226.773 491.863 225.574C489.223 224.376 487.465 222.562 488.45 220.392C489.435 218.222 492.849 216.387 495.489 217.585C498.129 218.784 498.995 222.562 498.01 224.732Z" fill="#FBF7F7"/>
<path d="M437.827 214.331C438.011 215.52 435.976 216.307 433.377 216.709C430.779 217.11 428.601 216.973 428.417 215.784C428.234 214.595 430.103 212.731 432.701 212.33C435.3 211.928 437.644 213.141 437.827 214.331Z" fill="#FBF7F7"/>
<path d="M448.844 155.926C436.772 160.563 414.475 170.528 421.859 173.29C431.09 176.743 508.236 149.272 489.524 161.716C474.553 171.672 452.901 177.574 443.946 179.28" stroke="#EDCE91" stroke-width="3" stroke-linecap="round"/>
<path d="M489.17 184.571C497.076 181.942 511.72 176.185 507.049 174.19C501.21 171.696 450.748 187.104 463.158 179.646C473.087 173.679 487.196 170.519 493.01 169.684" stroke="#EDCE91" stroke-width="3" stroke-linecap="round"/>
<ellipse cx="106.843" cy="431.912" rx="48.6862" ry="20.17" transform="rotate(-24.4312 106.843 431.912)" fill="#F6E7C0"/>
<ellipse cx="99.8813" cy="418.268" rx="48.6862" ry="21.561" transform="rotate(-24.4312 99.8813 418.268)" fill="#FBF7F7"/>
<ellipse cx="94.1858" cy="404.049" rx="48.6862" ry="20.17" transform="rotate(-24.4312 94.1858 404.049)" fill="#F6E7C0"/>
<path d="M98.7848 386.116C101.758 392.012 97.0967 397.234 89.9226 400.852C82.7484 404.469 75.7784 405.113 72.8048 399.217C69.8313 393.32 71.8008 382.76 78.975 379.142C86.1491 375.525 95.8112 380.219 98.7848 386.116Z" fill="#FBF7F7"/>
<path d="M139.008 430.982C139.165 433.078 137.157 434.046 134.607 434.237C132.056 434.427 129.928 433.767 129.771 431.671C129.615 429.575 131.48 426.709 134.031 426.518C136.582 426.328 138.852 428.886 139.008 430.982Z" fill="#FBF7F7"/>
<path d="M88.0263 448.413C88.6721 449.256 87.4301 450.727 85.5889 452.137C83.7477 453.548 82.0045 454.365 81.3588 453.522C80.7131 452.679 81.3704 450.445 83.2116 449.035C85.0528 447.624 87.3806 447.57 88.0263 448.413Z" fill="#FBF7F7"/>
<path d="M71.8245 398.547C64.4451 407.247 51.4075 424.399 58.292 423.411C66.8978 422.175 114.974 368.251 105.76 385.805C98.3888 399.848 84.1297 413.583 77.9215 418.695" stroke="#EDCE91" stroke-width="3" stroke-linecap="round"/>
<path d="M115.162 403.643C120.168 398.261 129.065 387.605 124.604 388.039C119.029 388.58 86.4985 421.871 92.9457 410.844C98.1035 402.023 107.685 393.603 111.832 390.495" stroke="#EDCE91" stroke-width="3" stroke-linecap="round"/>
<ellipse cx="301.843" cy="265.912" rx="48.6862" ry="20.17" transform="rotate(-24.4312 301.843 265.912)" fill="#F6E7C0"/>
<ellipse cx="294.881" cy="252.268" rx="48.6862" ry="21.561" transform="rotate(-24.4312 294.881 252.268)" fill="#FBF7F7"/>
<ellipse cx="289.186" cy="238.049" rx="48.6862" ry="20.17" transform="rotate(-24.4312 289.186 238.049)" fill="#F6E7C0"/>
<path d="M293.785 220.116C296.758 226.012 292.097 231.234 284.923 234.852C277.748 238.469 270.778 239.113 267.805 233.217C264.831 227.32 266.801 216.76 273.975 213.142C281.149 209.525 290.811 214.219 293.785 220.116Z" fill="#FBF7F7"/>
<path d="M334.008 264.982C334.165 267.078 332.157 268.046 329.607 268.237C327.056 268.427 324.928 267.767 324.771 265.671C324.615 263.575 326.48 260.709 329.031 260.518C331.582 260.328 333.852 262.886 334.008 264.982Z" fill="#FBF7F7"/>
<path d="M283.026 282.413C283.672 283.256 282.43 284.727 280.589 286.137C278.748 287.548 277.004 288.365 276.359 287.522C275.713 286.679 276.37 284.445 278.212 283.035C280.053 281.624 282.381 281.57 283.026 282.413Z" fill="#FBF7F7"/>
<path d="M266.824 232.547C259.445 241.247 246.407 258.399 253.292 257.411C261.898 256.175 309.974 202.251 300.76 219.805C293.389 233.848 279.13 247.583 272.922 252.695" stroke="#EDCE91" stroke-width="3" stroke-linecap="round"/>
<path d="M310.162 237.643C315.168 232.261 324.065 221.605 319.604 222.039C314.029 222.58 281.498 255.871 287.946 244.844C293.103 236.023 302.685 227.603 306.832 224.495" stroke="#EDCE91" stroke-width="3" stroke-linecap="round"/>
<ellipse cx="188.843" cy="129.912" rx="48.6862" ry="20.17" transform="rotate(-24.4312 188.843 129.912)" fill="#F6E7C0"/>
<ellipse cx="181.881" cy="116.268" rx="48.6862" ry="21.561" transform="rotate(-24.4312 181.881 116.268)" fill="#FBF7F7"/>
<ellipse cx="176.186" cy="102.049" rx="48.6862" ry="20.17" transform="rotate(-24.4312 176.186 102.049)" fill="#F6E7C0"/>
<path d="M180.785 84.1155C183.758 90.0121 179.097 95.2338 171.923 98.8516C164.748 102.469 157.778 103.113 154.805 97.2168C151.831 91.3202 153.801 80.7602 160.975 77.1424C168.149 73.5246 177.811 78.219 180.785 84.1155Z" fill="#FBF7F7"/>
<path d="M221.008 128.982C221.165 131.078 219.157 132.046 216.607 132.237C214.056 132.427 211.928 131.767 211.771 129.671C211.615 127.575 213.48 124.709 216.031 124.518C218.582 124.328 220.852 126.886 221.008 128.982Z" fill="#FBF7F7"/>
<path d="M170.026 146.413C170.672 147.256 169.43 148.727 167.589 150.137C165.748 151.548 164.004 152.365 163.359 151.522C162.713 150.679 163.37 148.445 165.212 147.035C167.053 145.624 169.381 145.57 170.026 146.413Z" fill="#FBF7F7"/>
<path d="M153.824 96.5472C146.445 105.247 133.407 122.399 140.292 121.411C148.898 120.175 196.974 66.2507 187.76 83.8049C180.389 97.8482 166.13 111.583 159.922 116.695" stroke="#EDCE91" stroke-width="3" stroke-linecap="round"/>
<path d="M197.162 101.643C202.168 96.2606 211.065 85.6052 206.604 86.0386C201.029 86.5804 168.498 119.871 174.946 108.844C180.103 100.023 189.685 91.6027 193.832 88.4954" stroke="#EDCE91" stroke-width="3" stroke-linecap="round"/>
<ellipse cx="154.154" cy="515.177" rx="48.6862" ry="20.17" transform="rotate(17.4016 154.154 515.177)" fill="#F6E7C0"/>
<ellipse cx="158.066" cy="500.368" rx="48.6862" ry="21.561" transform="rotate(17.4016 158.066 500.368)" fill="#FBF7F7"/>
<ellipse cx="163.306" cy="485.975" rx="48.6862" ry="20.17" transform="rotate(17.4016 163.306 485.975)" fill="#F6E7C0"/>
<path d="M178.694 475.68C176.977 482.057 170.021 482.838 162.262 480.749C154.504 478.66 148.881 474.491 150.598 468.114C152.316 461.737 160.826 455.183 168.585 457.272C176.343 459.361 180.411 469.303 178.694 475.68Z" fill="#FBF7F7"/>
<path d="M178.74 535.937C177.458 537.603 175.317 536.986 173.29 535.427C171.262 533.867 170.116 531.956 171.398 530.29C172.68 528.624 175.981 527.732 178.009 529.292C180.036 530.851 180.022 534.271 178.74 535.937Z" fill="#FBF7F7"/>
<path d="M129.128 514.922C129.047 515.981 127.141 516.248 124.828 516.071C122.515 515.894 120.672 515.34 120.753 514.282C120.834 513.223 122.813 511.997 125.126 512.174C127.439 512.351 129.209 513.863 129.128 514.922Z" fill="#FBF7F7"/>
<path d="M150.314 466.961C139.014 468.522 117.86 472.606 123.649 476.461C130.885 481.28 202.671 473.166 184.098 480.101C169.24 485.648 149.455 486.372 141.42 486.04" stroke="#EDCE91" stroke-width="3" stroke-linecap="round"/>
<path d="M179.207 499.662C186.526 498.991 200.262 496.985 196.65 494.334C192.134 491.019 145.692 494.127 157.85 490.211C167.577 487.078 180.332 487.195 185.494 487.645" stroke="#EDCE91" stroke-width="3" stroke-linecap="round"/>
<ellipse cx="84.1876" cy="595.189" rx="48.6862" ry="20.17" transform="rotate(2.41468 84.1876 595.189)" fill="#F6E7C0"/>
<ellipse cx="84.1374" cy="579.872" rx="48.6862" ry="21.561" transform="rotate(2.41468 84.1374 579.872)" fill="#FBF7F7"/>
<ellipse cx="85.477" cy="564.614" rx="48.6862" ry="20.17" transform="rotate(2.41468 85.477 564.614)" fill="#F6E7C0"/>
<path d="M97.679 550.69C97.6692 557.293 91.152 559.847 83.1173 559.835C75.0825 559.823 68.5729 557.25 68.5827 550.646C68.5924 544.043 75.1185 535.51 83.1533 535.522C91.188 535.534 97.6888 544.086 97.679 550.69Z" fill="#FBF7F7"/>
<path d="M113.306 608.885C112.499 610.826 110.271 610.784 107.909 609.801C105.548 608.819 103.946 607.27 104.754 605.329C105.561 603.388 108.519 601.673 110.881 602.655C113.243 603.637 114.113 606.944 113.306 608.885Z" fill="#FBF7F7"/>
<path d="M59.947 601.415C60.1425 602.458 58.3702 603.209 56.0904 603.637C53.8106 604.064 51.8865 604.005 51.6909 602.962C51.4954 601.918 53.0906 600.222 55.3704 599.795C57.6503 599.368 59.7514 600.371 59.947 601.415Z" fill="#FBF7F7"/>
<path d="M68.0104 549.606C57.4976 554.036 38.1192 563.452 44.7082 565.679C52.9444 568.463 120.191 542.061 104.043 553.562C91.1241 562.763 72.1993 568.579 64.3517 570.336" stroke="#EDCE91" stroke-width="3" stroke-linecap="round"/>
<path d="M104.377 573.724C111.273 571.182 124.023 565.693 119.848 564.065C114.629 562.031 70.5701 577.043 81.3021 570.116C89.8877 564.575 102.239 561.389 107.342 560.489" stroke="#EDCE91" stroke-width="3" stroke-linecap="round"/>
<ellipse cx="461.284" cy="440.723" rx="48.6862" ry="20.17" transform="rotate(-15.0173 461.284 440.723)" fill="#A68166"/>
<ellipse cx="456.647" cy="426.124" rx="48.6862" ry="21.561" transform="rotate(-15.0173 456.647 426.124)" fill="#FFDADB"/>
<ellipse cx="453.354" cy="411.165" rx="48.6862" ry="20.17" transform="rotate(-15.0173 453.354 411.165)" fill="#A68166"/>
<path d="M460.825 394.225C462.794 400.529 457.341 404.917 449.672 407.313C442.002 409.709 435.021 409.204 433.052 402.9C431.083 396.597 434.753 386.501 442.422 384.106C450.092 381.71 458.856 387.921 460.825 394.225Z" fill="#FFDADB"/>
<path d="M493.168 445.066C492.979 447.16 490.841 447.787 488.293 447.557C485.746 447.328 483.754 446.329 483.943 444.235C484.131 442.142 486.44 439.619 488.988 439.849C491.535 440.078 493.356 442.973 493.168 445.066Z" fill="#FFDADB"/>
<path d="M432.194 402.08C423.491 409.455 407.824 424.244 414.777 424.395C423.469 424.583 479.718 379.249 467.757 395.059C458.188 407.708 441.874 418.926 434.914 422.953" stroke="#E2B2B2" stroke-width="3" stroke-linecap="round"/>
<path d="M474.115 414.195C479.934 409.704 490.453 400.647 485.982 400.345C480.394 399.968 442.856 427.489 451.02 417.666C457.551 409.807 468.381 403.067 472.98 400.68" stroke="#E2B2B2" stroke-width="3" stroke-linecap="round"/>
<ellipse cx="226.284" cy="286.723" rx="48.6862" ry="20.17" transform="rotate(-15.0173 226.284 286.723)" fill="#A68166"/>
<ellipse cx="221.647" cy="272.124" rx="48.6862" ry="21.561" transform="rotate(-15.0173 221.647 272.124)" fill="#FFDADB"/>
<ellipse cx="218.354" cy="257.165" rx="48.6862" ry="20.17" transform="rotate(-15.0173 218.354 257.165)" fill="#A68166"/>
<path d="M225.825 240.225C227.794 246.529 222.341 250.918 214.672 253.313C207.002 255.709 200.021 255.204 198.052 248.901C196.083 242.597 199.753 232.501 207.422 230.106C215.092 227.71 223.856 233.922 225.825 240.225Z" fill="#FFDADB"/>
<path d="M258.168 291.067C257.979 293.16 255.841 293.787 253.293 293.557C250.746 293.328 248.754 292.329 248.943 290.235C249.131 288.142 251.44 285.619 253.988 285.849C256.535 286.078 258.356 288.973 258.168 291.067Z" fill="#FFDADB"/>
<path d="M197.194 248.08C188.491 255.455 172.824 270.244 179.777 270.395C188.469 270.584 244.718 225.249 232.757 241.06C223.188 253.708 206.874 264.926 199.914 268.954" stroke="#E2B2B2" stroke-width="3" stroke-linecap="round"/>
<path d="M239.115 260.195C244.934 255.704 255.453 246.647 250.982 246.346C245.394 245.968 207.856 273.489 216.02 263.666C222.551 255.807 233.381 249.067 237.98 246.68" stroke="#E2B2B2" stroke-width="3" stroke-linecap="round"/>
<ellipse cx="322.038" cy="344.157" rx="55.4667" ry="22.979" transform="rotate(4.96909 322.038 344.157)" fill="#A68166"/>
<ellipse cx="322.758" cy="326.721" rx="55.4667" ry="24.5638" transform="rotate(4.96909 322.758 326.721)" fill="#FFDADB"/>
<ellipse cx="325.058" cy="309.423" rx="55.4667" ry="22.979" transform="rotate(4.96909 325.058 309.423)" fill="#A68166"/>
<path d="M339.652 294.195C339.306 301.71 331.759 304.286 322.615 303.864C313.471 303.443 306.193 300.184 306.539 292.668C306.885 285.153 314.746 275.773 323.89 276.194C333.034 276.616 339.999 286.679 339.652 294.195Z" fill="#FFDADB"/>
<path d="M354.483 361.222C353.466 363.391 350.932 363.229 348.294 361.991C345.656 360.754 343.913 358.909 344.93 356.74C345.947 354.572 349.402 352.771 352.04 354.009C354.678 355.246 355.5 359.054 354.483 361.222Z" fill="#FFDADB"/>
<path d="M305.94 291.456C293.751 295.963 271.217 305.696 278.603 308.565C287.836 312.152 365.712 285.517 346.749 297.787C331.579 307.604 309.745 313.261 300.724 314.863" stroke="#E2B2B2" stroke-width="3" stroke-linecap="round"/>
<path d="M346.106 320.751C354.084 318.209 368.873 312.608 364.204 310.544C358.368 307.964 307.461 322.812 320.027 315.473C330.08 309.602 344.299 306.604 350.153 305.839" stroke="#E2B2B2" stroke-width="3" stroke-linecap="round"/>
<ellipse cx="254.038" cy="96.1566" rx="55.4667" ry="22.979" transform="rotate(4.96909 254.038 96.1566)" fill="#A68166"/>
<ellipse cx="254.758" cy="78.721" rx="55.4667" ry="24.5638" transform="rotate(4.96909 254.758 78.721)" fill="#FFDADB"/>
<ellipse cx="257.058" cy="61.4228" rx="55.4667" ry="22.979" transform="rotate(4.96909 257.058 61.4228)" fill="#A68166"/>
<path d="M271.652 46.1947C271.306 53.7103 263.759 56.286 254.615 55.8645C245.471 55.443 238.193 52.1839 238.539 44.6683C238.885 37.1526 246.746 27.7729 255.89 28.1944C265.034 28.6159 271.999 38.6791 271.652 46.1947Z" fill="#FFDADB"/>
<path d="M286.483 113.222C285.466 115.391 282.932 115.229 280.294 113.991C277.656 112.754 275.913 110.909 276.93 108.74C277.947 106.572 281.402 104.771 284.04 106.009C286.678 107.246 287.5 111.054 286.483 113.222Z" fill="#FFDADB"/>
<path d="M237.94 43.4555C225.751 47.9633 203.217 57.696 210.603 60.5653C219.836 64.1518 297.712 37.5172 278.749 49.7874C263.579 59.6037 241.745 65.2613 232.724 66.8631" stroke="#E2B2B2" stroke-width="3" stroke-linecap="round"/>
<path d="M278.106 72.7507C286.084 70.2086 300.873 64.6081 296.204 62.5439C290.368 59.9636 239.461 74.8121 252.027 67.4733C262.08 61.6023 276.299 58.6041 282.153 57.8389" stroke="#E2B2B2" stroke-width="3" stroke-linecap="round"/>
<ellipse cx="253.038" cy="189.157" rx="55.4667" ry="22.979" transform="rotate(4.96909 253.038 189.157)" fill="#A68166"/>
<ellipse cx="253.758" cy="171.721" rx="55.4667" ry="24.5638" transform="rotate(4.96909 253.758 171.721)" fill="#FFDADB"/>
<ellipse cx="256.058" cy="154.423" rx="55.4667" ry="22.979" transform="rotate(4.96909 256.058 154.423)" fill="#A68166"/>
<path d="M270.652 139.195C270.306 146.71 262.759 149.286 253.615 148.864C244.471 148.443 237.193 145.184 237.539 137.668C237.885 130.153 245.746 120.773 254.89 121.194C264.034 121.616 270.999 131.679 270.652 139.195Z" fill="#FFDADB"/>
<path d="M285.483 206.222C284.466 208.391 281.932 208.229 279.294 206.991C276.656 205.754 274.913 203.909 275.93 201.74C276.947 199.572 280.402 197.771 283.04 199.009C285.678 200.246 286.5 204.054 285.483 206.222Z" fill="#FFDADB"/>
<path d="M236.94 136.456C224.751 140.963 202.217 150.696 209.603 153.565C218.836 157.152 296.712 130.517 277.749 142.787C262.579 152.604 240.745 158.261 231.724 159.863" stroke="#E2B2B2" stroke-width="3" stroke-linecap="round"/>
<path d="M277.106 165.751C285.084 163.209 299.873 157.608 295.204 155.544C289.368 152.964 238.461 167.812 251.027 160.473C261.08 154.602 275.299 151.604 281.153 150.839" stroke="#E2B2B2" stroke-width="3" stroke-linecap="round"/>
<ellipse cx="73.5979" cy="286.6" rx="55.4667" ry="22.979" transform="rotate(-16.7182 73.5979 286.6)" fill="#A68166"/>
<ellipse cx="67.8243" cy="270.132" rx="55.4667" ry="24.5638" transform="rotate(-16.7182 67.8243 270.132)" fill="#FFDADB"/>
<ellipse cx="63.5685" cy="253.209" rx="55.4667" ry="22.979" transform="rotate(-16.7182 63.5685 253.209)" fill="#A68166"/>
<path d="M71.5026 233.665C73.958 240.777 67.8969 245.959 59.2444 248.947C50.5919 251.934 42.6245 251.595 40.1691 244.483C37.7137 237.372 41.5519 225.751 50.2044 222.764C58.8569 219.776 69.0472 226.553 71.5026 233.665Z" fill="#FFDADB"/>
<path d="M110.053 290.468C109.909 292.859 107.495 293.645 104.586 293.469C101.678 293.294 99.3757 292.224 99.5197 289.833C99.6637 287.443 102.208 284.492 105.117 284.668C108.025 284.843 110.197 288.077 110.053 290.468Z" fill="#FFDADB"/>
<path d="M39.1647 243.578C29.5034 252.271 12.1618 269.642 20.0853 269.578C29.9898 269.499 92.5107 215.972 79.4246 234.381C68.9558 249.108 50.7577 262.434 42.9673 267.256" stroke="#E2B2B2" stroke-width="3" stroke-linecap="round"/>
<path d="M87.3125 255.957C93.7867 250.646 105.46 239.977 100.358 239.784C93.9812 239.543 52.1649 272.153 61.1296 260.69C68.3013 251.52 80.4064 243.479 85.5625 240.605" stroke="#E2B2B2" stroke-width="3" stroke-linecap="round"/>
</svg>
