<svg width="124" height="175" viewBox="0 0 124 175" fill="none" xmlns="http://www.w3.org/2000/svg">
<path d="M122.903 71.6878L0.467285 107.671L28.506 36.6394C71.8726 40.0041 109.507 61.4069 122.903 71.6878Z" fill="#F5E8FF"/>
<path d="M123.37 137.579L0 174.029V107.204L123.37 70.7532V137.579Z" fill="#C2B3FB"/>
<path d="M123.37 96.4556L0 131.971V146.458L123.37 110.475V96.4556Z" fill="#F5E8FF"/>
<circle cx="41.8775" cy="62.5309" r="14.4867" transform="rotate(9.74243 41.8775 62.5309)" fill="#EA5860"/>
<circle cx="75.6991" cy="58.8548" r="14.0194" transform="rotate(9.74243 75.6991 58.8548)" fill="#E46262"/>
<path d="M45.6037 54.6359C51.9277 44.0197 65.0164 20.2196 66.7798 9.94927C68.5431 -0.321091 67.7336 5.98291 67.1084 10.4187C67.9903 21.1708 71.0854 43.9773 76.4107 49.187" stroke="#635050" stroke-width="4" stroke-linecap="round"/>
<path d="M58.2894 5.60573C61.7543 5.41038 69.8031 4.73767 74.2791 3.60958" stroke="#635050" stroke-width="6" stroke-linecap="round"/>
</svg>
