<svg width="167" height="126" viewBox="0 0 167 126" fill="none" xmlns="http://www.w3.org/2000/svg">
<path fill-rule="evenodd" clip-rule="evenodd" d="M57.0643 44.9179C48.222 29.9101 30.3529 6.50241 10.273 1.12386C7.21986 0.275768 0.910076 -0.911557 0.095913 1.12386C-0.921795 3.66813 6.20216 26.0576 19.4324 37.7613C25.0203 42.9767 35.1899 52.0102 41.6755 56.4762C35.3069 63.6173 31.5491 72.4132 31.5491 81.9264C31.5491 105.814 55.2425 125.179 84.4699 125.179C113.697 125.179 137.391 105.814 137.391 81.9264C137.391 72.2852 133.531 63.3808 127.006 56.189C133.462 51.4518 142.442 43.4558 147.568 38.672C160.798 26.9684 167.922 4.57889 166.904 2.03462C166.09 -0.000794343 159.78 1.18653 156.727 2.03462C137.276 7.2448 119.899 29.373 110.793 44.3954C103.04 40.7554 94.0522 38.6738 84.4699 38.6738C74.4379 38.6738 65.0579 40.9553 57.0643 44.9179Z" fill="#3F3A3A"/>
</svg>
