<svg width="430" height="183" viewBox="0 0 430 183" fill="none" xmlns="http://www.w3.org/2000/svg">
<rect x="-25" y="21" width="501" height="324" fill="#8CFF84"/>
<path d="M370.5 95.5C371.5 88.5 367.581 82.1304 363 79C375.686 85.6783 377 95.5 377 95.5C377 95.5 377.114 73.4857 385.5 68C380.143 79.8478 379.5 91.5 380.143 95.5L377 95.5C374.657 95.4857 370.5 95.5 370.5 95.5Z" fill="#3EDF73"/>
<path d="M393.5 79.8478C384.386 85.5 382.929 91 382.929 95.5H387.157C384.62 91.3261 390.329 83.3261 393.5 79.8478Z" fill="#3EDF73"/>
<path d="M352.656 30C353.41 24.9091 350.454 20.2767 347 18C356.566 22.8569 357.557 30 357.557 30C357.557 30 357.644 13.9896 363.967 10C359.927 18.6166 359.443 27.0909 359.927 30L357.557 30C355.791 29.9896 352.656 30 352.656 30Z" fill="#3EDF73"/>
<path d="M370 18.6166C363.127 22.7273 362.028 26.7273 362.028 30H365.217C363.304 26.9644 367.608 21.1462 370 18.6166Z" fill="#3EDF73"/>
<path d="M58.6557 26C59.4098 20.6545 56.4545 15.7905 53 13.4C62.5663 18.4998 63.5574 26 63.5574 26C63.5574 26 63.6436 9.18909 69.9672 5C65.9274 14.0474 65.4426 22.9455 65.9274 26L63.5574 26C61.7906 25.9891 58.6557 26 58.6557 26Z" fill="#3EDF73"/>
<path d="M76 14.0474C69.1269 18.3636 68.0281 22.5636 68.0281 26H71.2169C69.3036 22.8126 73.6084 16.7036 76 14.0474Z" fill="#3EDF73"/>
<path d="M68.5 97.5C69.5 90.5 65.581 84.1304 61 81C73.6857 87.6783 75 97.5 75 97.5C75 97.5 75.1143 75.4857 83.5 70C78.1429 81.8478 77.5 93.5 78.1429 97.5L75 97.5C72.6571 97.4857 68.5 97.5 68.5 97.5Z" fill="#3EDF73"/>
<path d="M91.5 81.8478C82.3857 87.5 80.9286 93 80.9286 97.5H85.1571C82.62 93.3261 88.3286 85.3261 91.5 81.8478Z" fill="#3EDF73"/>
<path d="M391.743 97C391.743 88.6522 382.581 80.3043 378 77.1739C390.686 83.8522 396.676 93.1739 398.086 97C397.381 91.7826 397.874 79.6783 405.486 73C402.314 78.913 397.874 91.9913 401.257 97H398.086H391.743Z" fill="#3EDF73"/>
<path d="M415 81.3478C407.389 84.687 404.781 93.1739 404.429 97H408.657C406.12 92.8261 411.829 84.8261 415 81.3478Z" fill="#3EDF73"/>
<path d="M44.4 29C44.4 22.7391 37.4667 16.4783 34 14.1304C43.6 19.1391 48.1333 26.1304 49.2 29C48.6667 25.087 49.04 16.0087 54.8 11C52.4 15.4348 49.04 25.2435 51.6 29H49.2H44.4Z" fill="#3EDF73"/>
<path d="M62 17.2609C56.24 19.7652 54.2667 26.1304 54 29H57.2C55.28 25.8696 59.6 19.8696 62 17.2609Z" fill="#3EDF73"/>
<path d="M86.7429 97C86.7429 88.6522 77.581 80.3043 73 77.1739C85.6857 83.8522 91.6762 93.1739 93.0857 97C92.381 91.7826 92.8743 79.6783 100.486 73C97.3143 78.913 92.8743 91.9913 96.2571 97H93.0857H86.7429Z" fill="#3EDF73"/>
<path d="M110 81.3478C102.389 84.687 99.781 93.1739 99.4286 97H103.657C101.12 92.8261 106.829 84.8261 110 81.3478Z" fill="#3EDF73"/>
<path d="M312.457 156C312.457 142.783 326.819 129.565 334 124.609C314.114 135.183 304.724 149.942 302.514 156C303.619 147.739 302.846 128.574 290.914 118C295.886 127.362 302.846 148.07 297.543 156H302.514H312.457Z" fill="#3EDF73"/>
<path d="M276 131.217C287.931 136.504 292.019 149.942 292.571 156H285.943C289.92 149.391 280.971 136.725 276 131.217Z" fill="#3EDF73"/>
<path d="M284.639 157C283.525 149.109 287.893 141.929 293 138.4C278.859 145.928 277.393 157 277.393 157C277.393 157 277.266 132.184 267.918 126C273.89 139.356 274.607 152.491 273.89 157L277.393 157C280.005 156.984 284.639 157 284.639 157Z" fill="#3EDF73"/>
<path d="M259 139.356C269.16 145.727 270.785 151.927 270.785 157H266.071C268.899 152.295 262.535 143.277 259 139.356Z" fill="#3EDF73"/>
<path d="M171.426 183C170.016 173.073 175.542 164.04 182 159.6C164.115 169.071 162.262 183 162.262 183C162.262 183 162.101 151.78 150.279 144C157.831 160.802 158.738 177.327 157.831 183L162.262 183C165.565 182.98 171.426 183 171.426 183Z" fill="#3EDF73"/>
<path d="M139 160.802C151.85 168.818 153.904 176.618 153.904 183H147.942C151.519 177.081 143.471 165.735 139 160.802Z" fill="#3EDF73"/>
<path d="M69.2775 129.539C64.1483 137.407 55.09 156.272 59.8907 168.788" stroke="#4CCD76" stroke-linecap="round"/>
<path d="M67.8429 132.269C69.7585 131.834 74.0464 131.427 75.8729 133.284C78.156 135.605 68.9648 136.984 67.8429 132.269Z" fill="#5ED284"/>
<path d="M61.4004 146.601C59.4837 147.008 55.1713 147.414 53.2546 145.791C50.8587 143.761 60.0825 142.44 61.4004 146.601Z" fill="#5ED284"/>
<path d="M58.7962 156.316C60.7248 155.971 65.048 155.701 66.9121 157.385C69.2423 159.49 59.9811 160.517 58.7962 156.316Z" fill="#5ED284"/>
<path d="M64.7333 136.449C65.0783 135.628 69.9783 135.937 71.5839 138.362C73.5909 141.392 64.8344 141.412 64.7333 136.449Z" fill="#5ED284"/>
<path d="M63.1872 140.474C63.6824 139.734 68.4336 140.972 69.5477 143.658C70.9403 147.015 62.3406 145.366 63.1872 140.474Z" fill="#5ED284"/>
<path d="M62.8011 142.191C62.8396 143.081 58.2764 144.893 55.7894 143.386C52.6808 141.502 60.5907 137.746 62.8011 142.191Z" fill="#5ED284"/>
<path d="M59.5558 152.05C59.7591 151.183 64.6421 150.671 66.6296 152.793C69.114 155.447 60.4835 156.927 59.5558 152.05Z" fill="#5ED284"/>
<path d="M58.7656 129.987C59.1107 129.166 64.595 130.687 66.2006 133.112C68.2076 136.142 56.2995 133.253 58.7656 129.987Z" fill="#5ED284"/>
<path d="M53.3766 148.285C53.5881 147.497 58.0079 148 59.4455 149.915C61.2426 152.309 51.6759 151.587 53.3766 148.285Z" fill="#5ED284"/>
<path d="M52.3531 153.322C52.5646 152.535 56.9844 153.037 58.422 154.952C60.2191 157.346 50.6524 156.625 52.3531 153.322Z" fill="#5ED284"/>
<path d="M69.2344 151.123C69.0435 151.993 63.3745 151.488 61.3569 149.394C58.8349 146.777 71.0691 147.465 69.2344 151.123Z" fill="#5ED284"/>
<path d="M56.8128 134.634C57.1578 133.813 62.6422 135.334 64.2477 137.759C66.2547 140.789 54.3467 137.9 56.8128 134.634Z" fill="#5ED284"/>
<path d="M92.1127 17.189C90.718 24.8594 96.7149 47.2442 95.0414 48.9178" stroke="#4CCD76" stroke-linecap="round"/>
<path d="M92.7297 31.455C94.0556 30.5057 97.206 28.8156 99.2007 29.6489C101.694 30.6905 95.1043 34.7016 92.7297 31.455Z" fill="#5ED284"/>
<path d="M94.9121 42.2319C93.5768 43.1602 90.409 44.8606 88.4197 44.236C85.933 43.4553 92.5635 39.4731 94.9121 42.2319Z" fill="#5ED284"/>
<path d="M91.6942 20.9406C91.6942 20.2014 95.5434 18.8626 97.5517 20.2014C100.062 21.875 93.3678 24.7062 91.6942 20.9406Z" fill="#5ED284"/>
<path d="M94.5598 39.3257C94.7007 38.6 98.7345 38.0193 100.451 39.7164C102.596 41.8377 95.485 43.3411 94.5598 39.3257Z" fill="#5ED284"/>
<path d="M92.4329 27.1735C92.7485 27.842 89.8393 30.696 87.4516 30.3426C84.4671 29.901 89.3119 24.4829 92.4329 27.1735Z" fill="#5ED284"/>
<path d="M93.5863 36.2176C93.463 35.4887 97.0349 33.5265 99.2384 34.5116C101.993 35.7429 95.8646 39.6511 93.5863 36.2176Z" fill="#5ED284"/>
<path d="M85.0497 23.7725C85.0497 23.0333 89.7357 22.4337 91.7439 23.7726C94.2543 25.4461 84.2129 27.0648 85.0497 23.7725Z" fill="#5ED284"/>
<path d="M87.6469 35.3233C87.5556 34.6528 91.0994 33.6161 92.8154 34.6192C94.9603 35.8732 87.4077 38.3975 87.6469 35.3233Z" fill="#5ED284"/>
<path d="M88.4837 38.6704C88.3924 37.9999 91.9362 36.9632 93.6521 37.9664C95.7971 39.2203 88.2444 41.7447 88.4837 38.6704Z" fill="#5ED284"/>
<path d="M93.1633 32.3955C93.297 33.1225 88.7968 34.5597 86.5795 33.6062C83.8079 32.4142 93.3908 29.0061 93.1633 32.3955Z" fill="#5ED284"/>
<path d="M92.5807 25.4461C92.5807 24.7069 97.2667 24.1073 99.2749 25.4461C101.785 27.1197 91.7439 28.7384 92.5807 25.4461Z" fill="#5ED284"/>
<path d="M333.805 18.2986C337.148 24.4064 342.771 38.8664 338.51 47.844" stroke="#4CCD76" stroke-linecap="round"/>
<path d="M334.71 20.3987C333.319 19.9679 330.172 19.4233 328.717 20.6917C326.897 22.2771 333.612 23.8195 334.71 20.3987Z" fill="#5ED284"/>
<path d="M338.656 31.3587C340.05 31.7682 343.214 32.3143 344.724 31.2232C346.61 29.8594 339.867 28.3579 338.656 31.3587Z" fill="#5ED284"/>
<path d="M340.029 38.6877C338.623 38.3227 335.442 37.8775 333.969 39.016C332.127 40.4391 338.914 41.7255 340.029 38.6877Z" fill="#5ED284"/>
<path d="M336.77 23.6648C336.562 23.0383 332.923 22.9884 331.598 24.6891C329.942 26.8149 336.413 27.3278 336.77 23.6648Z" fill="#5ED284"/>
<path d="M337.684 26.7284C337.36 26.1531 333.778 26.7978 332.802 28.7197C331.581 31.1222 338.032 30.3923 337.684 26.7284Z" fill="#5ED284"/>
<path d="M337.872 28.0192C337.793 28.6747 341.063 30.2736 342.987 29.3013C345.392 28.0859 339.759 24.8593 337.872 28.0192Z" fill="#5ED284"/>
<path d="M339.71 35.4913C339.609 34.8388 336.029 34.1824 334.439 35.6382C332.451 37.458 338.747 39.0433 339.71 35.4913Z" fill="#5ED284"/>
<path d="M341.549 19.2281C341.341 18.6016 337.2 19.414 335.876 21.1146C334.22 23.2405 343.186 21.7825 341.549 19.2281Z" fill="#5ED284"/>
<path d="M344.492 33.0596C344.38 32.4656 341.084 32.5857 339.913 33.9195C338.448 35.5867 345.561 35.5977 344.492 33.0596Z" fill="#5ED284"/>
<path d="M344.961 36.8413C344.85 36.2473 341.554 36.3673 340.383 37.7011C338.918 39.3683 346.031 39.3793 344.961 36.8413Z" fill="#5ED284"/>
<path d="M332.609 34.2551C332.7 34.909 336.919 34.8588 338.53 33.4258C340.543 31.6345 331.461 31.4467 332.609 34.2551Z" fill="#5ED284"/>
<path d="M342.728 22.774C342.52 22.1475 338.38 22.9599 337.055 24.6605C335.399 26.7864 344.365 25.3284 342.728 22.774Z" fill="#5ED284"/>
<path d="M389.882 142C391.724 152.134 383.801 181.707 386.012 183.918" stroke="#4CCD76" stroke-linecap="round"/>
<path d="M389.066 160.847C387.315 159.593 383.153 157.36 380.517 158.461C377.223 159.837 385.929 165.136 389.066 160.847Z" fill="#5ED284"/>
<path d="M386.183 175.085C387.947 176.311 392.132 178.558 394.761 177.733C398.046 176.701 389.286 171.44 386.183 175.085Z" fill="#5ED284"/>
<path d="M390.434 146.956C390.434 145.98 385.349 144.211 382.696 145.98C379.379 148.191 388.223 151.931 390.434 146.956Z" fill="#5ED284"/>
<path d="M386.649 171.245C386.463 170.287 381.133 169.52 378.866 171.762C376.032 174.564 385.426 176.55 386.649 171.245Z" fill="#5ED284"/>
<path d="M389.459 155.191C389.042 156.074 392.885 159.844 396.039 159.378C399.982 158.794 393.582 151.636 389.459 155.191Z" fill="#5ED284"/>
<path d="M387.935 167.139C388.098 166.176 383.379 163.584 380.468 164.885C376.829 166.512 384.925 171.675 387.935 167.139Z" fill="#5ED284"/>
<path d="M399.213 150.698C399.213 149.721 393.022 148.929 390.369 150.698C387.052 152.909 400.318 155.047 399.213 150.698Z" fill="#5ED284"/>
<path d="M395.781 165.958C395.902 165.072 391.22 163.702 388.953 165.028C386.119 166.684 396.097 170.019 395.781 165.958Z" fill="#5ED284"/>
<path d="M394.676 170.38C394.797 169.494 390.115 168.124 387.848 169.45C385.014 171.106 394.992 174.441 394.676 170.38Z" fill="#5ED284"/>
<path d="M388.494 162.09C388.317 163.05 394.262 164.949 397.192 163.689C400.853 162.115 388.193 157.612 388.494 162.09Z" fill="#5ED284"/>
<path d="M389.263 152.909C389.263 151.932 383.073 151.14 380.419 152.909C377.103 155.12 390.369 157.258 389.263 152.909Z" fill="#5ED284"/>
<path d="M325.963 101.571C326.563 98.9577 330.713 95.8155 332.713 94.571C326.113 98.3044 323.963 100.793 323.713 101.571H325.963Z" fill="#28D360"/>
<path d="M324.005 97.8186C325.092 94.1392 328.889 90.1472 330.652 88.6111C324.928 93.1438 323.379 96.0175 323.003 97.1036L324.005 97.8186Z" fill="#28D360"/>
<path d="M323.232 96.1456C322.843 92.2988 320.312 87.6885 319.096 85.8643C323.107 91.3345 323.924 95.1815 324.083 96.326L323.232 96.1456Z" fill="#28D360"/>
<path d="M322.463 101.571C321.863 96.7177 317.713 90.8822 315.713 88.571C322.313 95.5044 324.463 100.127 324.713 101.571H322.463Z" fill="#28D360"/>
<path d="M325.713 101.571C323.313 99.2347 324.213 85.6946 325.713 80.9895C325.213 79.6916 325.413 81.5178 324.213 85.0222C323.013 88.5267 322.713 97.515 322.713 101.571H325.713Z" fill="#28D360"/>
<ellipse cx="5.02261" cy="5" rx="5.02261" ry="5" transform="matrix(-0.688341 0.725387 0.725387 0.688341 321.915 64.2036)" fill="#DF94CF"/>
<ellipse cx="5.06762" cy="5" rx="5.06762" ry="5" transform="matrix(-0.977072 -0.212911 -0.212911 0.977072 334.699 65.158)" fill="#DF94CF"/>
<ellipse cx="5.10057" cy="5" rx="5.10057" ry="5" transform="matrix(0.0335833 0.999436 0.999436 -0.0335833 315.113 72.3596)" fill="#DF94CF"/>
<ellipse cx="4.5" cy="5" rx="4.5" ry="5" transform="matrix(-0.956459 -0.291865 -0.291865 0.956459 332.029 78.9653)" fill="#DF94CF"/>
<ellipse cx="4.81899" cy="5" rx="4.81899" ry="5" transform="matrix(-0.601444 0.798915 0.798915 0.601444 330.741 73.1296)" fill="#DF94CF"/>
<ellipse cx="4.64111" cy="5" rx="4.64111" ry="5" transform="matrix(0.129475 0.991583 0.991583 -0.129475 328.481 70.3569)" fill="#DF94CF"/>
<ellipse cx="4.20733" cy="3.6928" rx="4.20733" ry="3.6928" transform="matrix(-0.956277 -0.292462 -0.292462 0.956277 330.748 72.2556)" fill="#D37AC0"/>
<ellipse cx="3.46205" cy="2.95434" rx="3.46205" ry="2.95434" transform="matrix(-0.988466 0.151446 0.151446 0.988466 327.296 74.0464)" fill="#D37AC0"/>
<ellipse cx="4" cy="3" rx="4" ry="3" transform="matrix(-0.207488 0.978238 0.978238 0.207488 324.445 73.7412)" fill="#D37AC0"/>
<ellipse cx="3.5" cy="4" rx="3.5" ry="4" transform="matrix(-0.770768 0.637116 0.637116 0.770768 328.78 72.0391)" fill="#D37AC0"/>
<ellipse cx="4" cy="3" rx="4" ry="3" transform="matrix(-0.920898 0.389803 0.389803 0.920898 331.702 70.593)" fill="#D37AC0"/>
<ellipse cx="3.67199" cy="4" rx="3.67199" ry="4" transform="matrix(-0.985359 -0.170491 -0.170491 0.985359 331.761 70.8564)" fill="#D37AC0"/>
<ellipse cx="4.5" cy="4" rx="4.5" ry="4" transform="matrix(-0.953342 0.301891 0.301891 0.953342 329.986 70.759)" fill="#FFDADB"/>
<path d="M340.49 90.3423C339.97 88.0788 336.376 85.3574 334.644 84.2795C340.36 87.513 342.222 89.6686 342.439 90.3423H340.49Z" fill="#28D360"/>
<path d="M342.333 87.3826C341.129 84.2789 337.283 81.1337 335.51 79.9491C341.248 83.4003 342.867 85.7649 343.276 86.6764L342.333 87.3826Z" fill="#28D360"/>
<path d="M343.194 84.1342C344.016 81.4157 346.776 78.4737 348.054 77.3425C343.911 80.6788 342.72 83.3319 342.439 84.1342L343.194 84.1342Z" fill="#28D360"/>
<path d="M343.521 90.3423C344.041 86.7855 347.635 82.5089 349.368 80.8152C343.651 85.8963 341.789 89.2838 341.573 90.3423H343.521Z" fill="#28D360"/>
<path d="M340.707 90.3422C342.785 88.3187 342.006 76.5916 340.707 72.5165C341.14 71.3924 340.966 72.974 342.006 76.0092C343.045 79.0445 343.305 86.8292 343.305 90.3422H340.707Z" fill="#28D360"/>
<ellipse cx="344.604" cy="63.4931" rx="3.89747" ry="4.33052" transform="rotate(22.5219 344.604 63.4931)" fill="#DF94CF"/>
<ellipse cx="337.75" cy="64.0937" rx="3.89747" ry="4.33052" transform="rotate(-36.2722 337.75 64.0937)" fill="#DF94CF"/>
<ellipse cx="348.068" cy="67.8237" rx="3.89747" ry="4.33052" transform="rotate(48.5692 348.068 67.8237)" fill="#DF94CF"/>
<ellipse cx="344.8" cy="73.6114" rx="3.89747" ry="4.33052" transform="rotate(-5.54358 344.8 73.6114)" fill="#DF94CF"/>
<ellipse cx="339.288" cy="73.5018" rx="3.89747" ry="4.33052" transform="rotate(29.0474 339.288 73.5018)" fill="#DF94CF"/>
<ellipse cx="335.823" cy="70.0373" rx="3.89747" ry="4.33052" transform="rotate(49.8201 335.823 70.0373)" fill="#DF94CF"/>
<ellipse cx="342.439" cy="67.3906" rx="3.46441" ry="3.03136" transform="rotate(-28.0948 342.439 67.3906)" fill="#D37AC0"/>
<ellipse cx="344.598" cy="69.0152" rx="2.99849" ry="2.55877" transform="rotate(-15.2685 344.598 69.0152)" fill="#D37AC0"/>
<ellipse cx="343.112" cy="70.4214" rx="3.46441" ry="2.59831" transform="rotate(54.0456 343.112 70.4214)" fill="#D37AC0"/>
<ellipse cx="341.14" cy="70.4219" rx="3.03136" ry="3.46441" transform="rotate(15.5979 341.14 70.4219)" fill="#D37AC0"/>
<ellipse cx="339.84" cy="68.6898" rx="3.46441" ry="2.59831" transform="rotate(-13.787 339.84 68.6898)" fill="#D37AC0"/>
<ellipse cx="340.462" cy="67.8174" rx="2.59831" ry="3.46441" transform="rotate(-33.7956 340.462 67.8174)" fill="#D37AC0"/>
<ellipse cx="342.006" cy="68.6898" rx="3.89747" ry="3.46441" fill="#FFDADB"/>
<path d="M92.636 164.571C92.036 161.958 87.886 158.815 85.886 157.571C92.486 161.304 94.636 163.793 94.886 164.571H92.636Z" fill="#28D360"/>
<path d="M94.594 160.819C93.5068 157.139 89.7098 153.147 87.9472 151.611C93.6707 156.144 95.2202 159.017 95.5956 160.104L94.594 160.819Z" fill="#28D360"/>
<path d="M95.3669 159.146C95.756 155.299 98.2866 150.689 99.5033 148.864C95.4923 154.334 94.6747 158.181 94.5159 159.326L95.3669 159.146Z" fill="#28D360"/>
<path d="M96.136 164.571C96.736 159.718 100.886 153.882 102.886 151.571C96.286 158.504 94.136 163.127 93.886 164.571H96.136Z" fill="#28D360"/>
<path d="M92.886 164.571C95.286 162.235 94.386 148.695 92.886 143.99C93.386 142.692 93.186 144.518 94.386 148.022C95.586 151.527 95.886 160.515 95.886 164.571H92.886Z" fill="#28D360"/>
<ellipse cx="96.5148" cy="134.289" rx="5.02261" ry="5" transform="rotate(46.5011 96.5148 134.289)" fill="#F4E666"/>
<ellipse cx="89.9165" cy="131.964" rx="5.06762" ry="5" transform="rotate(-12.293 89.9165 131.964)" fill="#F4E666"/>
<ellipse cx="98.3172" cy="140.289" rx="5.10057" ry="5" transform="rotate(91.9245 98.3172 140.289)" fill="#F4E666"/>
<ellipse cx="92.3337" cy="145.434" rx="4.5" ry="5" transform="rotate(-16.9697 92.3337 145.434)" fill="#F4E666"/>
<ellipse cx="86.7615" cy="142.987" rx="4.81899" ry="5" transform="rotate(53.0266 86.7615 142.987)" fill="#F4E666"/>
<ellipse cx="84.5588" cy="137.312" rx="4.64111" ry="5" transform="rotate(97.4393 84.5588 137.312)" fill="#F4E666"/>
<ellipse cx="92.9546" cy="137.556" rx="4.20733" ry="3.6928" transform="rotate(-17.0054 92.9546 137.556)" fill="#EED919"/>
<ellipse cx="94.2775" cy="140.491" rx="3.46205" ry="2.95434" transform="rotate(8.71071 94.2775 140.491)" fill="#EED919"/>
<ellipse cx="92.0493" cy="141.277" rx="4" ry="3" transform="rotate(78.0248 92.0493 141.277)" fill="#EED919"/>
<ellipse cx="89.9685" cy="140.352" rx="3.5" ry="4" transform="rotate(39.5771 89.9685 140.352)" fill="#EED919"/>
<ellipse cx="89.4108" cy="137.915" rx="4" ry="3" transform="rotate(22.9423 89.4108 137.915)" fill="#EED919"/>
<ellipse cx="91.1384" cy="137.172" rx="3.67199" ry="4" transform="rotate(-9.81638 91.1384 137.172)" fill="#EED919"/>
<ellipse cx="91.6951" cy="138.931" rx="4.5" ry="4" transform="rotate(17.5712 91.6951 138.931)" fill="#FFF2B3"/>
<path d="M128.477 161.342C129.077 158.729 133.227 155.587 135.227 154.342C128.627 158.076 126.477 160.565 126.227 161.342H128.477Z" fill="#28D360"/>
<path d="M126.349 157.925C127.739 154.341 132.18 150.71 134.227 149.342C127.602 153.327 125.732 156.057 125.26 157.11L126.349 157.925Z" fill="#28D360"/>
<path d="M125.355 154.174C124.406 151.036 121.218 147.639 119.743 146.333C124.527 150.185 125.901 153.248 126.227 154.174L125.355 154.174Z" fill="#28D360"/>
<path d="M124.977 161.342C124.377 157.236 120.227 152.298 118.227 150.342C124.827 156.209 126.977 160.12 127.227 161.342H124.977Z" fill="#28D360"/>
<path d="M128.227 161.342C125.827 159.006 126.727 145.466 128.227 140.761C127.727 139.463 127.927 141.289 126.727 144.793C125.527 148.298 125.227 157.286 125.227 161.342H128.227Z" fill="#28D360"/>
<ellipse cx="4.5" cy="5" rx="4.5" ry="5" transform="matrix(-0.923733 0.383037 0.383037 0.923733 125.968 124)" fill="#F4E666"/>
<ellipse cx="4.5" cy="5" rx="4.5" ry="5" transform="matrix(-0.806215 -0.591622 -0.591622 0.806215 138.227 129.667)" fill="#F4E666"/>
<ellipse cx="4.5" cy="5" rx="4.5" ry="5" transform="matrix(-0.661716 0.749755 0.749755 0.661716 118.955 128.66)" fill="#F4E666"/>
<ellipse cx="4.5" cy="5" rx="4.5" ry="5" transform="matrix(-0.995323 -0.0966029 -0.0966029 0.995323 128.462 137.483)" fill="#F4E666"/>
<ellipse cx="4.5" cy="5" rx="4.5" ry="5" transform="matrix(-0.874218 0.485533 0.485533 0.874218 131.371 135.342)" fill="#F4E666"/>
<ellipse cx="4.5" cy="5" rx="4.5" ry="5" transform="matrix(-0.64519 0.764022 0.764022 0.64519 132.948 131.234)" fill="#F4E666"/>
<ellipse cx="4" cy="3.5" rx="4" ry="3.5" transform="matrix(-0.882169 -0.470932 -0.470932 0.882169 131.403 133.638)" fill="#EED919"/>
<ellipse cx="3.46205" cy="2.95434" rx="3.46205" ry="2.95434" transform="matrix(-0.964702 -0.263342 -0.263342 0.964702 127.851 134.78)" fill="#EED919"/>
<ellipse cx="4" cy="3" rx="4" ry="3" transform="matrix(-0.587141 0.809485 0.809485 0.587141 125.37 133.342)" fill="#EED919"/>
<ellipse cx="3.5" cy="4" rx="3.5" ry="4" transform="matrix(-0.963172 0.268885 0.268885 0.963172 130.022 133.549)" fill="#EED919"/>
<ellipse cx="4" cy="3" rx="4" ry="3" transform="matrix(-0.971188 -0.238313 -0.238313 0.971188 133.826 134.382)" fill="#EED919"/>
<ellipse cx="3" cy="4" rx="3" ry="4" transform="matrix(-0.831028 -0.556231 -0.556231 0.831028 133.227 133.68)" fill="#EED919"/>
<ellipse cx="4.5" cy="4" rx="4.5" ry="4" transform="matrix(-1 0 0 1 131.227 132.342)" fill="#FFF2B3"/>
<path d="M107.636 173.571C107.036 170.958 102.886 167.815 100.886 166.571C107.486 170.304 109.636 172.793 109.886 173.571H107.636Z" fill="#28D360"/>
<path d="M109.594 169.819C108.507 166.139 104.71 162.147 102.947 160.611C108.671 165.144 110.22 168.017 110.596 169.104L109.594 169.819Z" fill="#28D360"/>
<path d="M110.367 168.146C110.756 164.299 113.287 159.689 114.503 157.864C110.492 163.334 109.675 167.181 109.516 168.326L110.367 168.146Z" fill="#28D360"/>
<path d="M111.136 173.571C111.736 168.718 115.886 162.882 117.886 160.571C111.286 167.504 109.136 172.127 108.886 173.571H111.136Z" fill="#28D360"/>
<path d="M107.886 173.571C110.286 171.235 109.386 157.695 107.886 152.99C108.386 151.692 108.186 153.518 109.386 157.022C110.586 160.527 110.886 169.515 110.886 173.571H107.886Z" fill="#28D360"/>
<ellipse cx="111.515" cy="143.289" rx="5.02261" ry="5" transform="rotate(46.5011 111.515 143.289)" fill="#F4E666"/>
<ellipse cx="104.916" cy="140.964" rx="5.06762" ry="5" transform="rotate(-12.293 104.916 140.964)" fill="#F4E666"/>
<ellipse cx="113.317" cy="149.289" rx="5.10057" ry="5" transform="rotate(91.9245 113.317 149.289)" fill="#F4E666"/>
<ellipse cx="107.334" cy="154.434" rx="4.5" ry="5" transform="rotate(-16.9697 107.334 154.434)" fill="#F4E666"/>
<ellipse cx="101.761" cy="151.987" rx="4.81899" ry="5" transform="rotate(53.0266 101.761 151.987)" fill="#F4E666"/>
<ellipse cx="99.5588" cy="146.312" rx="4.64111" ry="5" transform="rotate(97.4393 99.5588 146.312)" fill="#F4E666"/>
<ellipse cx="107.955" cy="146.556" rx="4.20733" ry="3.6928" transform="rotate(-17.0054 107.955 146.556)" fill="#EED919"/>
<ellipse cx="109.277" cy="149.491" rx="3.46205" ry="2.95434" transform="rotate(8.71071 109.277 149.491)" fill="#EED919"/>
<ellipse cx="107.049" cy="150.277" rx="4" ry="3" transform="rotate(78.0248 107.049 150.277)" fill="#EED919"/>
<ellipse cx="104.969" cy="149.352" rx="3.5" ry="4" transform="rotate(39.5771 104.969 149.352)" fill="#EED919"/>
<ellipse cx="104.411" cy="146.915" rx="4" ry="3" transform="rotate(22.9423 104.411 146.915)" fill="#EED919"/>
<ellipse cx="106.138" cy="146.172" rx="3.67199" ry="4" transform="rotate(-9.81638 106.138 146.172)" fill="#EED919"/>
<ellipse cx="106.695" cy="147.931" rx="4.5" ry="4" transform="rotate(17.5712 106.695 147.931)" fill="#FFF2B3"/>
<path d="M400.319 32.0161C399.821 29.8469 396.376 27.2386 394.716 26.2057C400.194 29.3046 401.979 31.3705 402.186 32.0161H400.319Z" fill="#28D360"/>
<path d="M401.944 28.9013C401.041 25.8472 397.89 22.5336 396.427 21.2585C401.177 25.0209 402.464 27.4063 402.775 28.3078L401.944 28.9013Z" fill="#28D360"/>
<path d="M402.585 27.5126C402.908 24.3195 405.009 20.4928 406.019 18.9785C402.689 23.5191 402.011 26.7123 401.879 27.6624L402.585 27.5126Z" fill="#28D360"/>
<path d="M403.224 32.0161C403.722 27.9875 407.167 23.1437 408.827 21.2253C403.348 26.9804 401.564 30.8171 401.356 32.0161H403.224Z" fill="#28D360"/>
<path d="M400.526 32.0161C402.518 30.0769 401.771 18.8378 400.526 14.9323C400.941 13.855 400.775 15.3708 401.771 18.2797C402.767 21.1886 403.016 28.6494 403.016 32.0161H400.526Z" fill="#28D360"/>
<ellipse cx="403.538" cy="6.88" rx="4.16904" ry="4.15028" transform="rotate(46.5011 403.538 6.88)" fill="#F4E666"/>
<ellipse cx="398.061" cy="4.95067" rx="4.20641" ry="4.15028" transform="rotate(-12.293 398.061 4.95067)" fill="#F4E666"/>
<ellipse cx="405.034" cy="11.8609" rx="4.23376" ry="4.15028" transform="rotate(91.9245 405.034 11.8609)" fill="#F4E666"/>
<ellipse cx="400.068" cy="16.1315" rx="3.73525" ry="4.15028" transform="rotate(-16.9697 400.068 16.1315)" fill="#F4E666"/>
<ellipse cx="395.442" cy="14.0999" rx="4.00003" ry="4.15028" transform="rotate(53.0266 395.442 14.0999)" fill="#F4E666"/>
<ellipse cx="393.614" cy="9.38916" rx="3.85238" ry="4.15028" transform="rotate(97.4393 393.614 9.38916)" fill="#F4E666"/>
<ellipse cx="400.583" cy="9.59245" rx="3.49232" ry="3.06523" transform="rotate(-17.0054 400.583 9.59245)" fill="#EED919"/>
<ellipse cx="401.681" cy="12.0283" rx="2.87369" ry="2.45227" transform="rotate(8.71071 401.681 12.0283)" fill="#EED919"/>
<ellipse cx="399.832" cy="12.6804" rx="3.32022" ry="2.49017" transform="rotate(78.0248 399.832 12.6804)" fill="#EED919"/>
<ellipse cx="398.105" cy="11.913" rx="2.9052" ry="3.32022" transform="rotate(39.5771 398.105 11.913)" fill="#EED919"/>
<ellipse cx="397.642" cy="9.89004" rx="3.32022" ry="2.49017" transform="rotate(22.9423 397.642 9.89004)" fill="#EED919"/>
<ellipse cx="399.075" cy="9.2732" rx="3.04796" ry="3.32022" transform="rotate(-9.81638 399.075 9.2732)" fill="#EED919"/>
<ellipse cx="399.538" cy="10.7334" rx="3.73525" ry="3.32022" transform="rotate(17.5712 399.538 10.7334)" fill="#FFF2B3"/>
<path d="M389.319 35.0161C388.821 32.8469 385.376 30.2386 383.716 29.2057C389.194 32.3046 390.979 34.3705 391.186 35.0161H389.319Z" fill="#28D360"/>
<path d="M390.944 31.9013C390.041 28.8472 386.89 25.5336 385.427 24.2585C390.177 28.0209 391.464 30.4063 391.775 31.3078L390.944 31.9013Z" fill="#28D360"/>
<path d="M391.585 30.5126C391.908 27.3195 394.009 23.4928 395.019 21.9785C391.689 26.5191 391.011 29.7123 390.879 30.6624L391.585 30.5126Z" fill="#28D360"/>
<path d="M392.224 35.0161C392.722 30.9875 396.167 26.1437 397.827 24.2253C392.348 29.9804 390.564 33.8171 390.356 35.0161H392.224Z" fill="#28D360"/>
<path d="M389.526 35.0161C391.518 33.0769 390.771 21.8378 389.526 17.9323C389.941 16.855 389.775 18.3708 390.771 21.2797C391.767 24.1886 392.016 31.6494 392.016 35.0161H389.526Z" fill="#28D360"/>
<ellipse cx="392.538" cy="9.88" rx="4.16904" ry="4.15028" transform="rotate(46.5011 392.538 9.88)" fill="#F4E666"/>
<ellipse cx="387.061" cy="7.95067" rx="4.20641" ry="4.15028" transform="rotate(-12.293 387.061 7.95067)" fill="#F4E666"/>
<ellipse cx="394.034" cy="14.8609" rx="4.23376" ry="4.15028" transform="rotate(91.9245 394.034 14.8609)" fill="#F4E666"/>
<ellipse cx="389.068" cy="19.1315" rx="3.73525" ry="4.15028" transform="rotate(-16.9697 389.068 19.1315)" fill="#F4E666"/>
<ellipse cx="384.442" cy="17.0999" rx="4.00003" ry="4.15028" transform="rotate(53.0266 384.442 17.0999)" fill="#F4E666"/>
<ellipse cx="382.614" cy="12.3892" rx="3.85238" ry="4.15028" transform="rotate(97.4393 382.614 12.3892)" fill="#F4E666"/>
<ellipse cx="389.583" cy="12.5925" rx="3.49232" ry="3.06523" transform="rotate(-17.0054 389.583 12.5925)" fill="#EED919"/>
<ellipse cx="390.681" cy="15.0283" rx="2.87369" ry="2.45227" transform="rotate(8.71071 390.681 15.0283)" fill="#EED919"/>
<ellipse cx="388.832" cy="15.6804" rx="3.32022" ry="2.49017" transform="rotate(78.0248 388.832 15.6804)" fill="#EED919"/>
<ellipse cx="387.105" cy="14.913" rx="2.9052" ry="3.32022" transform="rotate(39.5771 387.105 14.913)" fill="#EED919"/>
<ellipse cx="386.642" cy="12.89" rx="3.32022" ry="2.49017" transform="rotate(22.9423 386.642 12.89)" fill="#EED919"/>
<ellipse cx="388.075" cy="12.2732" rx="3.04796" ry="3.32022" transform="rotate(-9.81638 388.075 12.2732)" fill="#EED919"/>
<ellipse cx="388.538" cy="13.7334" rx="3.73525" ry="3.32022" transform="rotate(17.5712 388.538 13.7334)" fill="#FFF2B3"/>
<path d="M39.5487 66.3423C40.2291 63.3791 44.9348 59.8161 47.2025 58.405C39.7188 62.6382 37.281 65.4604 36.9975 66.3423H39.5487Z" fill="#28D360"/>
<path d="M37.1364 62.4673C38.7125 58.404 43.748 54.2864 46.0687 52.7355C38.557 57.2538 36.4362 60.3495 35.9017 61.5428L37.1364 62.4673Z" fill="#28D360"/>
<path d="M36.0093 58.2147C34.9331 54.6555 31.3187 50.8039 29.646 49.323C35.0702 53.6908 36.6289 57.1643 36.9975 58.2147L36.0093 58.2147Z" fill="#28D360"/>
<path d="M35.5801 66.3422C34.8998 61.6857 30.1941 56.0868 27.9263 53.8694C35.41 60.5216 37.8479 64.9564 38.1314 66.3422H35.5801Z" fill="#28D360"/>
<path d="M39.2653 66.3423C36.5439 63.6932 37.5644 48.3401 39.2653 43.005C38.6983 41.5333 38.9251 43.604 37.5644 47.5777C36.2038 51.5514 35.8636 61.7432 35.8636 66.3423H39.2653Z" fill="#28D360"/>
<ellipse cx="5.10253" cy="5.66948" rx="5.10253" ry="5.66948" transform="matrix(-0.923733 0.383037 0.383037 0.923733 36.7045 24)" fill="#DF94CF"/>
<ellipse cx="5.10253" cy="5.66948" rx="5.10253" ry="5.66948" transform="matrix(-0.806215 -0.591622 -0.591622 0.806215 50.6042 30.4258)" fill="#DF94CF"/>
<ellipse cx="5.10253" cy="5.66948" rx="5.10253" ry="5.66948" transform="matrix(-0.661716 0.749755 0.749755 0.661716 28.7529 29.2838)" fill="#DF94CF"/>
<ellipse cx="5.10253" cy="5.66948" rx="5.10253" ry="5.66948" transform="matrix(-0.995323 -0.0966029 -0.0966029 0.995323 39.5323 39.2882)" fill="#DF94CF"/>
<ellipse cx="5.10253" cy="5.66948" rx="5.10253" ry="5.66948" transform="matrix(-0.874218 0.485533 0.485533 0.874218 42.831 36.861)" fill="#DF94CF"/>
<ellipse cx="5.10253" cy="5.66948" rx="5.10253" ry="5.66948" transform="matrix(-0.64519 0.764022 0.764022 0.64519 44.619 32.2028)" fill="#DF94CF"/>
<ellipse cx="4.53559" cy="3.96864" rx="4.53559" ry="3.96864" transform="matrix(-0.882169 -0.470932 -0.470932 0.882169 42.8676 34.929)" fill="#D37AC0"/>
<ellipse cx="3.92561" cy="3.34992" rx="3.92561" ry="3.34992" transform="matrix(-0.964702 -0.263342 -0.263342 0.964702 38.8394 36.2231)" fill="#D37AC0"/>
<ellipse cx="4.53559" cy="3.40169" rx="4.53559" ry="3.40169" transform="matrix(-0.587141 0.809485 0.809485 0.587141 36.0258 34.5931)" fill="#D37AC0"/>
<ellipse cx="3.96864" cy="4.53559" rx="3.96864" ry="4.53559" transform="matrix(-0.963172 0.268885 0.268885 0.963172 41.3013 34.8271)" fill="#D37AC0"/>
<ellipse cx="4.53559" cy="3.40169" rx="4.53559" ry="3.40169" transform="matrix(-0.971188 -0.238313 -0.238313 0.971188 45.6147 35.7722)" fill="#D37AC0"/>
<ellipse cx="3.40169" cy="4.53559" rx="3.40169" ry="4.53559" transform="matrix(-0.831028 -0.556231 -0.556231 0.831028 44.9348 34.9757)" fill="#D37AC0"/>
<ellipse cx="5.10253" cy="4.53559" rx="5.10253" ry="4.53559" transform="matrix(-1 0 0 1 42.667 33.4592)" fill="#FFDADB"/>
<path d="M21.8683 62.5711C21.3461 60.2965 17.7341 57.5616 15.9933 56.4785C21.7378 59.7279 23.609 61.8941 23.8266 62.5711H21.8683Z" fill="#28D360"/>
<path d="M23.5725 59.3051C22.6263 56.1026 19.3215 52.6281 17.7874 51.2911C22.7689 55.2362 24.1175 57.7374 24.4443 58.6827L23.5725 59.3051Z" fill="#28D360"/>
<path d="M24.2453 57.8489C24.5839 54.5008 26.7865 50.4882 27.8455 48.9004C24.3543 53.6615 23.6428 57.0098 23.5046 58.006L24.2453 57.8489Z" fill="#28D360"/>
<path d="M24.9146 62.571C25.4368 58.3468 29.0488 53.2677 30.7896 51.2562C25.0451 57.2908 23.1739 61.3138 22.9563 62.571H24.9146Z" fill="#28D360"/>
<path d="M22.0859 62.5711C24.1748 60.5376 23.3915 48.7527 22.0859 44.6576C22.5211 43.5279 22.347 45.1173 23.3915 48.1675C24.4359 51.2177 24.697 59.0408 24.697 62.5711H22.0859Z" fill="#28D360"/>
<ellipse cx="25.2444" cy="36.2142" rx="4.37152" ry="4.35184" transform="rotate(46.5011 25.2444 36.2142)" fill="#DF94CF"/>
<ellipse cx="19.5014" cy="34.1912" rx="4.4107" ry="4.35184" transform="rotate(-12.293 19.5014 34.1912)" fill="#DF94CF"/>
<ellipse cx="26.813" cy="41.4371" rx="4.43938" ry="4.35184" transform="rotate(91.9245 26.813 41.4371)" fill="#DF94CF"/>
<ellipse cx="21.6053" cy="45.915" rx="3.91666" ry="4.35184" transform="rotate(-16.9697 21.6053 45.915)" fill="#DF94CF"/>
<ellipse cx="16.7554" cy="43.7848" rx="4.1943" ry="4.35184" transform="rotate(53.0266 16.7554 43.7848)" fill="#DF94CF"/>
<ellipse cx="14.8382" cy="38.8452" rx="4.03948" ry="4.35184" transform="rotate(97.4393 14.8382 38.8452)" fill="#DF94CF"/>
<ellipse cx="22.1456" cy="39.0584" rx="3.66193" ry="3.2141" transform="rotate(-17.0054 22.1456 39.0584)" fill="#D37AC0"/>
<ellipse cx="23.297" cy="41.6124" rx="3.01326" ry="2.57137" transform="rotate(8.71071 23.297 41.6124)" fill="#D37AC0"/>
<ellipse cx="21.3577" cy="42.2964" rx="3.48148" ry="2.61111" transform="rotate(78.0248 21.3577 42.2964)" fill="#D37AC0"/>
<ellipse cx="19.5467" cy="41.4916" rx="3.04629" ry="3.48148" transform="rotate(39.5771 19.5467 41.4916)" fill="#D37AC0"/>
<ellipse cx="19.0613" cy="39.3704" rx="3.48148" ry="2.61111" transform="rotate(22.9423 19.0613 39.3704)" fill="#D37AC0"/>
<ellipse cx="20.5648" cy="38.7236" rx="3.19599" ry="3.48148" transform="rotate(-9.81638 20.5648 38.7236)" fill="#D37AC0"/>
<ellipse cx="21.0494" cy="40.2546" rx="3.91666" ry="3.48148" transform="rotate(17.5712 21.0494 40.2546)" fill="#FFDADB"/>
<path d="M53.8683 58.5711C53.3461 56.2965 49.7341 53.5616 47.9933 52.4785C53.7378 55.7279 55.609 57.8941 55.8266 58.5711H53.8683Z" fill="#28D360"/>
<path d="M55.5725 55.3051C54.6263 52.1026 51.3215 48.6281 49.7874 47.2911C54.7689 51.2362 56.1175 53.7374 56.4443 54.6827L55.5725 55.3051Z" fill="#28D360"/>
<path d="M56.2453 53.8489C56.5839 50.5008 58.7865 46.4882 59.8455 44.9004C56.3543 49.6615 55.6428 53.0098 55.5046 54.006L56.2453 53.8489Z" fill="#28D360"/>
<path d="M56.9146 58.571C57.4368 54.3468 61.0488 49.2677 62.7896 47.2562C57.0451 53.2908 55.1739 57.3138 54.9563 58.571H56.9146Z" fill="#28D360"/>
<path d="M54.0859 58.5711C56.1748 56.5376 55.3915 44.7527 54.0859 40.6576C54.5211 39.5279 54.347 41.1173 55.3915 44.1675C56.4359 47.2177 56.697 55.0408 56.697 58.5711H54.0859Z" fill="#28D360"/>
<ellipse cx="57.2444" cy="32.2142" rx="4.37152" ry="4.35184" transform="rotate(46.5011 57.2444 32.2142)" fill="#DF94CF"/>
<ellipse cx="51.5014" cy="30.1912" rx="4.4107" ry="4.35184" transform="rotate(-12.293 51.5014 30.1912)" fill="#DF94CF"/>
<ellipse cx="58.813" cy="37.4371" rx="4.43938" ry="4.35184" transform="rotate(91.9245 58.813 37.4371)" fill="#DF94CF"/>
<ellipse cx="53.6053" cy="41.915" rx="3.91666" ry="4.35184" transform="rotate(-16.9697 53.6053 41.915)" fill="#DF94CF"/>
<ellipse cx="48.7554" cy="39.7848" rx="4.1943" ry="4.35184" transform="rotate(53.0266 48.7554 39.7848)" fill="#DF94CF"/>
<ellipse cx="46.8382" cy="34.8452" rx="4.03948" ry="4.35184" transform="rotate(97.4393 46.8382 34.8452)" fill="#DF94CF"/>
<ellipse cx="54.1456" cy="35.0584" rx="3.66193" ry="3.2141" transform="rotate(-17.0054 54.1456 35.0584)" fill="#D37AC0"/>
<ellipse cx="55.297" cy="37.6124" rx="3.01326" ry="2.57137" transform="rotate(8.71071 55.297 37.6124)" fill="#D37AC0"/>
<ellipse cx="53.3577" cy="38.2964" rx="3.48148" ry="2.61111" transform="rotate(78.0248 53.3577 38.2964)" fill="#D37AC0"/>
<ellipse cx="51.5467" cy="37.4916" rx="3.04629" ry="3.48148" transform="rotate(39.5771 51.5467 37.4916)" fill="#D37AC0"/>
<ellipse cx="51.0613" cy="35.3704" rx="3.48148" ry="2.61111" transform="rotate(22.9423 51.0613 35.3704)" fill="#D37AC0"/>
<ellipse cx="52.5648" cy="34.7236" rx="3.19599" ry="3.48148" transform="rotate(-9.81638 52.5648 34.7236)" fill="#D37AC0"/>
<ellipse cx="53.0494" cy="36.2546" rx="3.91666" ry="3.48148" transform="rotate(17.5712 53.0494 36.2546)" fill="#FFDADB"/>
</svg>
