<svg xmlns="http://www.w3.org/2000/svg" viewBox="0 0 425.14 55.57"><defs><style>.cls-1{fill:#41210f;}</style></defs><g id="圖層_2" data-name="圖層 2"><g id="圖層_1-2" data-name="圖層 1"><path class="cls-1" d="M47.59,20.45c-.63-5.26-2.8-10.8-7.88-12.92C35.14,5.62,27,4.66,20.38,5.05A42.23,42.23,0,0,0,8.83,7a13.39,13.39,0,0,0-6,3.7A10.16,10.16,0,0,0,0,17.17c-.1,4.57,3.42,7.49,3.91,7.88.5,16.11.08,21.73-.48,23.6a5.11,5.11,0,0,0,1.64,5.74c1.87,1.28,4.32,1.2,6.48,1.16a54.38,54.38,0,0,0,7.35-.62c.89-.13,4-.86,4-2V42.48l1.64.07c3.46,0,6.2-.09,8.2-.27C44.06,41.21,48.82,30.71,47.59,20.45ZM25.8,30.92a8.07,8.07,0,0,1-2.82.21v-14c2.18,0,4.28.12,5.26,2.35a12.45,12.45,0,0,1,.68,5C28.92,26.87,28.37,30,25.8,30.92Z"/><path class="cls-1" d="M87.17,10.57a20.2,20.2,0,0,0-7.37-2.4A37.49,37.49,0,0,0,71,8.32q-9.68,1.14-15.14,6.91a17.22,17.22,0,0,0-4,7.59,28.43,28.43,0,0,0-.51,10.57Q52.91,46.5,59,51.1l-2,.54-1.1-2.14a1.09,1.09,0,0,0-1-.58L52,49l-1.36-8a1.07,1.07,0,0,0-1.45-.81l-9.39,3.77A2.25,2.25,0,0,0,39,47.52l4.86,5.27a1,1,0,0,0,1.48.06l3.45-3.2,1.7,2.68a1,1,0,0,0,.94.49l3-.16,1,2a1.05,1.05,0,0,0,1.32.52L62.26,53a18.19,18.19,0,0,0,5.08,1.49,36.32,36.32,0,0,0,9.12-.08q10.31-1.22,15.62-7.68T96,28.11Q94.37,14.6,87.17,10.57ZM82.65,28.22a3.4,3.4,0,0,1-1.55,1.83,7.5,7.5,0,0,1-2.71.56,7.23,7.23,0,0,1-2.76-.25,3.35,3.35,0,0,1-1.75-1.63A8.33,8.33,0,0,1,73,25.06a8.18,8.18,0,0,1,.45-3.69A3.28,3.28,0,0,1,75,19.59,7.74,7.74,0,0,1,77.72,19a7.63,7.63,0,0,1,2.75.24,3.28,3.28,0,0,1,1.75,1.58,8.15,8.15,0,0,1,.88,3.62A8.48,8.48,0,0,1,82.65,28.22Z"/><path class="cls-1" d="M137.17,35a23.3,23.3,0,0,1-5.78-5.21,14.12,14.12,0,0,0,8.55-3.67,13,13,0,0,0,4.24-8.55,10.85,10.85,0,0,0-.9-4.89,11.37,11.37,0,0,0-5-5.09c-1.75-1-5.66-2-9.44-2-4.33,0-5.44,8.75-5.68,10.05-.38,2.08-.59,5.33-2.05,5.68a1.26,1.26,0,0,1-.55,0V10.07A3.6,3.6,0,0,0,119.7,8c-.82-1.1-2.63-1.64-5.41-1.64a27.6,27.6,0,0,0-8.92,1.36,8.66,8.66,0,0,0-2.9,1.47c-.67.56-2.35,1.94-2.33,4a4.72,4.72,0,0,0,1.37,3.14c0,20.62,0,35.65,0,36.41a1.49,1.49,0,0,0,.13.64,1.89,1.89,0,0,0,1,.86,17.78,17.78,0,0,0,5.33.48,64,64,0,0,0,8.38-.55c2.8-.36,4.2-.84,4.2-1.43q0-6,0-11.94c0-.69.27-.84.65-.87,1.31-.08,2.7,4.45,3.09,5.29,1.65,3.62,3.28,8.27,7.8,8.92a13.31,13.31,0,0,0,10.92-4,8.89,8.89,0,0,0,2.7-5.64,8.1,8.1,0,0,0-1.46-4.81C142.54,37.18,140.45,37.08,137.17,35Z"/><path class="cls-1" d="M246.27,41.59c.29-20.91.14-24.21.14-30.81,0-5-6.55-5.19-10.15-4.92A13.89,13.89,0,0,0,230,7.44,15.1,15.1,0,0,0,225.3,12a32.05,32.05,0,0,1-4.55,5.2,1.83,1.83,0,0,1-1.13.42,1.8,1.8,0,0,1-1.14-.49C217,15.92,212.7,10,209.61,8a16.06,16.06,0,0,0-7.77-2.5c-1.43-.07-6.14-.31-9.09,2.83A4.15,4.15,0,0,0,192,9.59a4.72,4.72,0,0,0-.25,2.08,8.81,8.81,0,0,0,1,3.46c-.58,21.34-1,37-1,37.74a1.48,1.48,0,0,0,.14.64,1.84,1.84,0,0,0,1,.87,13.44,13.44,0,0,0,4.42.48h4.95q8.55-.21,8.55-2c0-6.42-1.47-12.77-1.2-19.2.89-.38,1,1.52,1.09,2.12.29,1.41.44,2.85.63,4.28.37,2.77.79,5.82,2.5,8.12a6.58,6.58,0,0,0,8,2c2.33-1.21,3.31-3.94,4.08-6.25a42.81,42.81,0,0,0,1.3-4.73A42.64,42.64,0,0,0,228,34a.41.41,0,0,1,.31-.41.42.42,0,0,1,.3.11c.17.14.06,1.38.07,1.62,0,.58,0,1.15.05,1.73,0,1.06,0,2.12,0,3.18,0,2-.05,3.92,0,5.88,0,1.77-.36,3.65.29,5.35.93,2.45,4.28,3,5.88,3.33,6.45,1.33,13.88-1.45,14-4.09,0-.76-.55-.95-1.35-2.45A12.82,12.82,0,0,1,246.27,41.59Z"/><path class="cls-1" d="M349.78,50.73a33.53,33.53,0,0,1-1.09-4.23,88.18,88.18,0,0,1-1.3-9.93c-.57-9.5-.19-23.71-.16-24.52a2.92,2.92,0,0,0,1.07-2A3,3,0,0,0,347.48,8c-.39-.46-1.45-1.48-5.47-1.64a15.66,15.66,0,0,0-3.92.15,11.22,11.22,0,0,0-5.72,2.66,10.56,10.56,0,0,0-3.15,6.79V27H329L322.38,9.38A4.39,4.39,0,0,0,320.43,7a9.66,9.66,0,0,0-4-.69,23.81,23.81,0,0,0-8.92,1.43,8.83,8.83,0,0,0-2.81,1.61,8.81,8.81,0,0,0-2.52,3.07c-1.43,3.34,1.17,7,1.4,7.37V30.16c0,6.45-.11,12.87-.69,19.28-.19,2.07-.25,2.66.17,3.33.74,1.2,2.41,1.36,3.68,1.45,2,.14,4,.07,6,0a16.23,16.23,0,0,0,6.44-1.41,7.9,7.9,0,0,0,4.63-6.07,18,18,0,0,0-.34-6.42c-.05-.21-.8-3.59-.81-3.59H323a12.9,12.9,0,0,1,.78,2.08q.92,2.4,1.82,4.81c1.75,4.61,1.52,4.54,2.1,5.55a11.75,11.75,0,0,0,2.94,3.65,11.52,11.52,0,0,0,6.65,2.41h.48c2.71,0,13.26-.11,12.31-3.62A7.13,7.13,0,0,0,349.78,50.73Z"/><path class="cls-1" d="M377.82,31.38a12.66,12.66,0,0,0-4.18.64c-1.21.43-1.81.91-1.81,1.44v9.17c0,.45,0,.91,0,1.37,0,.87-.19,2.46-1.36,2.46h-.19c-1.06-.13-1.24-1.39-1.28-2.25-.06-1.5,0-3,0-4.49V34.4a2.87,2.87,0,0,0-.42-1.88c-1.36-1.74-5.24-.45-5.91-.23-1.07.35-3,1-3.07,2.17a1.72,1.72,0,0,0,.46,1.23c.06,3.25,0,5.44,0,7.21,0,1.45,0,1.7,0,2.32q0,4.62,2.69,6.9t7.7,2.29q5,0,7.66-2.29t2.64-6.9V33.11a1.85,1.85,0,0,0-.38-1C380,31.63,379.16,31.38,377.82,31.38Z"/><path class="cls-1" d="M252,29h15.22a8.31,8.31,0,0,1,16.42,0H298a1,1,0,0,0,1-1.18c-.28-1.54-.88-4.06-1-4.34-2.77-11.4-14-18.67-25.53-17.69a23.52,23.52,0,0,0-17.17,10A23.33,23.33,0,0,0,252,23.52a31.68,31.68,0,0,0-.91,4.4A1,1,0,0,0,252,29Z"/><path class="cls-1" d="M298,32.67H283.44a8.31,8.31,0,0,1-15.94,0H252a1,1,0,0,0-1,1c0,.51,0,1.06,0,1.16.1,6.86,4.78,12.82,10.46,16.23a25.91,25.91,0,0,0,9,3.29,26.79,26.79,0,0,0,12.88-.87A23,23,0,0,0,298.5,36.88a18.35,18.35,0,0,0,.48-3.13A1,1,0,0,0,298,32.67Z"/><circle class="cls-1" cx="275.47" cy="30.3" r="5.61" transform="translate(-1.3 44.52) rotate(-9.22)"/><path class="cls-1" d="M184.22,40.89c-2.9,0-8.17,1.38-15.82,2V36.67l11.93,1.12c.79,0,1.42-.71,1.88-2.14a21.73,21.73,0,0,0,.69-6.29c0-2.77-.59-4.15-1.78-4.15-2,0-6.22,1.11-12.72,1.38v-5.4q10.15.86,14.43.85c.66,0,1.19-.8,1.58-2.4a30.69,30.69,0,0,0,.6-7C185,9.6,184.55,7,183.62,7c-8.63.46-17.27,2-25.9,2.41a7,7,0,0,0-5.24-1.66,4.58,4.58,0,0,0-2.87,1.33,4,4,0,0,0-1.12,2.7A4.32,4.32,0,0,0,150,15V53a1.38,1.38,0,0,0,.13.61,1.76,1.76,0,0,0,1,.84,13.63,13.63,0,0,0,4.35.46h27.94c.65,0,1.18-.79,1.58-2.37a31.25,31.25,0,0,0,.59-7C185.6,42.43,185.14,40.89,184.22,40.89Z"/><path class="cls-1" d="M160.34,8c1.44-.48,3-.94,4.66-1.35a53.86,53.86,0,0,1,6.12-1.12.77.77,0,0,0,.67-.65,4.33,4.33,0,0,0-.87-3.45A4.24,4.24,0,0,0,168.8.11,3.15,3.15,0,0,0,167,.17a18.78,18.78,0,0,0-8.23,5.48A1.49,1.49,0,0,0,160.34,8Z"/><path class="cls-1" d="M360.44,14.87c.23,7.29,0,9.84-.21,10.68a2.3,2.3,0,0,0,.74,2.6,4.93,4.93,0,0,0,2.93.53,24.52,24.52,0,0,0,3.33-.28c.4-.06,1.82-.39,1.82-.93V22.76l.74,0q2.35,0,3.72-.12c5.11-.48,7.27-5.24,6.71-9.88-.29-2.39-1.27-4.89-3.57-5.85a22.64,22.64,0,0,0-8.75-1.13,19.27,19.27,0,0,0-5.23.86A6.08,6.08,0,0,0,360,8.35a4.6,4.6,0,0,0-1.3,3A4.74,4.74,0,0,0,360.44,14.87Zm8.64-3.6c1,0,1.93.06,2.38,1.07a5.61,5.61,0,0,1,.31,2.26c0,1.09-.25,2.5-1.41,2.93a3.92,3.92,0,0,1-1.28.09Z"/><path class="cls-1" d="M425.06,12.88C424.77,10.5,423.79,8,421.49,7a22.69,22.69,0,0,0-8.75-1.13,19.27,19.27,0,0,0-5.23.86,6.18,6.18,0,0,0-2.71,1.68,4.6,4.6,0,0,0-1.29,3A4.7,4.7,0,0,0,405.28,15c.23,7.29,0,9.84-.22,10.68a2.32,2.32,0,0,0,.75,2.6,5,5,0,0,0,2.93.53,24.37,24.37,0,0,0,3.32-.28c.41-.06,1.82-.39,1.82-.93V22.86l.75,0c1.57,0,2.8,0,3.71-.12C423.46,22.29,425.61,17.53,425.06,12.88Zm-9.87,4.75a3.88,3.88,0,0,1-1.27.09V11.37c1,0,1.93.06,2.37,1.07a5.61,5.61,0,0,1,.31,2.26C416.6,15.79,416.36,17.2,415.19,17.63Z"/><path class="cls-1" d="M400.76,32.11A22.7,22.7,0,0,0,392,31a18.89,18.89,0,0,0-5.23.86,6.08,6.08,0,0,0-2.71,1.67,4.58,4.58,0,0,0-1.29,3A4.68,4.68,0,0,0,384.55,40c.22,7.3,0,9.84-.22,10.69a2.3,2.3,0,0,0,.75,2.59,4.84,4.84,0,0,0,2.93.53,24.37,24.37,0,0,0,3.32-.28c.41-.06,1.82-.39,1.82-.93V47.93l.75,0c1.57,0,2.8,0,3.71-.12,5.11-.48,7.27-5.24,6.71-9.88C404,35.58,403.06,33.07,400.76,32.11Zm-6.3,10.59a3.66,3.66,0,0,1-1.28.09V36.45c1,0,1.94,0,2.38,1.06a5.61,5.61,0,0,1,.31,2.26C395.87,40.86,395.62,42.27,394.46,42.7Z"/><path class="cls-1" d="M384.52,25.24a9.6,9.6,0,0,0,3.26,1.66,18.18,18.18,0,0,0,4.11.57,11.28,11.28,0,0,0,7.57-2.12,8.08,8.08,0,0,0,2.42-3.25,13.47,13.47,0,0,0,1-4.89c0-.85,0-1.63,0-2.38l-2,.83-3-3-4.53,2.08-2-1.5-3.18,1.8-1.7-1.69-3.42,2.28-1.31-.78c-.05.5-.1,1-.12,1.54Q381.45,22.84,384.52,25.24Z"/><path class="cls-1" d="M386.8,10.81l1.78,1.77,3-1.7,2.06,1.57,4.7-2.15,3,3,1.29-.54A7.92,7.92,0,0,0,400.2,8,8.81,8.81,0,0,0,397,6.21a17.32,17.32,0,0,0-4.26-.62A10.76,10.76,0,0,0,384.86,8a9.16,9.16,0,0,0-2.67,4.75l.87.52Z"/></g></g></svg>