<svg width="413" height="493" viewBox="0 0 413 493" fill="none" xmlns="http://www.w3.org/2000/svg">
<g filter="url(#filter0_d_6102_372)">
<rect x="27" y="35" width="352" height="420" rx="4" fill="#72D1FF"/>
<rect x="20" y="28" width="366" height="434" rx="11" stroke="white" stroke-width="14"/>
</g>
<g filter="url(#filter1_d_6102_372)">
<circle cx="34" cy="30" r="28.5" transform="rotate(-180 34 30)" fill="white" stroke="#3F3A3A" stroke-width="3"/>
<mask id="mask0_6102_372" style="mask-type:alpha" maskUnits="userSpaceOnUse" x="7" y="3" width="54" height="54">
<circle cx="34" cy="30" r="27" transform="rotate(-180 34 30)" fill="white"/>
</mask>
<g mask="url(#mask0_6102_372)">
<rect x="67.0845" y="30.3799" width="68.4507" height="46.3944" transform="rotate(-180 67.0845 30.3799)" fill="#FF6542" stroke="#3F3A3A" stroke-width="3"/>
<circle cx="13.5" cy="25.5" r="2.5" fill="white"/>
<path fill-rule="evenodd" clip-rule="evenodd" d="M31.4862 8.73827C31.6307 10.1114 30.6348 11.3417 29.2616 11.4862C26.1944 11.8091 23.7494 13.3545 21.8868 15.2855C20.0026 17.239 18.8337 19.4712 18.3596 20.8258C17.9035 22.129 16.4773 22.8157 15.1741 22.3596C13.8709 21.9035 13.1842 20.4773 13.6403 19.1741C14.3328 17.1954 15.864 14.3276 18.2881 11.8143C20.7339 9.27863 24.2055 6.99077 28.7383 6.51369C30.1114 6.36917 31.3417 7.36515 31.4862 8.73827Z" fill="white"/>
</g>
<circle cx="33.9999" cy="29.9999" r="9.48591" transform="rotate(-180 33.9999 29.9999)" fill="white" stroke="#3F3A3A" stroke-width="3"/>
</g>
<g filter="url(#filter2_d_6102_372)">
<circle cx="34" cy="455" r="28.5" transform="rotate(-180 34 455)" fill="white" stroke="#3F3A3A" stroke-width="3"/>
<mask id="mask1_6102_372" style="mask-type:alpha" maskUnits="userSpaceOnUse" x="7" y="428" width="54" height="54">
<circle cx="34" cy="455" r="27" transform="rotate(-180 34 455)" fill="white"/>
</mask>
<g mask="url(#mask1_6102_372)">
<rect x="67.0845" y="455.38" width="68.4507" height="46.3944" transform="rotate(-180 67.0845 455.38)" fill="#FF6542" stroke="#3F3A3A" stroke-width="3"/>
<circle cx="13.5" cy="450.5" r="2.5" fill="white"/>
<path fill-rule="evenodd" clip-rule="evenodd" d="M31.4862 433.738C31.6307 435.111 30.6348 436.342 29.2616 436.486C26.1944 436.809 23.7494 438.355 21.8868 440.286C20.0026 442.239 18.8337 444.471 18.3596 445.826C17.9035 447.129 16.4773 447.816 15.1741 447.36C13.8709 446.903 13.1842 445.477 13.6403 444.174C14.3328 442.195 15.864 439.328 18.2881 436.814C20.7339 434.279 24.2055 431.991 28.7383 431.514C30.1114 431.369 31.3417 432.365 31.4862 433.738Z" fill="white"/>
</g>
<circle cx="33.9999" cy="455" r="9.48591" transform="rotate(-180 33.9999 455)" fill="white" stroke="#3F3A3A" stroke-width="3"/>
</g>
<g filter="url(#filter3_d_6102_372)">
<circle cx="379" cy="30" r="28.5" transform="rotate(-180 379 30)" fill="white" stroke="#3F3A3A" stroke-width="3"/>
<mask id="mask2_6102_372" style="mask-type:alpha" maskUnits="userSpaceOnUse" x="352" y="3" width="54" height="54">
<circle cx="379" cy="30" r="27" transform="rotate(-180 379 30)" fill="white"/>
</mask>
<g mask="url(#mask2_6102_372)">
<rect x="412.084" y="30.3799" width="68.4507" height="46.3944" transform="rotate(-180 412.084 30.3799)" fill="#FF6542" stroke="#3F3A3A" stroke-width="3"/>
<circle cx="358.5" cy="25.5" r="2.5" fill="white"/>
<path fill-rule="evenodd" clip-rule="evenodd" d="M376.486 8.73827C376.631 10.1114 375.635 11.3417 374.262 11.4862C371.195 11.8091 368.75 13.3545 366.887 15.2855C365.003 17.239 363.834 19.4712 363.36 20.8258C362.904 22.129 361.478 22.8157 360.174 22.3596C358.871 21.9035 358.184 20.4773 358.641 19.1741C359.333 17.1954 360.864 14.3276 363.288 11.8143C365.734 9.27863 369.206 6.99077 373.739 6.51369C375.112 6.36917 376.342 7.36515 376.486 8.73827Z" fill="white"/>
</g>
<circle cx="379" cy="29.9999" r="9.48591" transform="rotate(-180 379 29.9999)" fill="white" stroke="#3F3A3A" stroke-width="3"/>
</g>
<g filter="url(#filter4_d_6102_372)">
<circle cx="379" cy="455" r="28.5" transform="rotate(-180 379 455)" fill="white" stroke="#3F3A3A" stroke-width="3"/>
<mask id="mask3_6102_372" style="mask-type:alpha" maskUnits="userSpaceOnUse" x="352" y="428" width="54" height="54">
<circle cx="379" cy="455" r="27" transform="rotate(-180 379 455)" fill="white"/>
</mask>
<g mask="url(#mask3_6102_372)">
<rect x="412.084" y="455.38" width="68.4507" height="46.3944" transform="rotate(-180 412.084 455.38)" fill="#FF6542" stroke="#3F3A3A" stroke-width="3"/>
<circle cx="358.5" cy="450.5" r="2.5" fill="white"/>
<path fill-rule="evenodd" clip-rule="evenodd" d="M376.486 433.738C376.631 435.111 375.635 436.342 374.262 436.486C371.195 436.809 368.75 438.355 366.887 440.286C365.003 442.239 363.834 444.471 363.36 445.826C362.904 447.129 361.478 447.816 360.174 447.36C358.871 446.903 358.184 445.477 358.641 444.174C359.333 442.195 360.864 439.328 363.288 436.814C365.734 434.279 369.206 431.991 373.739 431.514C375.112 431.369 376.342 432.365 376.486 433.738Z" fill="white"/>
</g>
<circle cx="379" cy="455" r="9.48591" transform="rotate(-180 379 455)" fill="white" stroke="#3F3A3A" stroke-width="3"/>
</g>
<defs>
<filter id="filter0_d_6102_372" x="13" y="21" width="385" height="452" filterUnits="userSpaceOnUse" color-interpolation-filters="sRGB">
<feFlood flood-opacity="0" result="BackgroundImageFix"/>
<feColorMatrix in="SourceAlpha" type="matrix" values="0 0 0 0 0 0 0 0 0 0 0 0 0 0 0 0 0 0 127 0" result="hardAlpha"/>
<feOffset dx="5" dy="4"/>
<feComposite in2="hardAlpha" operator="out"/>
<feColorMatrix type="matrix" values="0 0 0 0 0 0 0 0 0 0 0 0 0 0 0 0 0 0 0.5 0"/>
<feBlend mode="normal" in2="BackgroundImageFix" result="effect1_dropShadow_6102_372"/>
<feBlend mode="normal" in="SourceGraphic" in2="effect1_dropShadow_6102_372" result="shape"/>
</filter>
<filter id="filter1_d_6102_372" x="0" y="0" width="68" height="68" filterUnits="userSpaceOnUse" color-interpolation-filters="sRGB">
<feFlood flood-opacity="0" result="BackgroundImageFix"/>
<feColorMatrix in="SourceAlpha" type="matrix" values="0 0 0 0 0 0 0 0 0 0 0 0 0 0 0 0 0 0 127 0" result="hardAlpha"/>
<feOffset dy="4"/>
<feGaussianBlur stdDeviation="2"/>
<feComposite in2="hardAlpha" operator="out"/>
<feColorMatrix type="matrix" values="0 0 0 0 0 0 0 0 0 0 0 0 0 0 0 0 0 0 0.25 0"/>
<feBlend mode="normal" in2="BackgroundImageFix" result="effect1_dropShadow_6102_372"/>
<feBlend mode="normal" in="SourceGraphic" in2="effect1_dropShadow_6102_372" result="shape"/>
</filter>
<filter id="filter2_d_6102_372" x="0" y="425" width="68" height="68" filterUnits="userSpaceOnUse" color-interpolation-filters="sRGB">
<feFlood flood-opacity="0" result="BackgroundImageFix"/>
<feColorMatrix in="SourceAlpha" type="matrix" values="0 0 0 0 0 0 0 0 0 0 0 0 0 0 0 0 0 0 127 0" result="hardAlpha"/>
<feOffset dy="4"/>
<feGaussianBlur stdDeviation="2"/>
<feComposite in2="hardAlpha" operator="out"/>
<feColorMatrix type="matrix" values="0 0 0 0 0 0 0 0 0 0 0 0 0 0 0 0 0 0 0.25 0"/>
<feBlend mode="normal" in2="BackgroundImageFix" result="effect1_dropShadow_6102_372"/>
<feBlend mode="normal" in="SourceGraphic" in2="effect1_dropShadow_6102_372" result="shape"/>
</filter>
<filter id="filter3_d_6102_372" x="345" y="0" width="68" height="68" filterUnits="userSpaceOnUse" color-interpolation-filters="sRGB">
<feFlood flood-opacity="0" result="BackgroundImageFix"/>
<feColorMatrix in="SourceAlpha" type="matrix" values="0 0 0 0 0 0 0 0 0 0 0 0 0 0 0 0 0 0 127 0" result="hardAlpha"/>
<feOffset dy="4"/>
<feGaussianBlur stdDeviation="2"/>
<feComposite in2="hardAlpha" operator="out"/>
<feColorMatrix type="matrix" values="0 0 0 0 0 0 0 0 0 0 0 0 0 0 0 0 0 0 0.25 0"/>
<feBlend mode="normal" in2="BackgroundImageFix" result="effect1_dropShadow_6102_372"/>
<feBlend mode="normal" in="SourceGraphic" in2="effect1_dropShadow_6102_372" result="shape"/>
</filter>
<filter id="filter4_d_6102_372" x="345" y="425" width="68" height="68" filterUnits="userSpaceOnUse" color-interpolation-filters="sRGB">
<feFlood flood-opacity="0" result="BackgroundImageFix"/>
<feColorMatrix in="SourceAlpha" type="matrix" values="0 0 0 0 0 0 0 0 0 0 0 0 0 0 0 0 0 0 127 0" result="hardAlpha"/>
<feOffset dy="4"/>
<feGaussianBlur stdDeviation="2"/>
<feComposite in2="hardAlpha" operator="out"/>
<feColorMatrix type="matrix" values="0 0 0 0 0 0 0 0 0 0 0 0 0 0 0 0 0 0 0.25 0"/>
<feBlend mode="normal" in2="BackgroundImageFix" result="effect1_dropShadow_6102_372"/>
<feBlend mode="normal" in="SourceGraphic" in2="effect1_dropShadow_6102_372" result="shape"/>
</filter>
</defs>
</svg>
